<svg id="그룹_3420" data-name="그룹 3420" xmlns="http://www.w3.org/2000/svg" width="38" height="60" viewBox="0 0 38 60">
  <path id="패스_1328" data-name="패스 1328" d="M891.215,507.2a3.407,3.407,0,1,0,3.435,3.406,3.422,3.422,0,0,0-3.435-3.406Z" transform="translate(-869.779 -500.325)" fill="#676767" fill-rule="evenodd"/>
  <path id="패스_1329" data-name="패스 1329" d="M828.073,496.511c-.694.913-2.819-.407-1.722-2.06.8-1.206,2.138,1.511,1.722,2.06Zm4.783-7.033a83.8,83.8,0,0,0-7.563,3.66c-3.1,1.693,1.794,6.021,3.556,4.262,1.249-1.246-.515-3.124-.724-4.656,3.019-2.269,14.559-6.8,25.965-7.858,3.218-.3,6.218,5.431,4.174,7.68-2.081,2.288-5.784,3.621-9.393,4.806-3.254,1.068-4.792,3.566-3.2,6.214,8.31,17.585,4.321,27.125-1.913,35.866-1.5,2.1-.739,5.349,2.9,3q7.96-9.769,8.04-24.03c1.733,5.21,1.384,12.522-1.477,22.372-.7,2.775,4.072,1.957,5.487-1.6,2.194-13.816,3.209-23.638-4.748-38.585,4.336-1.979,7.032-4.372,7.921-7.217.946-3.028.486-7.091-3.922-10.118-8.854.379-17.549,3.022-25.1,6.21Z" transform="translate(-824.286 -483.268)" fill="#676767" fill-rule="evenodd"/>
</svg>
