<svg id="그룹_3398" data-name="그룹 3398" xmlns="http://www.w3.org/2000/svg" width="63" height="49" viewBox="0 0 63 49">
  <path id="패스_1352" data-name="패스 1352" d="M2373.692,588.337c3.363,0,7.093,3.143,7.093,6.477s-3.73,6.443-7.093,6.443a6.421,6.421,0,0,1-6.089-6.443c0-3.334,2.727-6.477,6.089-6.477Zm0-.957h0a7.849,7.849,0,1,0,7.9,7.848,7.875,7.875,0,0,0-7.9-7.848Zm.094-4.4h0a12.284,12.284,0,1,0,12.365,12.284,12.326,12.326,0,0,0-12.365-12.284Zm.338,1.487h0c-6.922.095-10.738,5.816-10.738,11.177s4.265,10.365,10.084,10.15c7.244-.267,11.226-5.309,11.226-10.67S2379.53,584.391,2374.124,584.466Z" transform="translate(-2323.151 -558.547)" fill="#676767" fill-rule="evenodd"/>
  <path id="패스_1353" data-name="패스 1353" d="M2300.436,559.874a47.155,47.155,0,0,0,5.677-7.774c1.556-2.556,1.129-4.267-2.641-5.535-9.947-4.384-12.314-7.708-6.644-13.921,2.421-2.654,8.523-6.158,13.194-7.041,4.019-.76,6.231.138,7.569,5.009,1.882,6.858,5.228,9.361,11.847,9.648,2.953.463,3.048,1.645-1.58,3.85-6.22-.142-13.23-4.961-17.36-11.286-1.7.1-7.45,2.916-6.79,4.967.583,1.809,4.1,3.982,7.666,6.647,2.12,1.584,2.808,4.906.535,8.211-2.486,3.617-4.625,7.435-6.937,11.152-2.067,2.63-7.467-.782-4.535-3.927Z" transform="translate(-2277.706 -519.934)" fill="#676767" fill-rule="evenodd"/>
  <path id="패스_1354" data-name="패스 1354" d="M2258.773,588.615a7.3,7.3,0,0,1,5.007,6.178c.639,4.142-3.47,6.727-6.833,6.727s-6.3-3.392-6.3-6.727a6.3,6.3,0,0,1,8.128-6.178Zm7.465-1.34a12.435,12.435,0,0,0-15.454-2.772,12.3,12.3,0,0,0-6.205,10.739c.045,5.045,1.972,8.682,5.372,10.615a13.328,13.328,0,0,0,16.471-2.867,4,4,0,0,1-.947-1.611,3.423,3.423,0,0,1-.131-1.289h0c-5.756,8.614-18.8,5.462-18.8-4.469a11.575,11.575,0,0,1,4.488-9.155c7.644-5.485,18.428,1.744,15.5,11.183a35.648,35.648,0,0,0,2.637-3.207,12.18,12.18,0,0,0-2.928-7.167Zm-7.707.288a7.845,7.845,0,1,0,6.1,7.644A7.906,7.906,0,0,0,2258.531,587.562Z" transform="translate(-2244.579 -558.526)" fill="#676767" fill-rule="evenodd"/>
  <path id="패스_1355" data-name="패스 1355" d="M2370.506,513.712a4.16,4.16,0,1,1-8.147-1.2c-1.429-.72-2.09-1.592-.843-2.355,1.89-1.154,7.481-3.269,9.467,2.47a.8.8,0,0,1-.477,1.089Z" transform="translate(-2322.761 -508.802)" fill="#676767" fill-rule="evenodd"/>
</svg>
