<svg id="그룹_3423" data-name="그룹 3423" xmlns="http://www.w3.org/2000/svg" width="77" height="44" viewBox="0 0 77 44">
  <path id="패스_1358" data-name="패스 1358" d="M2758.8,554.792c1.738,1.224,4.5,4.82,4.249,8.641.228-.594.449-1.8.665-2.4-.235-4.851-2.79-6.993-4.486-7.847-5.685-2.862-10.084,5.433-11.2,9.759a20.6,20.6,0,0,0-.639,4.09c.69.385,1.358.8,2,1.248a14.651,14.651,0,0,1,.4-5.558C2750.62,559.506,2754.531,551.784,2758.8,554.792Z" transform="translate(-2686.717 -538.974)" fill="#676767" fill-rule="evenodd"/>
  <path id="패스_1359" data-name="패스 1359" d="M2601.323,581.122c-.339-.6-2.839,1.084-2.512,1.771-1.412.438,11.165,5.723,19.736,7.6,9.834,2.157,20.307-.135,29.985.014,4.422.068,8.513,1.574,7.431.759-3.69-1.56-4.449-1.784-9.213-2.052-7.865-.442-15.211,1.8-23.349.672-11-1.516-21.028-5.137-22.08-8.769Z" transform="translate(-2593.327 -556.776)" fill="#676767" fill-rule="evenodd"/>
  <path id="패스_1360" data-name="패스 1360" d="M2638.931,620.145c7.448,4.533,20.665,1.151,29.579-1.378,5.248-1.814,6.5-1.982,5.445-.847-1.932,2.081-4.772,2.919-7.65,3.589a68.815,68.815,0,0,1-13.987,1.949c-3.4.081-11.122.125-13.387-3.312Z" transform="translate(-2618.594 -579.48)" fill="#676767" fill-rule="evenodd"/>
  <path id="패스_1361" data-name="패스 1361" d="M2680.622,548.652a4.409,4.409,0,1,1-5.323,3.3,4.428,4.428,0,0,1,5.323-3.3Z" transform="translate(-2641.367 -536.443)" fill="#676767" fill-rule="evenodd"/>
  <path id="패스_1362" data-name="패스 1362" d="M2584.577,533.364c-.655-.613-.346,1.864,1.028,3.307-.3.019,1.833-5.077,13.046.1,8.649,3.992,17.62,6.882,26.9,7.556,6.638.482,7.165-.522,14.111.69a19.653,19.653,0,0,1,8.64,4.194c4.657,3.607-1.9-5.085-10.874-6.291,4.705-.932,9.657-7.91,4.612-5.35a25.354,25.354,0,0,1-19.941,1.172c-4.817-1.478-9.281-6.8-15.177-17.372a10.287,10.287,0,0,0-13.362-4.264,13.252,13.252,0,0,0-6.409,6.162c-.976,2.359-.031,2.136,2.419.282,1.984-1.5,5.589-3.658,9.687-2.355,2.793.889,4.787,4.876,7.276,11.135a25.016,25.016,0,0,1-9.695,2.089c-5.31-2.21-11.129-1.686-12.263-1.052Z" transform="translate(-2584.248 -516.149)" fill="#676767" fill-rule="evenodd"/>
</svg>
