<svg id="그룹_3409" data-name="그룹 3409" xmlns="http://www.w3.org/2000/svg" width="48" height="65" viewBox="0 0 48 65">
  <path id="패스_1303" data-name="패스 1303" d="M3057.179,192.617a3.8,3.8,0,1,1-3.83,3.8,3.816,3.816,0,0,1,3.83-3.8Z" transform="translate(-3035.253 -153.267)" fill="#676767" fill-rule="evenodd"/>
  <path id="패스_1304" data-name="패스 1304" d="M3055.1,247.51a48.094,48.094,0,0,0,9.229-1.1,51.429,51.429,0,0,0,6.868-2.171c3.065-1.487,2.031.7.921,1.642-5.68,2.093-11.529,2.134-16.742,2.24q-.142-.3-.276-.608Z" transform="translate(-3036.512 -187.971)" fill="#676767" fill-rule="evenodd"/>
  <path id="패스_1305" data-name="패스 1305" d="M3017.662,254.12a55.352,55.352,0,0,1-6.992-.659l.632,1.062c2.267.146,4.479.172,6.583.217-.079-.207-.152-.413-.222-.62Z" transform="translate(-3006.064 -194.583)" fill="#676767" fill-rule="evenodd"/>
  <path id="패스_1306" data-name="패스 1306" d="M3015.924,133.822c-1,1.449-3.566,1.932-5.09-.512-4.527-7.26-2.6-13.565-1.6-20.794-8.289-4.808-7.2-10.684-3.485-16.859a109.166,109.166,0,0,1-9.341-24.1c-.769-2.987,2.668-1.256,4.278,2.193,3.749,8.031,5.708,13.212,10.794,18.572,9.481-1.678,19.547.56,31.243,3.242,3.3.987.82,2.458-2.071,2.592-8.957-1.244-12.966-1.39-20.14-.649-9.424.974-12.871,6.247-7.978,10.634,2.3,1.545,1.056,2.869.046,6.6-1.843,6.8-.116,13.4,3.348,19.082Z" transform="translate(-2996.293 -70.025)" fill="#676767" fill-rule="evenodd"/>
</svg>
