<svg id="그룹_3431" data-name="그룹 3431" xmlns="http://www.w3.org/2000/svg" width="58.367" height="65" viewBox="0 0 58.367 65">
  <g id="그룹_476" data-name="그룹 476" transform="translate(0 40.941)">
    <g id="그룹_475" data-name="그룹 475" transform="translate(0 0)">
      <path id="패스_1616" data-name="패스 1616" d="M994.959,264.494c-.635-.406-2.029,1.552-1.363,2.026-.205.134,2.217.826,2.32.849,4.842,1.119,14.851,1.168,24.506-.022,7.919-.975,13.84-3.371,21.283-5.253a48.293,48.293,0,0,1,7.92-1.3c3.739.046,1.808-2,.292-2.514-7.9.849-14,5.108-21.568,6.731-12.893,2.765-29.927,1.709-33.39-.518Z" transform="translate(-993.42 -258.281)" fill="#676767" fill-rule="evenodd"/>
      <path id="패스_1617" data-name="패스 1617" d="M1050.023,301.708c.372.464,1.968-1.491,1.589-2.027.193-.126-1.463-1-1.535-1.032-3.38-1.472-10.984-2.154-18.657-1.521-6.292.518-11.477,2.3-17.63,4.137-3.748,1.117-11.552,1.249-7.43,2.023,1.493-.093,3.181-.205,4.733-.457,4.236-.689,8.985-2.852,13.658-3.767,10.566-2.071,23.243.1,25.272,2.643Z" transform="translate(-1001.868 -285.992)" fill="#676767" fill-rule="evenodd"/>
      <path id="패스_1618" data-name="패스 1618" d="M1030.065,328.5a72.331,72.331,0,0,1,12.221.922,74.536,74.536,0,0,1,9.123,2.246c4.081,1.6,2.67-.882,1.184-1.931-7.55-2.2-14.3-2.035-21.189-1.96-2.409.075-3.622.648-1.338.724Z" transform="translate(-1019.108 -308.13)" fill="#676767" fill-rule="evenodd"/>
    </g>
  </g>
  <circle id="타원_28" data-name="타원 28" cx="3.605" cy="3.605" r="3.605" transform="translate(1.669 5.838)" fill="#676767"/>
  <path id="패스_1619" data-name="패스 1619" d="M1032.591,175.06c-1.613,2.284-1.751,2.216-4.335,3.288-.582.242-1.006-2.712-1.075-3.445a54.3,54.3,0,0,0-1.032-7.879c-.218-1.171-.567-4.722-2.086-4.624a13.394,13.394,0,0,0-3.026,1.36c-1.488.714-3.581,1.875-5.234,1.958-4.278.213-7.99-2.343-10.4-5.791a14.176,14.176,0,0,1-2.307-6.059,5.267,5.267,0,0,1-.09-1.19,5.079,5.079,0,0,1,.787-2.711,5.2,5.2,0,0,1,1.475-1.448,34.929,34.929,0,0,1,7.968-3.639c3.089-1.129,3.835-1.441,6.127-2.393a41.192,41.192,0,0,1,4.858-1.76c1.906-.544,4.123-1.687,3.459.211-.381,1.088-2.68,2-3.66,2.485-1.536.756-5.133,2.623-7.05,3.842-3.172,2.016-3.333,2.213-6.5,4.407-.438.3.126,1.5,1.164,3.484a9.008,9.008,0,0,0,2.23,2.981c2.1,1.718,6.492-.09,8.459-.8,2.176-.784,4.676-.9,6.254.944.854,1,1.133,3.823,1.246,4.617a88.973,88.973,0,0,0,1.815,10.132C1031.734,173.483,1032.841,174.706,1032.591,175.06Z" transform="translate(-1000.297 -132.564)" fill="#676767"/>
  <path id="패스_1620" data-name="패스 1620" d="M1034.722,237.188a107.885,107.885,0,0,0,43.46-20.5c1.079-.845-.439-2.344-1.508-1.507a105.561,105.561,0,0,1-42.519,19.949c-1.34.293-.772,2.348.567,2.056Z" transform="translate(-1022.992 -186.297)" fill="#676767"/>
  <path id="패스_1621" data-name="패스 1621" d="M1111.292,113.981q-8.477,3.072-16.723,6.722c-.626.277-.085,1.2.538.921q8.12-3.59,16.468-6.614c.64-.232.364-1.262-.283-1.028Z" transform="translate(-1066.421 -113.947)" fill="#676767"/>
</svg>
