<svg id="그룹_3397" data-name="그룹 3397" xmlns="http://www.w3.org/2000/svg" width="51" height="49" viewBox="0 0 51 49">
  <path id="패스_1365" data-name="패스 1365" d="M3000.793,542.984a3.9,3.9,0,0,1,.864-3.43c1.463-1.487,4.1-1.092,3.919.877a6.253,6.253,0,0,0,.257,2.36,10.477,10.477,0,0,0,3.723-3.119c-2.7-3.8-9.185-2.324-12.021.5a6.54,6.54,0,0,0,3.26,2.815Zm-17.492-19.25c2.617-2.984,6.542-7.211,10.845-6.817,2.133.2,4.494,1.9,6.581,4.053,5.128,5.3,6.473,11.168,8.183,16.521a6.084,6.084,0,0,1,1.824,1.917c.2.327-.21,1.129-1.042,2,.205,2.949-1.135,6.513-5.206,5.229a5.086,5.086,0,0,1-3.311-2.425,10.016,10.016,0,0,1-5.343-3.672.562.562,0,0,1-.015-.691c1.436-2,4.378-3.374,7.348-3.626-.414-.332-1.317-1.282-1.323-1.866a48.64,48.64,0,0,1-10.576,2.928c2.394,3.085,5,6.11,5.6,10.135.445,3.023-.406,5.836-2.871,6.925-3.422,1.512-7.5-1.2-11.149.036a4.282,4.282,0,0,0,1.172-3.2c1.7.1,9.2-.745,6.174-5.083a40.713,40.713,0,0,0-5.351-6.229,4.8,4.8,0,0,0-.556.543c-.645.761.477,10.145-2.8,14.051-4.108,4.9-9.568,7.845-15.95,11.127-1.986,1.33-2.525-2.029-.672-3.787,5.614-3.861,7.769-4.094,11.775-9.305,2.3-2.988.562-10.618.473-13.994-.148-5.719,4.136-7.276,7.986-8.5,4.342-1.379,7.568-2.33,12.131-3.815-.29-1.727-2.584-6.563-5.373-5.184a45.539,45.539,0,0,0-7.636,4.976c-2.2,2.173-2.645-.274-.917-2.244Z" transform="translate(-2963.722 -516.891)" fill="#676767" fill-rule="evenodd"/>
  <path id="패스_1366" data-name="패스 1366" d="M3102.938,539.612a3.757,3.757,0,1,1-3.6,3.934,3.773,3.773,0,0,1,3.6-3.934Z" transform="translate(-3055.906 -532.409)" fill="#676767" fill-rule="evenodd"/>
</svg>
