<svg id="그룹_3421" data-name="그룹 3421" xmlns="http://www.w3.org/2000/svg" width="36" height="57" viewBox="0 0 36 57">
  <circle id="타원_29" data-name="타원 29" cx="4.03" cy="4.03" r="4.03" transform="translate(13.971)" fill="#676767"/>
  <path id="패스_1622" data-name="패스 1622" d="M1574.848,657.871c-.68-1.385-2.758-.17-2.081,1.207.529,1.076,1.266,2.757,1.027,4.008a3.5,3.5,0,0,1-1.118.574c-.407-.162-1.03-1.009-2.488-1.933-2.87-.857-3.409-.78-5.489.875-1.787,1.423-1.2,1.387-2.164,2.162q-2.331-.008-4.667-.039v-.005q-1.868.019-3.735.028c-.965-.772-.223-.9-2.01-2.32-2.08-1.653-2.9-1.8-5.645-.71-1.455.922-2.078,1.766-2.485,1.928a3.543,3.543,0,0,1-1.118-.571c-.239-1.251.5-2.927,1.027-4,.677-1.375-1.4-2.587-2.081-1.2-.882,1.789-1.966,4.528-1.26,6.551.506,1.449,2,2.173,3.471,2.525a15.928,15.928,0,0,0,7.8,2.19,63.561,63.561,0,0,1,.484,14.161,100.16,100.16,0,0,0-3.595,12.575q-.718,3.6-1.226,7.24a52.127,52.127,0,0,0-.657,5.878c.043-1.78-.12.429.064,2.265.089.9,1.728.552,2.635.555a1.652,1.652,0,0,0,1.544-1.534c-.1-4.784,1.741-9.418,3.4-13.833.839-2.228,1.767-6.866,2.9-8.966.312-.579.635-1.152.956-1.725.321.573.644,1.146.956,1.725,1.13,2.1,2.058,6.738,2.9,8.966,1.662,4.414,3.507,9.05,3.4,13.833-.017.763.75,1.211,1.51,1.209.907,0,2.153.67,2.635-.092a8.279,8.279,0,0,0,.1-2.4,50.938,50.938,0,0,0-.623-5.636q-.521-3.758-1.26-7.482c-.893-4.484-2.193-7.09-3.556-11.455h.052a63.629,63.629,0,0,1,.392-15.259,15.9,15.9,0,0,0,7.8-2.2c1.468-.353,2.965-1.079,3.471-2.53C1576.814,662.406,1575.73,659.662,1574.848,657.871Z" transform="translate(-1540.336 -654.872)" fill="#676767"/>
</svg>
