<svg id="그룹_3408" data-name="그룹 3408" xmlns="http://www.w3.org/2000/svg" width="62" height="59" viewBox="0 0 62 59">
  <path id="패스_1382" data-name="패스 1382" d="M477.677,930.083a30.071,30.071,0,0,0-6.886-.227c-2.115.157-3.181,1.145-2.415,1.06a42.457,42.457,0,0,1,10.075.465,9.479,9.479,0,0,1-.774-1.3Zm36.963-1.17c-2.09.66.367.369,2.182,1.374,2.431,1.35,2.015,7.343,5.179,8.238,1.823.517,3.514-1.185,4.621-2.768,1.707-2.43.341-7.055.375-9.858.066-6.358.866-13.408,2.881-17.229.841-1.587-.633-.9-1.515-.386-3.647,2.124-10.134.373-14.705.246-5.987-.167-10.134,3.942-13.09,9.054-1.882,3.237-2.723,6.981-5.538,9.652a13.8,13.8,0,0,1-5.654,3.185c.225.334.441.677.658,1.026a16.636,16.636,0,0,0,2.357-.953c6.437-3.22,7.152-9.888,11.358-14.925,4.105-4.93,7.494-5.606,14.4-4.933a22.667,22.667,0,0,0,10.009-.983c-1.166,3.079-1.624,7.668-1.7,12.272a54.38,54.38,0,0,0,.3,9.687,5.886,5.886,0,0,1-.866,3.881c-1.391,1.685-3.447,3.27-4.871-1.119-1.1-3.375-2.7-6.635-6.378-5.462Z" transform="translate(-468.128 -894.998)" fill="#676767" fill-rule="evenodd"/>
  <path id="패스_1383" data-name="패스 1383" d="M583.735,924.519c.506.154.232-1.311-.324-1.5a6.644,6.644,0,0,0-1.586-.219c-4.11-.367-10.047-.285-14.1,2.075-3.073,1.79-4.551,5.28-5.97,8.472a11.279,11.279,0,0,1-2.524,3.619c-1.719.87.149,1.682,1.054,1.569,4.06-4.429,2.649-10.153,9.117-13.344a19.447,19.447,0,0,1,14.332-.669Z" transform="translate(-528.428 -905.004)" fill="#676767" fill-rule="evenodd"/>
  <path id="패스_1384" data-name="패스 1384" d="M496.83,869.547a3.925,3.925,0,1,0,3.961,3.924,3.938,3.938,0,0,0-3.961-3.924Z" transform="translate(-484.684 -869.547)" fill="#676767" fill-rule="evenodd"/>
  <path id="패스_1385" data-name="패스 1385" d="M496.765,900.612c1.2,4.292,1.694,8.1.764,11.635-1.395,5.3-1.021,8.949,2.151,11.971a28.868,28.868,0,0,1,4.874,5.481c1.387,2.359.349,5.377-3.081,11.865-.017,2.932,4.409,6.222,5.256,3.338,1.063-3.654,1.163-5.776,2.366-9.386,1.619-4.854,1.245-5.685.382-8.27a21.6,21.6,0,0,0-3.122-5.529c-1.42-1.908-2.856-4.085-1.852-8.942,3.238,2.07,5.621,2.475,9.108,2.74,2.284.193,3.82-3.289,2.367-4.082-4.459-.193-7.291-.986-10.736-3.873a24.614,24.614,0,0,0-.5-7.909c-1.287-6.679-9.723-4-7.98.961Z" transform="translate(-487.087 -887.017)" fill="#676767" fill-rule="evenodd"/>
</svg>
