<svg id="그룹_3411" data-name="그룹 3411" xmlns="http://www.w3.org/2000/svg" width="80" height="49" viewBox="0 0 80 49">
  <path id="패스_1419" data-name="패스 1419" d="M2666.191,952.519a27.458,27.458,0,0,0-11.928-.858c-7.753,1.241,3.119,10.793,4.919,12.8,5.171,5.774-3.11,3.841-6.751-.133-2.458-2.684-4.091-4.206-5.752-7.473-1.258-2.475-1.692-6.036,1-8.515,3.915-2.785,7.692-3.042,12.941-2.979-3.641-4.076-6.744-9-7.194-12.2-5.031.527-11.188.891-16.635.014l.62-4.634a141.166,141.166,0,0,0,18.426.774c4.5-.117,7.738-.529,11.918-.628,6.03-.143,13.473,4.3,14.349,12.409.467,4.319-1.409,6.568-2.919,3.79-1.38-8.1-5.763-12.377-12.857-11.937,1.406,6.722,4.079,15.018,9.557,22.051.757.972,5.387,6.568,6.293,7.432,7.014,6.688,1.791,6.794-2.129,4.267C2676.341,964.315,2669.036,956.03,2666.191,952.519Z" transform="translate(-2605.629 -919.229)" fill="#676767" fill-rule="evenodd"/>
  <path id="패스_1420" data-name="패스 1420" d="M2568.757,923.96a3.792,3.792,0,0,1-3.406-3.778c-10.8-.651-16.03-2.66-25.794-6.435-.606-.529-.517-.648.295-.341,10.862,3.783,14.264,5,25.657,5.665a4.108,4.108,0,0,1,4.3-2.928q-.528,3.909-1.055,7.817Z" transform="translate(-2539.163 -908.716)" fill="#676767" fill-rule="evenodd"/>
  <path id="패스_1421" data-name="패스 1421" d="M2683.04,903.6a4.248,4.248,0,0,1,4.725-4.146,3.878,3.878,0,0,1,3.328,3.507,4.025,4.025,0,0,1-3.416,4.792,4.235,4.235,0,0,1-4.637-4.153Zm4.638,4.643a4.419,4.419,0,0,0,4.232-5.167,4.634,4.634,0,0,0-9.24.551,4.577,4.577,0,0,0,5.008,4.616Z" transform="translate(-2637.082 -898.946)" fill="#676767" fill-rule="evenodd"/>
  <path id="패스_1422" data-name="패스 1422" d="M2688.257,911.872c1.733.624,3.812-6.76-.14-6.707-3.262.044-2.619,5.712.14,6.707Z" transform="translate(-2639.313 -903.197)" fill="#676767" fill-rule="evenodd"/>
</svg>
