<svg id="그룹_9377" data-name="그룹 9377" xmlns="http://www.w3.org/2000/svg" width="45.393" height="66.999" viewBox="0 0 45.393 66.999">
  <path id="패스_12377" data-name="패스 12377" d="M973.04,2111.971a4.348,4.348,0,1,0-5.847-1.986A4.368,4.368,0,0,0,973.04,2111.971Z" transform="translate(-936.666 -2103.707)" fill="#676767"/>
  <path id="패스_12378" data-name="패스 12378" d="M917.373,2137.759a28.911,28.911,0,0,0-4.4-3.669c-1.444-.826-2.953-1.452-4.429-2.21-.2-.029-.4-.047-.6-.057-.121.006-.241.021-.361.031-.036-.006-.071-.012-.108-.016-1.7-.208-2.911.819-3.791,2.141a9.45,9.45,0,0,0-2.7,4.448,13.5,13.5,0,0,1-1.071,2.38.384.384,0,0,1-.145.136q-.653-.793-1.371-1.531c-.512-.758-1.033-1.51-1.578-2.245q-1.2-1.622-2.482-3.184c-.226-.275-.447-.556-.671-.832a1.58,1.58,0,0,1-.62-.548,9.52,9.52,0,0,0-3.942-2.907,5.415,5.415,0,0,0-2.944.293c-1.3.631-2.092,2.253-2.716,3.487-1.534,3.034-1.518,6.373-2.021,9.664a21.459,21.459,0,0,1-1.659,5.726,12.912,12.912,0,0,1-1.574,2.855c-.021.028-.035.059-.053.088-1.741.975-.758,4.061,1.377,3.4a13.738,13.738,0,0,0,4.946-2.441,5.039,5.039,0,0,0,1.711-3.486,18.913,18.913,0,0,0,.771-2.056,37.115,37.115,0,0,0,1.534-7.744,51.281,51.281,0,0,1,3.073,4.72c.375,1.089,1.026,2.118,1.364,3.219.136.444.25.894.351,1.346,4.092,9.159,6.629,20.2,7.134,34.084.006.166,1.472.494,1.478.662,1.7,3.8,3.427,6.415,3.342,2.361q.017-.976.037-1.953a1.739,1.739,0,0,0,.463-1.22,199.393,199.393,0,0,0-1.482-26.073,1.979,1.979,0,0,0-.208-.671,13.848,13.848,0,0,1,.508-1.426,90.623,90.623,0,0,0,7.792-13.58c5.992,5.64,6.49,7.99.242,13.024-5.387,4.339-.885,5.079,2.255,3.1.124-.078,1.235.941,1.351.851C925.7,2150.489,923.45,2144.017,917.373,2137.759Z" transform="translate(-877.239 -2120.915)" fill="#676767"/>
</svg>
