<svg id="그룹_3406" data-name="그룹 3406" xmlns="http://www.w3.org/2000/svg" width="52" height="69" viewBox="0 0 52 69">
  <path id="패스_1483" data-name="패스 1483" d="M2315.49,1280.6a3.437,3.437,0,1,1-3.3,3.6,3.452,3.452,0,0,1,3.3-3.6Z" transform="translate(-2298.026 -1265.605)" fill="#676767" fill-rule="evenodd"/>
  <path id="패스_1484" data-name="패스 1484" d="M2375.861,1333.792a37.423,37.423,0,0,0,5.417-15.43l1.887-.19A4.135,4.135,0,0,0,2384,1318a33.842,33.842,0,0,1-4.179,10.859c-.39.7-4.275,8.03-3.958,4.936Z" transform="translate(-2342.617 -1292.016)" fill="#676767" fill-rule="evenodd"/>
  <path id="패스_1485" data-name="패스 1485" d="M2389.764,1229.638c.165.471,1.4,6.7,1.521,7.34a59.346,59.346,0,0,1,.67,10.978l2.432-.03c-.385-6.289-1.026-10.568-3.364-16.407C2390.522,1230.266,2390.022,1229.32,2389.764,1229.638Z" transform="translate(-2352.423 -1229.576)" fill="#676767" fill-rule="evenodd"/>
  <path id="패스_1486" data-name="패스 1486" d="M2344.1,1296.414a.514.514,0,0,1-.007-1.027l24-.334c.273,0,3.552.224,3.56.507s-3.28.517-3.552.52l-24,.335Z" transform="translate(-2319.651 -1275.814)" fill="#676767" fill-rule="evenodd"/>
  <path id="패스_1487" data-name="패스 1487" d="M2275.552,1329.592c2.241-9,2.543-18,3.059-27.184.214-3.8.346-7.652-.8-11.481-4.407-.187-8.151-1.075-10.148-2.389-3.133-2.058-3.545-5.343-1.622-7.583,1.88-2.19,5.226-2.541,7.967-1.3s3.5,3.865-.28,3.335c-3.192-4.489-7.849.153-4.452,2.912,4.009,3.257,22.678,2.272,36.07,0,4.091-.693,2.056,3.394-.641,3.664-5.358.536-10.849,1.2-17.268,1.358.995,6.425-.442,9.294-.25,14.222a70.33,70.33,0,0,0,4.312,22.938c1.341,3.424,1.592,5.5-3.391,4.938a168.185,168.185,0,0,1-5.019-25.275c-.98,8.258-2.086,18.363-3.9,24.773-3.162,1.493-4.761,1.585-3.634-2.93Z" transform="translate(-2264.875 -1264.441)" fill="#676767" fill-rule="evenodd"/>
</svg>
