<svg id="그룹_3428" data-name="그룹 3428" xmlns="http://www.w3.org/2000/svg" width="63" height="62" viewBox="0 0 63 62">
  <path id="패스_1580" data-name="패스 1580" d="M2648.307,1698.346c-7.266-6.815-15.146-2.338-16.914,2.77.443.677,15.112-1.858,25.6,10.062.372.422-.157,5.3-2.9,1.813-4.607-5.875-11.218-8.689-21.06-5.672-11.168,3.423-11.433-8.588-17.455-13.366-1.11-.343-3.146-1.456-2.073-4.035,2.91-7,8.8-20.524,8.479-21.67-.6-2.134,2.42-.738,3.138,2.1.964,3.888-4.118,10.338-5.567,15.047,2.871,1.91,5.718,6.706,8.872,11.041,8.241-9.6,13.032-7.27,22.658-.79C2654.962,1698.247,2652.948,1700.35,2648.307,1698.346Z" transform="translate(-2605.14 -1659.19)" fill="#676767" fill-rule="evenodd"/>
  <path id="패스_1581" data-name="패스 1581" d="M2586.529,1719.141a4.292,4.292,0,1,1,1.785,5.83,4.314,4.314,0,0,1-1.785-5.83Z" transform="translate(-2586.028 -1694.224)" fill="#676767" fill-rule="evenodd"/>
  <path id="패스_1582" data-name="패스 1582" d="M2643.582,1640.63c.121-1.312,2.887.651,2.915,1.62.2,6.843,5.027,13.723,10.894,17.237,7.393,4.427,15.468,5.8,19.135,11.422,2.773,4.25-.781,7.479,2.175,15.975s4.651,7.7,10.308,12.815c1.543,1.4-1.093,2.282-1.022,2.358l.1.126c-.945.305-7.414-6.9-9.241-10.222-6.649-12.1-2.063-13.753-4.66-18.979-2.129-4.285-15.178-9.845-19.74-13.126A26.844,26.844,0,0,1,2643.582,1640.63Z" transform="translate(-2626.493 -1640.192)" fill="#676767" fill-rule="evenodd"/>
  <path id="패스_1583" data-name="패스 1583" d="M2640.49,1712.567c1.07.9,1.792,1.857,2.666,2.636,4.865-.915,7.02-2.033,8.226-6.04,1.327-4.408-1.656-3.984-1.737-3.774a12.538,12.538,0,0,1-2.415,4.445C2646.2,1710.946,2644.237,1711.655,2640.49,1712.567Z" transform="translate(-2624.258 -1686.088)" fill="#676767" fill-rule="evenodd"/>
</svg>
