<svg id="그룹_3404" data-name="그룹 3404" xmlns="http://www.w3.org/2000/svg" width="43" height="51" viewBox="0 0 43 51">
  <path id="패스_1642" data-name="패스 1642" d="M742.3,712.817a0,0,0,0,0,0,0,.8.8,0,0,0-.241-.235l-.343-.221-.6-.408s0,.006-.008.009c.071.051.142.1.213.15-.074-.045-.145-.093-.218-.139a.015.015,0,0,0,.006-.011c-.1-.071-.207-.145-.309-.221-.318-.227-.635-.459-.947-.694a64.091,64.091,0,0,1-9.594-8.834,6.329,6.329,0,0,0-.867-2.573,2.2,2.2,0,0,0-.436-.453,3.888,3.888,0,0,0-.708-.315c-1.65-.062-3.3-.2-4.917-.419-.348.063-.694.111-1.037.17a4.94,4.94,0,0,0-1.1.876c-.748,1.2-.448,2.531-.068,3.877,2.29,4.909,1.307,13.516-1.253,21.106q-2.045,4.77-4.436,9.378-.667,1.275-1.363,2.539a6.92,6.92,0,0,0-.921,1.814,1.547,1.547,0,0,0,.269,1.216,5.544,5.544,0,0,0,3.044-.064h0q.286-.164.579-.314l0,0a40.183,40.183,0,0,0,2.775-4.4c.235-.4.468-.794.692-1.193.005-.006.005-.008.008-.011a39.019,39.019,0,0,0,6.19-14.482c.13-.776.53-1.236,1.29-.672a24.827,24.827,0,0,1,5.793,6.266c1.928,3.516-.755,10.759-2.558,14.2a2.372,2.372,0,0,0-.024.674,1.4,1.4,0,0,0,.133.455,16.114,16.114,0,0,0,2.649.189,1.6,1.6,0,0,0,.35-.287c1.3-1.046,3.31-8.174,3.849-9.7a15.228,15.228,0,0,0,.343-5.467c-.241-3.829-6.691-9.171-8.672-12.411a31.163,31.163,0,0,0,.38-3.452A62.329,62.329,0,0,0,738.493,713q.731.314,1.471.612c.47.193.943.377,1.42.558a.653.653,0,0,0,.9-.453A.713.713,0,0,0,742.3,712.817Z" transform="translate(-713.132 -689.065)" fill="#676767"/>
  <path id="패스_1643" data-name="패스 1643" d="M760.183,667.722a3.388,3.388,0,1,0-1.944,4.357A3.375,3.375,0,0,0,760.183,667.722Z" transform="translate(-744.221 -663.518)" fill="#676767"/>
  <path id="패스_1644" data-name="패스 1644" d="M831.641,755.418s0,.006-.008.009c-.1-.071-.207-.145-.309-.221C831.429,755.279,831.537,755.35,831.641,755.418Z" transform="translate(-803.815 -732.326)" fill="#676767"/>
  <path id="패스_1645" data-name="패스 1645" d="M832.837,756.3c-.074-.045-.145-.093-.218-.139a.015.015,0,0,0,.006-.011C832.7,756.2,832.766,756.252,832.837,756.3Z" transform="translate(-804.808 -733.051)" fill="#676767"/>
  <path id="패스_1646" data-name="패스 1646" d="M816.839,761.192q-.918,1.314-1.842,2.622c-.573.813-1.924.034-1.346-.788s1.145-1.629,1.718-2.446Q816.1,760.894,816.839,761.192Z" transform="translate(-790.157 -736.464)" fill="#676767"/>
  <path id="패스_1647" data-name="패스 1647" d="M831.641,755.418s0,.006-.008.009c-.1-.071-.207-.145-.309-.221C831.429,755.279,831.537,755.35,831.641,755.418Z" transform="translate(-803.815 -732.326)" fill="#676767"/>
  <path id="패스_1648" data-name="패스 1648" d="M839.849,657.9q-6.845,10.224-13.876,20.32l1.235.9c.8.59.023,1.941-.788,1.346l-1.335-.978c-.125.176-.247.351-.369.527-.1-.068-.213-.139-.317-.212-.317-.227-.635-.459-.947-.694.128-.179.252-.36.377-.541l-1.21-.887c-.8-.586-.023-1.938.788-1.343.436.32.873.638,1.309.958Q831.7,667.27,838.5,657.116C839.058,656.285,840.407,657.068,839.849,657.9Z" transform="translate(-796.982 -656.762)" fill="#676767"/>
  <path id="패스_1649" data-name="패스 1649" d="M832.837,756.3c-.074-.045-.145-.093-.218-.139a.015.015,0,0,0,.006-.011C832.7,756.2,832.766,756.252,832.837,756.3Z" transform="translate(-804.808 -733.051)" fill="#676767"/>
</svg>
