<svg xmlns="http://www.w3.org/2000/svg" width="71.715" height="37.526" viewBox="0 0 71.715 37.526">
  <g id="그룹_9370" data-name="그룹 9370" transform="translate(-697.555 -1655.732)">
    <path id="패스_12363" data-name="패스 12363" d="M766.275,1711.982c.393-.148.792-.276,1.185-.424.151-.055.3-.118.45-.179a1.793,1.793,0,0,1,.158-.1c.049-.029.1-.062.144-.094s.107-.117.225-.234c.045-.045.081-.078.112-.1.008-.017.013-.03.022-.05.084-.179.255-.619.291-.667.042-.163.083-.325.131-.486l.025-.079c0-.011,0-.021,0-.032a10.191,10.191,0,0,1-.017-1.248c-.023-.126-.042-.252-.069-.377-.08-.368-.194-.722-.288-1.085-.007-.029-.012-.048-.017-.073s-.035-.06-.057-.1c-.169-.309-.348-.649-.5-.968-.019-.04-.033-.07-.048-.1l-.04-.042c-.331-.361-.638-.745-.981-1.094-.094-.1-.6-.571-.734-.7-.172-.133-.837-.67-.977-.777-1.528-1.169-3.119-2.234-4.664-3.375-1.58-1.168-3.13-2.386-4.739-3.505-.776-.54-1.567-1.057-2.38-1.525q-.4-.232-.813-.448l-.192-.1c-.066-.027-.19-.081-.381-.164s-.377-.141-.567-.209l-.085-.013a116.517,116.517,0,0,0-13.756-.627c-8.9.052-17.79.057-26.685.074a1.327,1.327,0,0,0-.437.07c-.143.025-.288-.031-.414.058-.022.017-.377.127-.4.142-.415.022-.47.241-.688.625a.31.31,0,0,0-.023.039c-.073.042-.331.758-.4.8a24.03,24.03,0,0,0-.975,6.188c-.025.391-.062.783-.1,1.172-.028,1.325-.053,2.649-.087,3.974-.008.292-.014.6-.017.909.232.786.42,1.583.644,2.379.056.2.115.391.182.584.033.05.213.419.238.458.064.092.1.139.109.161l.011.009a3.842,3.842,0,0,1,.336.22,8.291,8.291,0,0,0,3.468,1.3h53.321C765.952,1712.107,766.113,1712.043,766.275,1711.982Z" transform="translate(-7.048 -26.453)" fill="#676767"/>
    <circle id="타원_740" data-name="타원 740" cx="3.837" cy="3.837" r="3.837" transform="translate(703.482 1655.732)" fill="#676767"/>
    <circle id="타원_741" data-name="타원 741" cx="3.837" cy="3.837" r="3.837" transform="translate(714.481 1655.732)" fill="#676767"/>
    <circle id="타원_742" data-name="타원 742" cx="3.837" cy="3.837" r="3.837" transform="translate(725.139 1655.732)" fill="#676767"/>
    <circle id="타원_743" data-name="타원 743" cx="3.837" cy="3.837" r="3.837" transform="translate(735.967 1655.732)" fill="#676767"/>
    <path id="패스_12364" data-name="패스 12364" d="M698.533,1760.143c10.938-.5,21.883-.241,32.823,0,5.431.119,10.862.231,16.293.236q4.133,0,8.266-.085a43.827,43.827,0,0,0,7.774-.506c2.038-.417,4.416-1.473,5.294-3.973.757-2.156-.037-4.629-1.836-5.449-1.224-.558-1.753,1.832-.539,2.385.749.341.742,1.62.417,2.332a4.114,4.114,0,0,1-2.554,1.965c-2.2.765-4.585.661-6.854.728-4.781.141-9.563.153-14.345.1-9.485-.1-18.968-.436-28.453-.491-5.43-.032-10.86.035-16.286.282-1.3.059-1.308,2.533,0,2.473Z" transform="translate(0 -67.12)" fill="#676767"/>
  </g>
</svg>
