<svg id="그룹_3422" data-name="그룹 3422" xmlns="http://www.w3.org/2000/svg" width="47" height="55" viewBox="0 0 47 55">
  <path id="패스_1677" data-name="패스 1677" d="M1928.945,744.582q-1.21-.767-2.436-1.39a31.047,31.047,0,0,0-10.916-3.173,3.916,3.916,0,0,1-.566-.08c-2.061-.437-1.33-2.33-.235-2.222.218.021.434.049.647.081a26.578,26.578,0,0,1,9.527,3.546c.174.1.854.463,1.641.918C1928.389,743.288,1930.714,744.77,1928.945,744.582Z" transform="translate(-1903.594 -713.556)" fill="#676767" fill-rule="evenodd"/>
  <g id="그룹_488" data-name="그룹 488">
    <path id="패스_1678" data-name="패스 1678" d="M1912.492,663.707a1.063,1.063,0,0,0-.152.018c.033-.027.072-.058.11-.084A.732.732,0,0,0,1912.492,663.707Z" transform="translate(-1902.592 -661.767)" fill="#676767"/>
    <path id="패스_1679" data-name="패스 1679" d="M1926.063,682.836c-3.623-2.441-7.752-3.99-11.734-5.751-3.85-2.058-7.693-4.138-11.566-6.152-3.263-1.694-7.208-3.041-10.069-5.4-.849-.7-2.252-2.092-1.338-3.338a3.227,3.227,0,0,1,1.446-.831c2.231-.421,4.5-.592,6.751-.818,2.011-.2,1.523-3.325-.489-3.122a56.947,56.947,0,0,0-8.266,1.143c-1.929.487-4.41,1.018-5.38,2.975-1.5,3.027.943,5.492,3.728,7.244,1.188.922,2.5,1.727,3.68,2.613.251.19.505.378.757.564-.532,3-1.24,5.961-1.843,8.943a27.167,27.167,0,0,1,9.682,3.623l.155.087c.462.253.88.489,1.258.706a13.821,13.821,0,0,1,1.779-4.044,12.974,12.974,0,0,1,2.353-2.363c5.78,2.443,11.713,4.614,17.576,6.654C1926.149,686.132,1927.609,683.879,1926.063,682.836Zm-36.595-23.462c.034-.027.072-.057.109-.084.013.021.026.045.042.066A1.04,1.04,0,0,0,1889.469,659.373Zm13.21,26.747c-.781-.455-1.456-.821-1.629-.918a26.283,26.283,0,0,0-9.461-3.544c-.07.347-.136.7-.2,1.05s-.137.713-.21,1.091a3.854,3.854,0,0,0,.562.079,30.681,30.681,0,0,1,10.84,3.172A8.557,8.557,0,0,1,1902.679,686.121ZM1916.7,710.1q-.559-1.012-1.2-1.965a5.07,5.07,0,0,0-.622-.908c-2.255-3.161-4.991-5.956-7.343-9.066-1.952-2.579-4.109-5.586-4.775-8.809a9.338,9.338,0,0,1-.183-1.44,29.712,29.712,0,0,0-10.625-3.237l-.284-.033c-.053,0-.129-.011-.2-.019a3.84,3.84,0,0,1-.421-.071v.011c-4.6.487-8.913,2.265-10.662,7.127-1.17,3.254-.646,6.58.577,9.716,1.183,3.043,1.608,5.683,4.082,8.016,1.5,1.412,4.215-.759,3.167-2.54-2.026-3.459-4.249-8.471-1.334-12.117,1.792-2.242,4.55-2.715,7.31-2.521a8.93,8.93,0,0,1,.9.742c6.493,6.258,12.757,12.756,19.25,19.022a1.244,1.244,0,0,0,1.883-.048A1.31,1.31,0,0,0,1916.7,710.1Z" transform="translate(-1879.72 -657.415)" fill="#676767"/>
    <circle id="타원_34" data-name="타원 34" cx="4.247" cy="4.247" r="4.247" transform="translate(21.372 3.693)" fill="#676767"/>
  </g>
</svg>
