<svg id="그룹_3392" data-name="그룹 3392" xmlns="http://www.w3.org/2000/svg" width="61.052" height="60" viewBox="0 0 61.052 60">
  <path id="패스_1680" data-name="패스 1680" d="M1196.267,1157.788c.042,1.617-.61,3.187-2.444,5-3.882,3.835-9.409,2.265-11.959,9.221l.7.356c1.907-6.447,7.539-5.057,11.647-9.115,2.212-2.185,2.938-4,2.844-5.862a6.408,6.408,0,0,0-5.272-6.1c-3.831-.519-8.083,2.883-8.973,6.84s2.59,7.343-2.879,13.211l.688.317h0a12.193,12.193,0,0,0,2.917-4.761c1.275-4.061-.989-6.239.118-9.161,1.422-3.719,4.992-6.343,8.176-5.752C1194.811,1152.537,1196.2,1155.172,1196.267,1157.788Z" transform="translate(-1167.116 -1151.236)" fill="#676767" fill-rule="evenodd"/>
  <path id="패스_1681" data-name="패스 1681" d="M1199.5,1162.712c2.534-4.026,8.474-4.151,8.81.255a7.222,7.222,0,0,1-1.147,4.253c-1.525,2.479-4.526,4.846-6.758,3.622a4.177,4.177,0,0,1-2.239-2.953,6.974,6.974,0,0,1,1.334-5.178Zm.876-.193c-1.892,2.46-3.2,5.8.346,7.746,1.839,1.008,4.424-1.11,5.84-3.356C1209.827,1161.724,1204.065,1157.376,1200.373,1162.518Z" transform="translate(-1180.689 -1157.558)" fill="#676767" fill-rule="evenodd"/>
  <path id="패스_1682" data-name="패스 1682" d="M1251.329,1191.143a3.9,3.9,0,1,0,4.512,3.2,3.914,3.914,0,0,0-4.512-3.2Z" transform="translate(-1218.129 -1181.098)" fill="#676767" fill-rule="evenodd"/>
  <path id="패스_1683" data-name="패스 1683" d="M1131.869,1195.519h0c1.69.312,2.131,2.336.2,2.681-2.332.417-1.267-2.877-.2-2.681Zm-2.948,2.493a2.667,2.667,0,1,0,2.2-3.049h0A2.659,2.659,0,0,0,1128.921,1198.012Z" transform="translate(-1128.885 -1183.973)" fill="#676767" fill-rule="evenodd"/>
  <path id="패스_1684" data-name="패스 1684" d="M1218.871,1229.677a34.732,34.732,0,0,0-9.993-4.706,23.739,23.739,0,0,0-9.056-1.241,5.071,5.071,0,0,0-3.771,1.071c-9.824,5.025-17.162,2.9-21.878.811-2.4-1.063-3.729,2.111-.506,5.156,6.229,2.748,13.416,1.753,21.041-.944a20.344,20.344,0,0,1,4.962,7.371,4.063,4.063,0,0,1-2.078,5.508c-7.365,3.913-10.245,10.5-13.461,16.273-3.188,5.934.335,7.11,3.452,6.388.637-.147.247-1.635.747-2.31,1.31-6.439,8.089-14.729,13.122-16.438-1.055,4.624-3.912,11.723.874,14.47a43.412,43.412,0,0,0,10.191,4.31c2.474-.017,7.415-2.906,3.123-3.727a29.2,29.2,0,0,1-9.167-3.442c-3.091-1.761-2.121-7.4.2-10.47,4.527-5.984,4.393-7.372.881-14.691a36.548,36.548,0,0,0-3.443-5.728,28.478,28.478,0,0,1,5,1.3c.927.323,1.847.668,2.751,1.05a11.224,11.224,0,0,1,3.925,2.922c.925.993,1.883,2.454,3.23,2.885a2.274,2.274,0,0,0,3.031-2.019C1222.06,1231.81,1220.04,1230.536,1218.871,1229.677Z" transform="translate(-1160.994 -1205.554)" fill="#676767"/>
</svg>
