<svg id="그룹_3424" data-name="그룹 3424" xmlns="http://www.w3.org/2000/svg" width="52" height="59" viewBox="0 0 52 59">
  <path id="패스_1639" data-name="패스 1639" d="M295.267,637.349a33.663,33.663,0,0,1-3.595,4.117,5,5,0,1,0-3.786,9.12,60.888,60.888,0,0,1,1.5,16.828c-.126,2.525-4.073,2.53-3.95,0a57.861,57.861,0,0,0-1.892-17.871,24.275,24.275,0,0,0-20.193-9.533,10.619,10.619,0,0,0-1.6,1.123,2.443,2.443,0,0,0-.607.75.941.941,0,0,1-.05.351c-.862,2.668,5.126,2.726,6.469,3.661,1.892,1.324.169,3.581-1.081,4.631a.994.994,0,0,1-1.056.165,1.912,1.912,0,0,1-.368-.04c-4.177-.817-9.386-5.246-7.724-9.97.783-2.214,2.983-3.458,4.99-4.408a34.363,34.363,0,0,1,7.92-2.635,6.934,6.934,0,0,0,2.2-1.748l0,0a.569.569,0,0,0,.068-.6,34.01,34.01,0,0,0-5.633-8.888,18.932,18.932,0,0,0-3.4-2.893q-1.7-1.049-3.469-2a25.26,25.26,0,0,1-3.64-1.9c-1.564-1.226-1.531-2.292-.7-3.8a.964.964,0,0,1,.2-.258,1.877,1.877,0,0,1,2.748-.943,63.315,63.315,0,0,1,20.823,20.078,50.517,50.517,0,0,0,9.044,8.616l.418-.454c3-3.215,6.315-7.518,2.844-11.728-1.6-1.943,1.182-4.739,2.794-2.781A10.719,10.719,0,0,1,295.267,637.349Z" transform="translate(-245.129 -610.31)" fill="#676767"/>
  <path id="패스_1640" data-name="패스 1640" d="M382.318,740.388a3.791,3.791,0,0,1-3.79,3.79,3.741,3.741,0,0,1-1.413-.274,3.79,3.79,0,1,1,5.2-3.516Z" transform="translate(-334.704 -704.985)" fill="#676767"/>
  <path id="패스_1641" data-name="패스 1641" d="M221.591,650.173a.207.207,0,0,1,0-.414c.715.009,1.428.043,2.139.1a4.312,4.312,0,0,0,.33-.6,13.293,13.293,0,0,0-3.1-.114c-.266.026-.263-.388,0-.414a13.708,13.708,0,0,1,3.248.132,4.307,4.307,0,0,0,.195-.914c-.347-.06-.7-.1-1.048-.138a10.2,10.2,0,0,0-3.117.092c-.261.054-.371-.346-.11-.4a10.444,10.444,0,0,1,3.13-.116c.389.039.782.084,1.169.149,0-.007,0-.013,0-.02a4.318,4.318,0,0,0-1.611-3.366,20.284,20.284,0,0,0,.873,2.336c.1.247-.3.353-.4.11a16.179,16.179,0,0,1-.972-2.8,4.318,4.318,0,0,0-.9-.408,7.453,7.453,0,0,0,.774,3.193c.124.236-.234.445-.358.209a7.963,7.963,0,0,1-.829-3.512,4.34,4.34,0,0,0-.91-.1c-.071,0-.14.006-.211.009a9.2,9.2,0,0,0,.593,2.962c.1.248-.3.354-.4.11a9.437,9.437,0,0,1-.607-3.033,4.334,4.334,0,0,0-3.537,3.086,13.138,13.138,0,0,1,2.5-1.986c.228-.14.436.218.209.358a12.408,12.408,0,0,0-2.864,2.4c-.013.139-.021.28-.021.422a4.328,4.328,0,0,0,.066.728,9.938,9.938,0,0,1,2.684-2.509c.228-.14.436.218.209.358a9.746,9.746,0,0,0-2.772,2.683,4.316,4.316,0,0,0,.415.943c.135-.229.273-.457.418-.679a8.359,8.359,0,0,1,2.21-2.382c.22-.152.427.207.209.358a7.841,7.841,0,0,0-2.061,2.233c-.181.279-.35.567-.516.855a4.371,4.371,0,0,0,.743.77l-.037-.056c-.147-.224.212-.431.358-.209.181.277.373.558.58.831a4.272,4.272,0,0,0,1.041.338,7.726,7.726,0,0,1-1.351-1.846c-.126-.235.232-.444.358-.209a6.861,6.861,0,0,0,1.692,2.124l.087,0a4.323,4.323,0,0,0,1.346-.216,8.524,8.524,0,0,1-2.671-3.252c-.11-.241.247-.451.358-.209a8.264,8.264,0,0,0,2.767,3.282,4.338,4.338,0,0,0,1.548-1.2C222.828,650.21,222.21,650.181,221.591,650.173Z" transform="translate(-215.765 -634.838)" fill="#676767"/>
</svg>
