<svg xmlns="http://www.w3.org/2000/svg" width="62.189" height="64.332" viewBox="0 0 62.189 64.332">
  <g id="그룹_9375" data-name="그룹 9375" transform="translate(-1579.77 -1568.331)">
    <path id="패스_12368" data-name="패스 12368" d="M1589.1,1660.572a4.668,4.668,0,1,1-4.9-4.424A4.668,4.668,0,0,1,1589.1,1660.572Z" transform="translate(0 -60.953)" fill="#676767"/>
    <path id="패스_12369" data-name="패스 12369" d="M1638.32,1725.824a4.668,4.668,0,1,1-4.423-4.9A4.667,4.667,0,0,1,1638.32,1725.824Z" transform="translate(-34.165 -105.917)" fill="#676767"/>
    <path id="패스_12370" data-name="패스 12370" d="M1605.658,1618.286c-3.375,5.355-1.67,10.732-4.292,18.16s-4.3,10.782-1.731,11.742,9.61-17.09,13.46-22.148,8.821-7.082,15.3-7.319c7.281-.266,10.9-.8,17.465-6.63,5.708-5.071,1.707-7.089-2.1-4.464s-11.514,6.036-19.127,3.07S1611.092,1609.665,1605.658,1618.286Z" transform="translate(-12.904 -26.477)" fill="#676767"/>
    <path id="패스_12371" data-name="패스 12371" d="M1670.553,1582.558c2.79,1.283,5.127,2.163,7.3,2.094,0,0,.713-8.013-1.531-11.738-2.18-3.618-5.489-5.378-7.276-4.239s1.2,3.712,2.243,7.012S1670.553,1582.558,1670.553,1582.558Z" transform="translate(-61.586)" fill="#676767"/>
    <path id="패스_12372" data-name="패스 12372" d="M1657.245,1672.688c.284,8.613.507,7.2,1.272,15.832.877,9.9,1.754,10.779,11.951,10.588s10.908-4.543,13.049-8.429c3.414-6.2,5.112,1.687,6.813,6.133s3.483,5.67,4.888,5.239-.113-12.54-3.951-18.647-10.865.17-15.024,4.017-11.711,4.8-12.123,1.386c-.323-2.676-.954-12.5-1.9-17.033S1657.059,1667.045,1657.245,1672.688Z" transform="translate(-53.775 -69.469)" fill="#676767"/>
    <path id="패스_12373" data-name="패스 12373" d="M1695.668,1674.707l4.417-3.987s-5.14-5.23-5.9-7.491,2.663-11.895.693-13.547-3.712.447-4.949,5.788-2.393,9.091.762,12.965S1695.668,1674.707,1695.668,1674.707Z" transform="translate(-75.581 -56.086)" fill="#676767"/>
  </g>
</svg>
