<svg id="그룹_3402" data-name="그룹 3402" xmlns="http://www.w3.org/2000/svg" width="66" height="52" viewBox="0 0 66 52">
  <path id="패스_1666" data-name="패스 1666" d="M2328.589,693.878a3.694,3.694,0,1,0-3.991,3.337A3.679,3.679,0,0,0,2328.589,693.878Z" transform="translate(-2292.879 -688.965)" fill="#676767"/>
  <path id="패스_1667" data-name="패스 1667" d="M2290.364,686.72a3.736,3.736,0,1,1-4.07,3.4,3.752,3.752,0,0,1,4.07-3.4Z" transform="translate(-2268.22 -686.706)" fill="#676767" fill-rule="evenodd"/>
  <path id="패스_1668" data-name="패스 1668" d="M2307.362,851.541c.768-.107,1.5-.971.737-.862-11.421,1.619-27.124,2.337-36.585-.061-.752-.191.056,1.838.82,1.981,10.941,2.007,24.039.819,35.028-1.058Z" transform="translate(-2257.53 -802.826)" fill="#676767" fill-rule="evenodd"/>
  <path id="패스_1669" data-name="패스 1669" d="M2356.6,802.537a8.324,8.324,0,0,1-4.753.6c-3.255-.817-8.574-6.752-10.716-9.562a39.47,39.47,0,0,1-5.087-8.336c-3.111-1.5-13.959-3.781-11.754,2.369a27,27,0,0,0,4.164,6.96c3.377,4.486.8,5.064-4.179,2.279-3.347-3.236-5.789-6.842-5.891-11.089-.188-7.756,9.443-8.225,15.742-8.057a22.9,22.9,0,0,1,8.527,4.67c.811,6.392,6.077,11.412,10.725,15.425C2355.473,799.6,2357.331,801.565,2356.6,802.537Z" transform="translate(-2290.765 -751.264)" fill="#676767"/>
  <path id="패스_1670" data-name="패스 1670" d="M2310.95,733.127a27.962,27.962,0,0,0-4.617-1.914l-.141-.045a26.568,26.568,0,0,0-3.563-1.021c-1.188-3.6-3.072-6.326-5.889-7.868-.316-.263-.636-.521-.961-.768-.108-.112-.216-.225-.324-.334-2.114,1.1-4.109,2.421-6.213,3.564-.771.422-1.559.815-2.371,1.164-.693.3-1.395.582-2.105.846s-1.443.519-2.178.753q-2.183.7-4.426,1.18-1.354.3-2.721.514a1.83,1.83,0,0,1-.676-3.6c.168-.039.332-.078.5-.121,1.319-.322,2.636-.694,3.931-1.129.573-.188,1.141-.394,1.7-.61a30.668,30.668,0,0,0,3.889-1.812,23.088,23.088,0,0,0,4.969-3.655c1.658-1.621,2.78-3.91,5.049-4.789a7.139,7.139,0,0,1,6.908,1.374,21.2,21.2,0,0,1,5.018,5.079A23.951,23.951,0,0,1,2310.95,733.127Z" transform="translate(-2259.133 -705.358)" fill="#676767"/>
  <path id="패스_1671" data-name="패스 1671" d="M2229.774,726.157c-1.12-2.787-.8-5.718.654-8.755a29.013,29.013,0,0,1,10.949-10.085,3.941,3.941,0,0,1,4.622.313,4.7,4.7,0,0,1,1.145,1.718q1.1,2.045,2.27,4.055a29.48,29.48,0,0,0,3.506,3.563,30.83,30.83,0,0,1-3.923,1.781c-.025-.019-.053-.041-.078-.063-.863-.714-1.708-1.449-2.541-2.2a9.776,9.776,0,0,0,1.148,2.782q-1.827.605-3.91,1.112a26.329,26.329,0,0,1-1.969-4.376,10.93,10.93,0,0,0-1.827,1.8,5.852,5.852,0,0,0-1.65,4.185c-.621.2-1.514.548-2.826,1.117l-.135.059A24.745,24.745,0,0,0,2229.774,726.157Z" transform="translate(-2227.862 -700.853)" fill="#676767"/>
  <path id="패스_1672" data-name="패스 1672" d="M2250.937,787.678c-.7,3.722-4.982,2.7-4.563-1.832.2-3.421.92-6.738-1.782-10.74a9.372,9.372,0,0,0-8.971-3.171c.66,3.971,2.083,8.418.21,12.244a24.24,24.24,0,0,1-8.631,8.868c-2.292,1.182-2.751-3.692-1.986-5,3.014-3.089,8.027-5.217,6.407-10.961a25.9,25.9,0,0,0-3.351-7.385,23.076,23.076,0,0,1,7.819-5.078,4.66,4.66,0,0,0,1.334.827,29.781,29.781,0,0,1,8.858,4.508,10.69,10.69,0,0,1,4.391,6.126C2251.684,779.638,2251.245,784.053,2250.937,787.678Z" transform="translate(-2224.872 -742.032)" fill="#676767"/>
  <path id="패스_1673" data-name="패스 1673" d="M2323.516,758.112c-2.4,1.29-5,.606-7.229-.721-.66-.39-1.3-.811-1.942-1.249q.864-.332,1.71-.7a29.931,29.931,0,0,0,2.857-1.438c1.452.611,2.968,1.1,4.491,1.582A1.388,1.388,0,0,1,2323.516,758.112Z" transform="translate(-2288.027 -734.388)" fill="#676767"/>
  <path id="패스_1674" data-name="패스 1674" d="M2300.082,768.015a1.073,1.073,0,0,1-1,.3,18.033,18.033,0,0,1-7.048-3.237c1.531-.35,3.034-.776,4.51-1.267.128.064.256.132.384.2a18.948,18.948,0,0,0,3.048,1.526A1.345,1.345,0,0,1,2300.082,768.015Z" transform="translate(-2272.28 -741.331)" fill="#676767"/>
  <path id="패스_1675" data-name="패스 1675" d="M2237.205,760.639c-.262.094-.52.192-.772.291a23.661,23.661,0,0,0-7.729,5.049c-.232.22-.451.442-.667.667-1.416,1.584-2.465.084-1.832-.579a14.529,14.529,0,0,1,1.666-1.506,23.655,23.655,0,0,1,5.415-3c.252-.105,1.742-.765,2.869-1.147C2237.139,760.083,2237.845,759.973,2237.205,760.639Z" transform="translate(-2225.681 -738.747)" fill="#676767" fill-rule="evenodd"/>
  <path id="패스_1676" data-name="패스 1676" d="M2379.963,779.146c-.276-.244-.559-.488-.855-.727a23.659,23.659,0,0,0-7.853-4.246c-.3-.1-.608-.188-.918-.272-.623-.55-.1-.562.739-.377,1.166.253,2.96.882,3.242.976a26.008,26.008,0,0,1,4.809,2.043,15.241,15.241,0,0,1,2.615,1.877C2382.424,779.032,2381.5,780.611,2379.963,779.146Z" transform="translate(-2327.348 -748.146)" fill="#676767" fill-rule="evenodd"/>
</svg>
