<svg id="그룹_3391" data-name="그룹 3391" xmlns="http://www.w3.org/2000/svg" width="54" height="66" viewBox="0 0 54 66">
  <path id="패스_1321" data-name="패스 1321" d="M536.054,568.689c-2.419-6.337-10.721-13.639-16.134-14.532,1.854,4.532,5.96,11.281,1.548,14.885a44.813,44.813,0,0,1-9.654,6.106c-2.522.4-8.042-1.711-3.809-3.27a30.141,30.141,0,0,0,8.757-5.05c2.851-2.315.914-7.891-1.972-10.629-5.619-5.332-5.716-6.769-3.372-14.814a34.851,34.851,0,0,1,3.961-8.878c1.664-2.394,3.84-2.663,6.366-1.476,10.853,3.462,17.967.058,22.42-2.86,2.269-1.487,4.154,1.522,1.384,5.166-5.881,3.848-13.369,4.045-21.589,2.584a21,21,0,0,0-3.811,8.344,4.194,4.194,0,0,0,3.045,5.259c8.16,2.744,12.2,8.973,16.451,14.307,4.247,5.507.857,7.3-2.44,7.088C536.53,570.873,536.677,569.292,536.054,568.689Z" transform="translate(-492.929 -509.197)" fill="#676767" fill-rule="evenodd"/>
  <path id="패스_1322" data-name="패스 1322" d="M564.438,477.891c.229,1.654,1.158,3.143,3.331,4.68,4.6,3.252,9.964.722,13.734,7.376l-.648.48c-3.029-6.245-8.531-3.88-13.4-7.322-2.621-1.854-3.667-3.583-3.884-5.491a6.614,6.614,0,0,1,4.342-7.1c3.814-1.174,8.717,1.574,10.291,5.455s-1.4,7.915,5.158,12.97l-.647.439h0a12.6,12.6,0,0,1-3.773-4.358c-1.982-3.922-.044-6.521-1.664-9.311-2.075-3.548-6.153-5.62-9.3-4.481C565.036,472.3,564.067,475.216,564.438,477.891Z" transform="translate(-531.759 -470.242)" fill="#676767" fill-rule="evenodd"/>
  <path id="패스_1323" data-name="패스 1323" d="M579.549,479.4a7.2,7.2,0,0,1,2.231,5.049A4.312,4.312,0,0,1,580,487.83c-2.068,1.622-5.523-.283-7.494-2.551a7.453,7.453,0,0,1-1.884-4.138c-.4-4.545,5.67-5.418,8.93-1.744Zm-6.485,5.463c1.82,2.049,4.81,3.771,6.514,2.435,3.284-2.576,1.389-5.761-.953-7.948C574,474.731,568.862,480.13,573.064,484.86Z" transform="translate(-536.567 -474.914)" fill="#676767" fill-rule="evenodd"/>
  <path id="패스_1324" data-name="패스 1324" d="M546.687,507.476a4.023,4.023,0,1,1-4.056,4.023,4.04,4.04,0,0,1,4.056-4.023Z" transform="translate(-517.533 -495.535)" fill="#676767" fill-rule="evenodd"/>
  <path id="패스_1325" data-name="패스 1325" d="M466.16,536.657c1.048-.378,2.689,2.8.243,2.765-2.02-.027-1.912-2.163-.243-2.765Zm.669-.693h0a2.735,2.735,0,1,0,2.753,2.735A2.745,2.745,0,0,0,466.829,535.964Z" transform="translate(-464.076 -514.891)" fill="#676767" fill-rule="evenodd"/>
</svg>
