<svg id="그룹_3405" data-name="그룹 3405" xmlns="http://www.w3.org/2000/svg" width="52" height="70" viewBox="0 0 52 70">
  <path id="패스_1483" data-name="패스 1483" d="M2315.544,1280.6a3.492,3.492,0,1,1-3.354,3.656,3.507,3.507,0,0,1,3.354-3.656Z" transform="translate(-2298.062 -1265.39)" fill="#676767" fill-rule="evenodd"/>
  <path id="패스_1484" data-name="패스 1484" d="M2375.861,1334.044a38.018,38.018,0,0,0,5.5-15.676l1.917-.193a4.2,4.2,0,0,0,.846-.177,34.373,34.373,0,0,1-4.245,11.032c-.4.713-4.343,8.158-4.021,5.014Z" transform="translate(-2342.716 -1291.652)" fill="#676767" fill-rule="evenodd"/>
  <path id="패스_1485" data-name="패스 1485" d="M2389.764,1229.639c.168.479,1.42,6.8,1.546,7.457a60.314,60.314,0,0,1,.681,11.153l2.472-.03c-.392-6.389-1.043-10.737-3.418-16.669C2390.534,1230.277,2390.027,1229.317,2389.764,1229.639Z" transform="translate(-2352.481 -1229.576)" fill="#676767" fill-rule="evenodd"/>
  <path id="패스_1486" data-name="패스 1486" d="M2344.109,1296.436a.522.522,0,0,1-.007-1.043l24.38-.34c.277,0,3.609.227,3.617.515s-3.332.525-3.609.528l-24.38.34Z" transform="translate(-2320.098 -1275.535)" fill="#676767" fill-rule="evenodd"/>
  <path id="패스_1588" data-name="패스 1588" d="M2343.7,1296.436c-.054,0-.1-.227-.1-.515s.042-.524.1-.528l4.779-.34c.054,0,.708.227.709.515s-.653.525-.708.528l-4.779.34Z" transform="translate(-2306.761 -1289.666)" fill="#676767" fill-rule="evenodd"/>
  <path id="패스_1589" data-name="패스 1589" d="M.1,1.383c-.054,0-.1-.227-.1-.515S.043.343.1.34L4.877,0c.054,0,.707.227.709.515s-.653.525-.707.528L.1,1.383Z" transform="translate(33.532 37.045) rotate(20)" fill="#676767" fill-rule="evenodd"/>
  <path id="패스_1487" data-name="패스 1487" d="M2275.722,1330.4c2.277-9.147,2.583-18.284,3.107-27.618.217-3.864.352-7.774-.816-11.665-4.477-.19-8.281-1.092-10.31-2.427-3.182-2.09-3.6-5.428-1.648-7.7,1.91-2.225,5.309-2.581,8.095-1.318,2.771,1.252,3.557,3.927-.285,3.388-3.242-4.56-7.974.156-4.523,2.958,4.073,3.309,23.04,2.308,36.645,0,4.156-.7,2.089,3.448-.651,3.722-5.444.545-11.022,1.215-17.543,1.379,1.01,6.527-.449,9.442-.255,14.448a71.457,71.457,0,0,0,4.38,23.3c1.363,3.479,1.617,5.584-3.445,5.017a170.923,170.923,0,0,1-5.1-25.678c-1,8.39-2.119,18.656-3.96,25.168-3.213,1.516-4.837,1.61-3.692-2.976Z" transform="translate(-2264.875 -1264.31)" fill="#676767" fill-rule="evenodd"/>
</svg>
