<svg id="그룹_3393" data-name="그룹 3393" xmlns="http://www.w3.org/2000/svg" width="53" height="57" viewBox="0 0 53 57">
  <path id="패스_1261" data-name="패스 1261" d="M879.009,128.515c-2.485,3.132-9.9,7.869-10.656,11.851-.57,2.989,1.466,4.958,3.609,5.944,3.231,1.486,7.716.7,9.925.546a5.675,5.675,0,0,1-1.4-3.069c-3.928,1.177-10.3.073-7.139-4.317,1.417-1.967,4.127-3.752,6.257-4.964.863-.491,1.219.045,1.25.876.077,2.119-.242,8.326,2.364,11.5,3.814,4.65,9.87,7.057,15.162,10.279a1.8,1.8,0,0,0,2.052-2.956c-5.339-3.563-8.371-4.5-12.37-9.457-2.947-3.652-2.559-21.361.837-25.159.9-1.007,6.259-1.034,10.763-2.223,4.206-1.109,7.582-5.59,7.112-9.672-.588-5.115-3.66-6.981-2.9-.865.619,5-5.267,7.16-8.91,6.585-11.9-1.882-17.121,1.22-15.952,15.1Z" transform="translate(-853.817 -100.484)" fill="#676767" fill-rule="evenodd"/>
  <path id="패스_1262" data-name="패스 1262" d="M911.7,106.651a3.7,3.7,0,1,0,3.366,4.027,3.713,3.713,0,0,0-3.366-4.027Z" transform="translate(-880.817 -102.995)" fill="#676767" fill-rule="evenodd"/>
  <path id="패스_1263" data-name="패스 1263" d="M953,96.266a3.7,3.7,0,1,0,3.366,4.027A3.712,3.712,0,0,0,953,96.266Zm.45-1.285h0a4.8,4.8,0,1,1-5.263,4.332A4.82,4.82,0,0,1,953.448,94.98Z" transform="translate(-908.812 -94.959)" fill="#676767" fill-rule="evenodd"/>
  <path id="패스_1264" data-name="패스 1264" d="M857.42,135.936a14.653,14.653,0,0,1-.227-4.9c.611-4.9,3.286-6.207,2.695-7.314-1.455,1.665-2.807,3.115-3.252,5.4a17.181,17.181,0,0,0,.785,6.813Z" transform="translate(-845.565 -114.655)" fill="#676767" fill-rule="evenodd"/>
  <path id="패스_1265" data-name="패스 1265" d="M826.757,137.984a14.661,14.661,0,0,0,.228-4.9c-.611-4.9-3.287-6.206-2.695-7.314,1.454,1.665,2.807,3.115,3.252,5.4a17.178,17.178,0,0,1-.785,6.812Z" transform="translate(-823.259 -116.057)" fill="#676767" fill-rule="evenodd"/>
  <path id="패스_1266" data-name="패스 1266" d="M824.554,104.022c-1.574.684-1.726,2.469-.235,3.126,2.084.921,8,1.7,10.211-.3,1.464-1.021,1.039-1.829-.158-2.413a15.375,15.375,0,0,0-4.812-1.088,10.323,10.323,0,0,0-5.007.67Zm-3.314,1.817c.7-3.02,7.363-3.319,9.856-3.037a13.541,13.541,0,0,1,3.893.878c1.418.774,2.042,1.909,1.166,3.19-1.871,2.741-6.907,3.077-10.44,2.555C823.945,109.164,820.662,108.325,821.24,105.839Z" transform="translate(-821.172 -100.299)" fill="#676767" fill-rule="evenodd"/>
</svg>
