<svg id="그룹_3394" data-name="그룹 3394" xmlns="http://www.w3.org/2000/svg" width="34" height="63" viewBox="0 0 34 63">
  <path id="패스_1490" data-name="패스 1490" d="M2648.159,1281.353c6.969,9.5,3.825,25.841-8.659,29.044-2.581,2.764-2.667,4.97.618,4.272,10.59-2.254,15.565-10.418,16.308-21.173,1.846,7.351.133,15.536-4.833,23.109,2.088,3.435,4.771,3.169,5.921,0,4.943-13.6,6.249-27.7-.172-41.454,5.029-4.638,8.6-9.549,9.965-14.952.735-2.918-1.087-3.4-2.628-2.645-2.37,11.737-11.467,18.466-22.73,22.855-7.344,2.861-4.341-5.763-2.581-7.946,2.824-3.523.2-4.262-2.886-2.7-3.7,4.895-3.746,10.466-1.439,13.063,3.167,3.558,9.276.708,13.117-1.479Z" transform="translate(-2633.475 -1256.083)" fill="#676767" fill-rule="evenodd"/>
  <path id="패스_1491" data-name="패스 1491" d="M2668.2,1287.369a3.907,3.907,0,1,1-3.94,3.906,3.926,3.926,0,0,1,3.94-3.906Z" transform="translate(-2654.646 -1276.925)" fill="#676767" fill-rule="evenodd"/>
  <path id="패스_1492" data-name="패스 1492" d="M2697.194,1254.481c1.479-.534,2.616,3.275.241,3.291-2.849.02-2.592-2.44-.241-3.291Zm.856-.963h0a3.862,3.862,0,1,0,3.885,3.863A3.879,3.879,0,0,0,2698.051,1253.518Z" transform="translate(-2675.208 -1253.518)" fill="#676767" fill-rule="evenodd"/>
</svg>
