<svg id="그룹_3425" data-name="그룹 3425" xmlns="http://www.w3.org/2000/svg" width="73" height="56" viewBox="0 0 73 56">
  <path id="패스_1526" data-name="패스 1526" d="M2986.5,1265.782c-.483-.281-1.76.713-1.256,1.033a10.015,10.015,0,0,0,1.816.667c3.837,1.021,11.942,1.856,19.852,1.962a96.02,96.02,0,0,0,17.634-1.25c2.6-.414,7.72,1.228,3.038-.525-1.022-.382-2.831-.156-4.333-.25,2.677-1.315,3.388-4.2.309-2.911a29.939,29.939,0,0,1-14.1,1.844c-3.1-.173-6.57-2.8-11.675-8.489-2.312-2.573-5.717-2.478-8.382-.326a9.661,9.661,0,0,0-3.358,4.492c-.526,2.117.915,2.5,2.641.409,4.106-4.981,5.8-3.784,10.5,2.334a15.2,15.2,0,0,1-5.49,2.815c-3.508-.554-6.18-1.212-7.2-1.8Z" transform="translate(-2962.528 -1255.927)" fill="#676767" fill-rule="evenodd"/>
  <path id="패스_1527" data-name="패스 1527" d="M3062.269,1269.655a2.838,2.838,0,1,1-2.811,2.888,2.85,2.85,0,0,1,2.811-2.888Z" transform="translate(-3016.239 -1265.854)" fill="#676767" fill-rule="evenodd"/>
  <g id="그룹_445" data-name="그룹 445" transform="translate(29.931 19.65)">
    <path id="패스_1528" data-name="패스 1528" d="M3020.708,1410.576c2.283-.328,4.51-2.825,4.186-5.089s-3.16-4.011-5.443-3.683a4.439,4.439,0,0,0,1.257,8.772Zm.094.65h0a5.383,5.383,0,1,1,4.6-6.1,5.4,5.4,0,0,1-4.6,6.1Zm.576,1.936a7.139,7.139,0,0,0,4.785-3.143,3.827,3.827,0,0,0,.766.824,8.414,8.414,0,1,1,1.156-7.827c-.216.431-.443.858-.679,1.277-.772-3.364-3.88-6.042-8.548-5.548a6.847,6.847,0,0,0-5.859,7.874,7.458,7.458,0,0,0,8.379,6.542Z" transform="translate(-3011.616 -1377.942)" fill="#676767" fill-rule="evenodd"/>
    <path id="패스_1529" data-name="패스 1529" d="M3113.66,1387.647c2.283-.327,5.121,1.444,5.446,3.707s-1.9,4.737-4.189,5.064a4.438,4.438,0,0,1-1.257-8.771Zm-.094-.65h0a5.384,5.384,0,1,0,6.128,4.56,5.4,5.4,0,0,0-6.128-4.56Zm-.364-3h0a8.426,8.426,0,1,0,9.591,7.136A8.455,8.455,0,0,0,3113.2,1384Zm.375.977h0a7.457,7.457,0,0,0-6.2,8.635,6.845,6.845,0,0,0,7.835,5.909c4.893-.886,7.1-4.7,6.582-8.338S3117.24,1384.4,3113.576,1384.977Z" transform="translate(-3079.81 -1368.162)" fill="#676767" fill-rule="evenodd"/>
    <path id="패스_1530" data-name="패스 1530" d="M3051.968,1367.955a32.241,32.241,0,0,0,3.1-5.815c.808-1.881.352-3-2.33-3.49-7.179-2-9.109-4.018-5.863-8.777a19.791,19.791,0,0,1,8.274-6.052c2.656-.906,4.245-.514,5.625,2.655,1.944,4.46,4.458,5.828,8.981,5.378,2.05.027,2.229.817-.7,2.76-4.237.51-9.464-2.07-12.882-5.95-1.143.229-4.775,2.7-4.128,4.023.572,1.169,3.172,2.3,5.851,3.754,1.592.866,2.382,3.048,1.16,5.507-1.336,2.69-2.419,5.483-3.628,8.226-1.148,1.982-5.145.2-3.461-2.218Z" transform="translate(-3036.011 -1338.862)" fill="#676767" fill-rule="evenodd"/>
    <path id="패스_1531" data-name="패스 1531" d="M3100.485,1329.962a2.854,2.854,0,1,1-5.649-.024c-1.04-.35-1.573-.877-.8-1.517,1.171-.967,4.761-2.947,6.668.755a.552.552,0,0,1-.218.786Z" transform="translate(-3070.952 -1327.019)" fill="#676767" fill-rule="evenodd"/>
  </g>
  <g id="그룹_446" data-name="그룹 446" transform="translate(0 13.349)">
    <path id="패스_1532" data-name="패스 1532" d="M2904.888,1335.181c-2.6,1.732-2.528,3.953,1.066,2.512,2.377-.952,6.972-2.506,10.441-5.159,1.714-1.311,3.27-3.684,4.583-4.694a12.529,12.529,0,0,1,5.717,2.7c.961.707.438,1.817-1.013,3.23-1.658,1.469-4.829,4.452-6.486,5.921-2.008,1.372-1.04,3.671,1.563,2.079a64.994,64.994,0,0,0,9.34-7.367c1.142-1.056,2.376-3.691.77-5.515a15.051,15.051,0,0,0-6.6-4.507c3.839-3.273,4.643-4.89,5.11-6.89,3.577,3.652,8.286,5.626,11.023,1.847,5.039-6.959,1.816-6.728-.447-4.142-1.84,2.1-3.355,3.915-5.957,1.836-3.535-3.558-6.363-7.833-9.968-11.493-2.756-2.8-6.517-.463-8.835,1.812a15.833,15.833,0,0,0-2.192,3.073c-1.478,2.249-.2,4.871,1.135,2.794,2.264-3.509,4.944-5.977,7.034-5.168,1.855,1.043,2.986,3.062,2.622,4.491-2.126,6.867-6.859,14.443-9.914,17.061-2.376,2.036-6.79,4.1-9,5.576Z" transform="translate(-2903.079 -1304.261)" fill="#676767" fill-rule="evenodd"/>
    <path id="패스_1533" data-name="패스 1533" d="M3000.927,1310.1a2.852,2.852,0,1,1-3.269,2.39,2.865,2.865,0,0,1,3.269-2.39Z" transform="translate(-2971.45 -1308.462)" fill="#676767" fill-rule="evenodd"/>
  </g>
</svg>
