<svg id="그룹_3410" data-name="그룹 3410" xmlns="http://www.w3.org/2000/svg" width="63" height="50" viewBox="0 0 63 50">
  <path id="패스_1471" data-name="패스 1471" d="M1654.025,1284.88a3.742,3.742,0,1,1-3.054,4.349,3.759,3.759,0,0,1,3.054-4.349Z" transform="translate(-1613.987 -1284.82)" fill="#676767" fill-rule="evenodd"/>
  <path id="패스_1472" data-name="패스 1472" d="M1657.851,1363.523l7.419,2c2.771.881,3.41.7,2.572-.925-1.493-2.9,1.373-3.347,3.087-1.111,1.978,2.581-.047,6.51-3.272,5.438-3.259-1.084-6.671-2.2-10.174-3.3a2.117,2.117,0,0,0,.153-.2,2.171,2.171,0,0,0,.217-1.9Zm-14.774-3.975,3.236.871q.573.906,1.207,1.771l.018.025.02.024c.142.174.291.343.445.509q-1.988-.579-3.986-1.135a7.787,7.787,0,0,0-.939-2.065Z" transform="translate(-1608.71 -1335.824)" fill="#676767" fill-rule="evenodd"/>
  <path id="패스_1473" data-name="패스 1473" d="M1535.329,1337.791c3.782-2.837,6.062-5,7.682-7.527a13.328,13.328,0,0,0,2.271-9.062c-1.005-6.1.757-9.314,3.29-13.127,4.015-6.042,9.43-9.169,15.253-11.614,3.307-.692,6.371-.482,7.744,6.048,1.521,7.766,5.259,12.8,9.617,17.06,2.664,3.848-4.15,3.2-7.82-1.289a41.539,41.539,0,0,1-6.049-13.144c-4.979,1.829-9.2,3.822-10.708,6.4,3.166.6,6.252,1.177,8.17,2.807,3.163,2.688,4.166,5.6,2.487,8.67a49.988,49.988,0,0,1-10.853,12.842c-4.59,2.278-5.975.431-1.536-3.977a31.931,31.931,0,0,0,6.144-8.184c1.582-3.059.3-4.438-2.042-4.583-1.838-.113-3.677-.2-5.517-.307-1.046,3.475-1.341,7.278-3.137,10.427a32.352,32.352,0,0,1-13.248,12.672c-4.392,2.4-4.7-1.895-1.747-4.106Z" transform="translate(-1533.396 -1292.603)" fill="#676767" fill-rule="evenodd"/>
  <path id="패스_1474" data-name="패스 1474" d="M1707.633,1424.413c-.521.745,1.3,2.018,1.672.654.431-1.591-.844-1.842-1.672-.654Zm-1.79.157h0a2.232,2.232,0,1,1,1.572,2.748A2.239,2.239,0,0,1,1705.843,1424.57Z" transform="translate(-1651.61 -1379.084)" fill="#676767" fill-rule="evenodd"/>
</svg>
