<svg id="그룹_3433" data-name="그룹 3433" xmlns="http://www.w3.org/2000/svg" width="42" height="57" viewBox="0 0 42 57">
  <path id="패스_1406" data-name="패스 1406" d="M1939.172,924.59a41.964,41.964,0,0,0-2.709,4.769c-1.3,2.695-.9,6.161,2.28,7.781.644.328.652.537,1.375.349a31.113,31.113,0,0,1,11.828-.43c-.011.235-.024.423-.038.55,3.4,2.328,6.23,2.986,9.82,7.9.72,2.686,1.653,8,.565,15.886-.082.109-4.3,5.262-4.4-.4-.1-5.338-.431-8.992-2.152-13.175-1.588-2-5.985-4.385-6.106-2.342.817,1.932,3.773,4.868,4.028,8.336a55.351,55.351,0,0,1-5.917,10.7c-1.372,1.593-5.1.733-3.948-1.938,1.6-3.669,3.416-6.6,3.808-8.717-.224-2.34-4.2-4.426-6.606-7.677-.994-1.344-3.787-.114-3.7-1.078.162-1.75.47-3.564.808-5.364a12.916,12.916,0,0,1-1.959-.827c-.071-.037-1.33.931-1.4.892-3.518-1.99-3.752-7.972-1.985-11.761a32.97,32.97,0,0,1,2.434-4.222c1.575-2.387,2.145-5.09,5.653-5.074,3.145.014,8,.065,11.164.308,7.947.612,13.734,7.426,18.4,7.319,3.571-5.811,3.688-2.992,2.828.138-.6,2.2-1.734,3.675-3.234,2.978a9.064,9.064,0,0,0-2.643-.912c-.119-.021-.531,1.293-.622,1.277-4.029-.714-14.359-7.56-14.712-6.1.34.805.288,1.774.457,4.144.116,1.624-.477,5.261-.5,7.25-.26-.046-.488-.081-.646-.108-.859-.152-1.717-.27-2.581-.4a28.452,28.452,0,0,0-9.687-.071C1939.683,930.97,1940.3,926.928,1939.172,924.59Z" transform="translate(-1931.691 -908.301)" fill="#676767" fill-rule="evenodd"/>
  <path id="패스_1407" data-name="패스 1407" d="M1962.29,890.3a4.475,4.475,0,1,0,6.127,1.691,4.495,4.495,0,0,0-6.127-1.691Z" transform="translate(-1949.806 -889.716)" fill="#676767" fill-rule="evenodd"/>
  <path id="패스_1408" data-name="패스 1408" d="M1965.43,969.758a28.759,28.759,0,0,0-13.23-.087c-2.5.647-2.484-1.561-1.4-1.807a24.2,24.2,0,0,1,10.126.2c.6.112,6.85,1.178,4.5,1.7Z" transform="translate(-1943.484 -941.737)" fill="#676767" fill-rule="evenodd"/>
</svg>
