<svg id="그룹_3389" data-name="그룹 3389" xmlns="http://www.w3.org/2000/svg" width="48" height="55" viewBox="0 0 48 55">
  <path id="패스_1388" data-name="패스 1388" d="M866.59,932.993c2.352-8.682,2-19.364-8.8-18.327a56.349,56.349,0,0,1-5.74,8.2c-3.191,3.647-6.92,3.886-10.708,1.746-1.853-1.046-3.849-2.038-5.218-3.665-3.479-4.121-.469-5.724,2.118-3.295a15.734,15.734,0,0,0,4.341,2.925c1.845.849,3.388-.077,4.417-1.651a64.65,64.65,0,0,0,9.226-23.9c-4.969.341-10.451,2.414-11.056,8.029-.719,6.694-4.046,5.965-4.1,1.865-.083-6.919,4.984-12.337,13.938-13.473,4.682-.594,9.075-.381,12.849-1.329a36.731,36.731,0,0,0,13.386-7.049c1.732-1.629,1.9,1.917-.439,4.011-3.214,2.855-9.294,6.436-14.483,7.422-.393,3.666-2.223,8.274-4.78,13.419,11.979,3.815,12.441,12.647,11.049,24.978-.559,4.947-5.612,5.48-6,.087Z" transform="translate(-834.554 -882.576)" fill="#676767" fill-rule="evenodd"/>
  <path id="패스_1389" data-name="패스 1389" d="M898.666,1026.958a2.978,2.978,0,0,1,1.414.451,2.376,2.376,0,0,1,.361,4.188,3.044,3.044,0,0,1-1.344.242,2.945,2.945,0,0,1-2.12-.792,3.916,3.916,0,0,1-.536-1.3,3.087,3.087,0,0,1,2.225-2.79Zm1.247-1.49h0a4.828,4.828,0,1,0,4.859,4.827A4.844,4.844,0,0,0,899.913,1025.468Z" transform="translate(-875.94 -980.124)" fill="#676767" fill-rule="evenodd"/>
  <path id="패스_1390" data-name="패스 1390" d="M916.209,882.394a3.571,3.571,0,1,1-3.6,3.571,3.59,3.59,0,0,1,3.6-3.571Z" transform="translate(-887.946 -882.394)" fill="#676767" fill-rule="evenodd"/>
</svg>
