<svg id="그룹_3387" data-name="그룹 3387" xmlns="http://www.w3.org/2000/svg" width="58" height="45" viewBox="0 0 58 45">
  <path id="패스_1248" data-name="패스 1248" d="M137.127,128.834c2.649-2.745,6.61-6.627,10.721-6.052,4.013.562,9.036,7.1,11.369,10.2s3.689,5.717,6.825,8.97c2.4,1.737,4.221-2.589,5.241-4.153,1.521-2.384,5.19-.063,3.669,2.32-1.567,1.908-2.86,3.787-5.056,5.046-5.392,3.489-10.307-2.841-12.566-6.376l-13.983,2.2c2.8,2.875,7.228,5.41,7.61,9.3.287,2.924-2.193,5.953-4.609,6.887-3.353,1.295-5.6.24-9.348.257a7.772,7.772,0,0,0,1.272-3.018c1.624.176,8.864-.295,6.158-4.6-1.326-2.109-4.037-4.152-5.786-5.939a4.6,4.6,0,0,0-.559.5c-.654.7.928,9.478-2.393,13.08-4.169,4.52-10.331,6.837-15.819,9.956-1.967,1.187-3.6-1.292-1.745-2.9,5.564-3.451,8.918-4.347,13-9.169,2.341-2.765.089-9.885.161-13.132.121-5.5,5.243-7.088,8.994-8.085l10.683-2.571c-1.289-1.613-3.546-5.789-6.286-4.591a21.174,21.174,0,0,0-5.052,3.257c-2.215,1.986-4.252.42-2.5-1.391Z" transform="translate(-117.314 -122.725)" fill="#676767" fill-rule="evenodd"/>
  <path id="패스_1249" data-name="패스 1249" d="M255.674,133.032a3.856,3.856,0,1,1-3.889,3.856,3.873,3.873,0,0,1,3.889-3.856Z" transform="translate(-209.137 -129.777)" fill="#676767" fill-rule="evenodd"/>
</svg>
