<svg id="그룹_3401" data-name="그룹 3401" xmlns="http://www.w3.org/2000/svg" width="36" height="63" viewBox="0 0 36 63">
  <path id="패스_1284" data-name="패스 1284" d="M1916.139,172.427c9.169-1.921,13.542-8.824,15.45-15.919.906-4.519,1.784-9.065-.08-16.595-.87-3.527-2.113-6.466-2.508-9.92a8.449,8.449,0,0,0,3.451.37,16.083,16.083,0,0,0,5.359,9.214c4.087,3.411,4.482,11.922,1.206,16.036,7.2-.4,15.238,2.529,11.129,10.791a35.378,35.378,0,0,1-7.371,9.706c-2.881,2.81-6.391.036-3.437-2.97a35.268,35.268,0,0,0,5.17-6.5c1.506-2.606,1.93-4.68-1.251-5.053a17.775,17.775,0,0,0-6.961.539c-4.1,5.82-9.359,11.562-17.358,13.517-2.969.52-4.884-2.9-2.8-3.219Z" transform="translate(-1915.263 -114.278)" fill="#676767" fill-rule="evenodd"/>
  <path id="패스_1285" data-name="패스 1285" d="M1996.284,137.2a4.094,4.094,0,1,1-4.126,4.094,4.113,4.113,0,0,1,4.126-4.094Z" transform="translate(-1969.844 -119.253)" fill="#676767" fill-rule="evenodd"/>
  <path id="패스_1286" data-name="패스 1286" d="M1952.82,77.849a5.882,5.882,0,1,1-5.93,5.881,5.9,5.9,0,0,1,5.93-5.881Zm0-1.361h0a7.645,7.645,0,1,0,7.7,7.645A7.667,7.667,0,0,0,1952.82,76.488Z" transform="translate(-1936.471 -76.488)" fill="#676767" fill-rule="evenodd"/>
  <path id="패스_1287" data-name="패스 1287" d="M1967.005,97.593c-.147-1.526-.449-1.837-1.385-1.7-1.54.228-.884,1.907-.066,2.485.714.51,1.577.525,1.451-.787Zm-.987,1.846h0a2.191,2.191,0,1,1,2.21-2.191A2.2,2.2,0,0,1,1966.018,99.439Z" transform="translate(-1949.676 -89.603)" fill="#676767" fill-rule="evenodd"/>
</svg>
