<svg id="그룹_3427" data-name="그룹 3427" xmlns="http://www.w3.org/2000/svg" width="58" height="53" viewBox="0 0 58 53">
  <path id="패스_1650" data-name="패스 1650" d="M1208.659,767.99a.867.867,0,0,0-.1.181,6.249,6.249,0,0,1-1.885,2.438c-.019.006-.039.014-.061.019s-.02.036-.028.053c-.189.153-.389.3-.592.442a.638.638,0,0,1-.809-.534,85.036,85.036,0,0,0-6.55-20.79.792.792,0,0,1-.25.272c-3.417,2.366-6.986,5.266-8.571,9.183v0c-.367,1.585-.612,3.236-.918,4.868v0c-.025.689-.025,1.382-.019,2.071a11.62,11.62,0,0,1-.1,3.361c-.011.036-.025.067-.036.1-.409.309-.823.606-1.254.884-.945.612-2.758,1.512-2.877-.278a12.122,12.122,0,0,1,.158-2.032,4.2,4.2,0,0,0,.109-.506c.445-3.13.053-6.442.417-9.58a11.9,11.9,0,0,1,1.793-4.3c.095-.139.156-.25.256-.406.111-.186.15-.267.247-.42a46.605,46.605,0,0,1,7.751-9.491q-.538-1.493-1.2-2.922s-.006-.006-.006-.006c-.333-.495-.681-.984-1.042-1.462a.04.04,0,0,1-.008-.011c-.47-.576-.923-1.159-1.365-1.754a.058.058,0,0,1-.017-.019q-.671-.813-1.379-1.6,4.575-1.418,9.169-2.769A153.956,153.956,0,0,1,1208.659,767.99Z" transform="translate(-1158.039 -718.321)" fill="#676767"/>
  <path id="패스_1651" data-name="패스 1651" d="M1168.39,690.334a.641.641,0,0,1-.022.108,3.785,3.785,0,0,1-1.588,2.986,1.5,1.5,0,0,1-1.7-.12,1.535,1.535,0,0,1-.514-1.713.08.08,0,0,0,.005-.025,2.12,2.12,0,0,0,.222-.8,1.021,1.021,0,0,0-.1-.475v0a.937.937,0,0,0-.614-.509,1.88,1.88,0,0,0-1.479.267,70.325,70.325,0,0,0-7.253,4.4q.446,1.043.873,2.091-5.108,1.505-10.2,3.1c-.058-.061-.12-.12-.181-.178q-9.128,3.119-18.393,5.791c-.058-.011-.117-.022-.175-.036-1.262-.309-1.721-.892-.773-1.9a5.424,5.424,0,0,1,.862-.731,31.01,31.01,0,0,0,4.554-2.08q5.192-2.2,10.387-4.406c.044-.05.2-.081.27-.111a54.619,54.619,0,0,0,5.349-2.374.129.129,0,0,1,.042-.017,18.118,18.118,0,0,1,1.832-.77c.323-.153.3-.139.384-.178q2.327-1.13,4.673-2.216l.008,0a40.111,40.111,0,0,1,7.754-4.137c1.443-.545,3.181-.826,4.47.22A4.155,4.155,0,0,1,1168.39,690.334Z" transform="translate(-1115.727 -684.433)" fill="#676767"/>
  <circle id="타원_31" data-name="타원 31" cx="3.899" cy="3.899" r="3.899" transform="translate(27.79)" fill="#676767"/>
  <circle id="타원_32" data-name="타원 32" cx="1.255" cy="1.255" r="1.255" transform="translate(5.351 22.629)" fill="#676767"/>
  <path id="패스_1652" data-name="패스 1652" d="M1172.276,710.87q-8.157,2.185-16.269,4.579-4.7,1.376-9.383,2.833-10.663,3.3-21.251,6.964c-.779.27-1.015-1.168-.245-1.432q10.15-3.507,20.375-6.692,4.975-1.551,9.964-3.022,8.261-2.44,16.564-4.665C1172.821,709.225,1173.062,710.659,1172.276,710.87Z" transform="translate(-1114.758 -701.437)" fill="#676767"/>
  <path id="패스_1653" data-name="패스 1653" d="M1089.793,776.608q15.492-.174,30.983-.48l-.2-1.5c-4.037,1.033-7.215,4.312-8.894,8.035-1.937,4.293-1.915,9.026-1.817,13.643a.765.765,0,0,0,1.529,0c-.088-4.117-.176-8.37,1.356-12.269,1.428-3.633,4.353-6.941,8.232-7.934a.768.768,0,0,0-.2-1.5q-15.491.305-30.983.48a.765.765,0,0,0,0,1.529Z" transform="translate(-1089.055 -748.362)" fill="#676767"/>
</svg>
