<svg id="그룹_3426" data-name="그룹 3426" xmlns="http://www.w3.org/2000/svg" width="61" height="57" viewBox="0 0 61 57">
  <path id="패스_1685" data-name="패스 1685" d="M1703.295,1217.091a3.644,3.644,0,1,1-3.675,3.644,3.66,3.66,0,0,1,3.675-3.644Z" transform="translate(-1669.874 -1206.203)" fill="#676767" fill-rule="evenodd"/>
  <path id="패스_1686" data-name="패스 1686" d="M1800.805,1305.843c.95-.343,2.435,2.534.22,2.5-1.83-.024-1.732-1.959-.22-2.5Zm.606-.627h0a2.478,2.478,0,1,0,2.494,2.478A2.486,2.486,0,0,0,1801.412,1305.216Z" transform="translate(-1742.905 -1271.25)" fill="#676767" fill-rule="evenodd"/>
  <g id="그룹_491" data-name="그룹 491" transform="translate(47.073 13.129)">
    <path id="패스_1687" data-name="패스 1687" d="M1765.066,1302.255a1.316,1.316,0,0,0,.121.178c.25.16.519.3.747.458a.914.914,0,0,1,.185.173,3.324,3.324,0,0,0,1.331.21.829.829,0,0,1,.195-.414,2.444,2.444,0,0,0-.328-.244c-.613-.383-1.258-.815-1.916-1.3a.954.954,0,0,1-.368.348A.81.81,0,0,1,1765.066,1302.255Z" transform="translate(-1765.032 -1281.396)" fill="#676767"/>
    <path id="패스_1688" data-name="패스 1688" d="M1767.174,1232.012c-.979,5.295,3.027,8.916-.9,13.756-.01.015-.017.031-.028.045l.636.348c4.041-5.627-.077-9.077.851-14.095.438-2.371,1.311-3.7,2.584-4.517,2.06-1.321,4.827-1.632,6.825.386,2.13,2.153,1.975,6.293-.155,9.346-1.68,2.391-4.553,1.785-7.026,4.9a11.408,11.408,0,0,0-2.152,4.757l.607.365c1.666-7.314,6.114-6.4,8.708-9.167s2.992-7.843.578-10.535a5.991,5.991,0,0,0-7.487-.875C1768.728,1227.636,1767.7,1229.153,1767.174,1232.012Z" transform="translate(-1765.925 -1225.817)" fill="#676767"/>
    <path id="패스_1689" data-name="패스 1689" d="M1775.532,1236.329c-1.117,2.483-1.371,6.047.748,7.132a3.906,3.906,0,0,0,3.46.18,6.521,6.521,0,0,0,3.305-3.752c1.783-4.075-1.24-8.736-4.825-6.682A6.752,6.752,0,0,0,1775.532,1236.329Zm7.2,2.781c-.91,2.756-2.808,5.524-6.174,3.8-1.746-.894-1.465-4.006-.471-6.281C1778.383,1231.379,1784.774,1233.553,1782.735,1239.11Z" transform="translate(-1772.139 -1230.889)" fill="#676767"/>
  </g>
  <path id="패스_1690" data-name="패스 1690" d="M1646.288,1254.77a89.966,89.966,0,0,1-12.993-10.294c-3.322-2.182-6.636-4.381-10.145-6.226a17.481,17.481,0,0,0-11.595.625,11.382,11.382,0,0,0-6.73,9.229c-.158,1.771,2.816,2.193,3.128.423.551-3.13,3.663-4.463,6.423-5.236a14.422,14.422,0,0,1,5.8-.529c-.024.194-.039.389-.05.583a41.843,41.843,0,0,0-2.64,13.4c-.625,2.684-.8,5.423-1.47,8.107-1.6,6.418-8.335,8.9-14.293,9.323a1.613,1.613,0,0,0-1.516,1.482,1.632,1.632,0,0,0,1.385,2.36,29.338,29.338,0,0,0,9.848-1.633c2.547-.821,5.289-1.8,7.138-3.83,1.927-2.12,2.282-4.8,2.668-7.512-.248-2.366,3.4-3.2,5.262-3.355,3.185-.263,7.856,1.005,8.985,4.4.665,2,.02,3.984-.508,5.966,0,.043,0,.087-.007.13-.027.075-.057.148-.085.222a11.794,11.794,0,0,0-.437,2.679c-.039,1.878.928,3.3,2.743,3.114a2.749,2.749,0,0,0,.779-.842,4.56,4.56,0,0,0,.467-1.135,21.052,21.052,0,0,0,1.853-5.569,9.069,9.069,0,0,0-.861-7.109c-2.326-3.711-6.336-4.994-10.164-6.543a3.687,3.687,0,0,1-1.285-4,18.421,18.421,0,0,1,1.656-4.655,90.363,90.363,0,0,0,15.043,9.173A1.594,1.594,0,0,0,1646.288,1254.77Z" transform="translate(-1596.66 -1221.584)" fill="#676767"/>
  <path id="패스_1691" data-name="패스 1691" d="M1678.416,1175.874v13.347a.4.4,0,0,0,.8,0v-13.347a.4.4,0,0,0-.8,0Z" transform="translate(-1654.288 -1175.489)" fill="#676767"/>
  <path id="패스_1692" data-name="패스 1692" d="M1587.585,1313.894H1605.2a.4.4,0,0,0,0-.8h-17.612a.4.4,0,0,0,0,.8Z" transform="translate(-1587.2 -1277.048)" fill="#676767"/>
  <path id="패스_1693" data-name="패스 1693" d="M1757.835,1384.659q.768.793,1.533,1.589c.356.37.918-.193.563-.563q-.765-.8-1.534-1.589c-.357-.369-.92.194-.563.563Z" transform="translate(-1712.613 -1329.37)" fill="#676767"/>
  <path id="패스_1694" data-name="패스 1694" d="M1706.828,1333.708q2.609,2.533,5.191,5.091a.4.4,0,0,0,.563-.563q-2.582-2.559-5.191-5.091c-.368-.357-.931.205-.563.563Z" transform="translate(-1675.089 -1291.789)" fill="#676767"/>
</svg>
