<svg xmlns="http://www.w3.org/2000/svg" width="50" height="68" viewBox="0 0 50 68">
  <g id="그룹_3419" data-name="그룹 3419" transform="translate(0 -1)">
    <path id="패스_1345" data-name="패스 1345" d="M675.225,173.172a3.629,3.629,0,0,1,2.649,4.445,3.735,3.735,0,0,1-4.554,2.586,3.629,3.629,0,0,1-2.656-4.419A3.751,3.751,0,0,1,675.225,173.172Z" transform="translate(-648.794 -145.217)" fill="#676767" fill-rule="evenodd"/>
    <path id="패스_1346" data-name="패스 1346" d="M607.991,277.758c-.92-.043-2.562-.1-3.047-.144-5.145-.431.7.88,3.822,1.259Zm12.494.075-.546,1c5.443-.19,11.837-.451,17.274-.385.05-.466.111-.931.181-1.4C633.543,277.123,625,277.583,620.485,277.833Zm30.347.914c.2-.089-1.446-.868-1.522-.894a14.052,14.052,0,0,0-2.884-.563c.342.693.655,1.394.927,2.113a4.047,4.047,0,0,1,1.727.885v0C649.43,280.65,651.191,279.187,650.832,278.747Z" transform="translate(-600.88 -219.069)" fill="#676767" fill-rule="evenodd"/>
    <path id="패스_1615" data-name="패스 1615" d="M633.791,166a45.883,45.883,0,0,1-17.117-9.2c-.727.48-1.7,2.277-2.568,4.174l2.639.052c3.092-.308,6.029,2.636,4.574,5.316l-5.546,10.042-.551,1a103.625,103.625,0,0,1-11.074.066c-.062-.006-.124-.014-.188-.023l-.78-1.115-6.394-9.171c-1.979-2.337.2-6.124,3.293-6.431l5.172.1a36.212,36.212,0,0,1,5.363-12.287h0a36.645,36.645,0,0,1,17.232-13.4c5.113-1.958,7.7,3,1.275,4.258a32.773,32.773,0,0,0-4.432,1.216c-5.157,2.1-10.532,8.544-5.334,13.19a47.5,47.5,0,0,0,15.4,8.524C638.12,163.525,638.379,167.225,633.791,166Z" transform="translate(-596.027 -117.62)" fill="#676767" fill-rule="evenodd"/>
    <path id="패스_1347" data-name="패스 1347" d="M708.383,152.526c1.25,6.945,2.521,14.019,3.771,20.964l1.906.662q-1.995-11.01-3.99-22.02a13.156,13.156,0,0,1-1.687.393Z" transform="translate(-675.575 -130.304)" fill="#676767" fill-rule="evenodd"/>
    <path id="패스_1348" data-name="패스 1348" d="M657.464,292.071a84.994,84.994,0,0,0-21.5,2.423c-4.11,1.224-2.69-.674-1.192-1.477,7.6-1.683,14.4-1.558,21.345-1.5,2.427.057,3.648.5,1.348.553Z" transform="translate(-622.465 -229.358)" fill="#676767" fill-rule="evenodd"/>
    <path id="패스_1349" data-name="패스 1349" d="M724.014,246.306c.256.988.569,2.176.824,3.165-1.021,4.868-2.074,9.292-1.055,13.144,1.263,4.773,9.216,4.554,9.031.409-.211-4.72-2.357-8.194-5.7-13.325l-.918-3.343a7.712,7.712,0,0,1-2.177-.051Z" transform="translate(-686.246 -197.164)" fill="#676767" fill-rule="evenodd"/>
    <path id="패스_1349-2" data-name="패스 1349" d="M693.92,92.792c-.189-.812-.317-1.33-.505-2.143.932-3.959,1.882-7.554,1.127-10.722-.935-3.925-7.44-3.9-7.372-.508.077,3.862,1.761,6.742,4.394,11l.683,2.75a6.051,6.051,0,0,1,1.674-.376Z" transform="translate(-660.566 -75.927)" fill="#676767" fill-rule="evenodd"/>
  </g>
</svg>
