<svg id="그룹_3432" data-name="그룹 3432" xmlns="http://www.w3.org/2000/svg" width="38" height="64" viewBox="0 0 38 64">
  <circle id="타원_35" data-name="타원 35" cx="4.059" cy="4.059" r="4.059" transform="translate(4.041 12.275)" fill="#676767"/>
  <path id="패스_1695" data-name="패스 1695" d="M1907.96,208.346q-1.689-4.778-3.374-9.549c-2.17-6.141-6.6-18.859-9.105-24.872-2.132-5.12-3.092-7.6-6.831-12.712-2.073-2.835-4.383-4.759-7.711-7.349a.776.776,0,0,0-.209-.207c-2.732-1.591-3.785-2.179-6.021-2.471a1.015,1.015,0,0,0-.9,1.626,20.951,20.951,0,0,0,4.758,3.924,27.35,27.35,0,0,1,5.029,4.336,24.64,24.64,0,0,1,2.047,2.933,8.984,8.984,0,0,1,.569,1.709c.544,5.464-4.992,8.075-8.8,10.628-2.94,1.969-6.984,5.489-5.652,9.5,1.315,3.961,6,6.416,9.83,7.114,1.094.2,1.545-1.108.983-1.855a3.684,3.684,0,0,0-.28-.292,2.306,2.306,0,0,0-.839-.468c-.434-.14-.1-.033-.811-.289a5.619,5.619,0,0,0-.731-.309,6.377,6.377,0,0,1-2.6-2.022c-1.329-1.626-.787-3.909.4-5.444,1.462-1.89,3.689-2.879,5.9-3.829a.3.3,0,0,0,.042.052c.831.909,1.667,1.83,2.475,2.769.061.077.127.15.188.227a24.954,24.954,0,0,1,4.525,7.179c-5.366,1.707-10.029,5.824-11.146,11.545-.031.162-.061.464-.068.53-.024.173-.015.117-.042.329a12.354,12.354,0,0,0,2.761,9.382,8.862,8.862,0,0,0,1.068,1.417l0,0a15.814,15.814,0,0,0,2.313,2.273,1.49,1.49,0,0,0,1.783-.029c.781-1.065-.083-2.236-.8-2.986a.9.9,0,0,1-.262-.587c-2.584-3.762-3.624-8.163-.445-12.3a1.133,1.133,0,0,1,.266-.248,8.572,8.572,0,0,1,5-2.855c1.359-.368,2.716-.725,4.078-1.081.509-.043,1.016-.071,1.53-.08,1.405,2.786,2.673,5.793,3.317,7.45.232.592.442,1.189.644,1.786a83.778,83.778,0,0,0,4.1,8.181,21.581,21.581,0,0,0,1.9,2.682,3.165,3.165,0,0,0,1.989,1.089,1.4,1.4,0,0,0,.677-.561A18.776,18.776,0,0,0,1907.96,208.346Z" transform="translate(-1871.501 -151.177)" fill="#676767"/>
  <path id="패스_1696" data-name="패스 1696" d="M1922.354,362.885a.374.374,0,0,0,.032.04.355.355,0,0,1-.04-.037S1922.35,362.885,1922.354,362.885Z" transform="translate(-1908.256 -304.24)" fill="#676767"/>
  <path id="패스_1697" data-name="패스 1697" d="M1922.386,362.925a.355.355,0,0,1-.04-.037s0,0,.008,0A.374.374,0,0,0,1922.386,362.925Z" transform="translate(-1908.256 -304.24)" fill="#676767"/>
  <path id="패스_1698" data-name="패스 1698" d="M1922.386,362.925a.355.355,0,0,1-.04-.037s0,0,.008,0A.374.374,0,0,0,1922.386,362.925Z" transform="translate(-1908.256 -304.24)" fill="#676767"/>
</svg>
