<svg id="그룹_3403" data-name="그룹 3403" xmlns="http://www.w3.org/2000/svg" width="75" height="60" viewBox="0 0 75 60">
  <path id="패스_1495" data-name="패스 1495" d="M537.9,1691.223a4.025,4.025,0,1,1-5.335-2.054,4.043,4.043,0,0,1,5.335,2.054Z" transform="translate(-507.716 -1680.155)" fill="#676767" fill-rule="evenodd"/>
  <path id="패스_1496" data-name="패스 1496" d="M477.019,1750.254a24.354,24.354,0,0,0-11.19.689c-2.059.689-2.23-1.174-1.333-1.445a20.542,20.542,0,0,1,8.576-.416c.517.06,5.889.6,3.947,1.171Z" transform="translate(-463.98 -1719.926)" fill="#676767" fill-rule="evenodd"/>
  <path id="패스_1497" data-name="패스 1497" d="M518.509,1697.213a55.979,55.979,0,0,0,7.63-10.732c1.341-2.322,11.622-9.858,13.342-10.432,1.868-.624-2.143-2.861-3.591-2.3-.794.308-11.559,7.715-12.746,9.1a34.649,34.649,0,0,1-7.167,6.2c-12.817-1.419-11.6-14.926-9.311-20.594-2.7-7.893-4.6-5.108-4.9-2.05-1.014,10.385-3.353,16.614,7.482,26.543,2.112-.252,7.809,3.35,9.261,4.254Zm-40.052-5.194h0a36.579,36.579,0,0,0-8.791-.97c1.353-5.708,5.021-9.756,9.952-12.432,5.044-2.737,7.9-.166,10.682,2.732,3.808,3.973,8.089,9.645,12.2,20.838a32.832,32.832,0,0,0,6.57-6.543,23.278,23.278,0,0,1,7,4.577,65.96,65.96,0,0,1-8.722,8.457c-3.924,3.2-6.859,3.627-8.037-.878-1.333-9.467-3.725-17.324-13.181-22.376-2.563,1.377-6.29,3.995-7.678,6.6Zm-6.889,28.08a49.108,49.108,0,0,0,3.933-4.492c2.658-3.032,2.188-7.976.882-13.371,7.181,4.406,9.244,11.4,5.978,19.227,4.616,5.273,6.142-1.984,6.224-5.072a17.957,17.957,0,0,0-2.4-10.447,53.921,53.921,0,0,0-5.6-7.362c-.837-1-2.405-2.429-2.714-3.727a23.307,23.307,0,0,0-9.026.2c-1,7.477,6.482,11.375,2.538,18.694a14.818,14.818,0,0,1-5.622,5.287C464.54,1720.544,467.358,1724.271,471.569,1720.1Z" transform="translate(-464.968 -1663.329)" fill="#676767" fill-rule="evenodd"/>
  <path id="패스_1498" data-name="패스 1498" d="M549.444,1793.409a4.025,4.025,0,1,1-5.335-2.055,4.044,4.044,0,0,1,5.335,2.055Z" transform="translate(-515.343 -1747.921)" fill="#676767" fill-rule="evenodd"/>
  <path id="패스_1499" data-name="패스 1499" d="M595.276,1754.846a24.378,24.378,0,0,1,9.013,6.669c1.352,1.7,2.51.229,1.9-.486a20.544,20.544,0,0,0-6.968-5.017c-.467-.231-5.266-2.7-3.949-1.167Z" transform="translate(-550.557 -1723.596)" fill="#676767" fill-rule="evenodd"/>
</svg>
