<svg xmlns="http://www.w3.org/2000/svg" width="57.562" height="67.445" viewBox="0 0 57.562 67.445">
  <g id="그룹_9369" data-name="그룹 9369" transform="translate(-173.584 -1607.435)">
    <g id="그룹_9367" data-name="그룹 9367" transform="translate(175.783 1607.435)">
      <path id="패스_12355" data-name="패스 12355" d="M191.442,1706.9c2.479-6.5,10.988-13.978,16.536-14.894-1.9,4.644-6.108,11.562-1.586,15.255a45.938,45.938,0,0,0,9.894,6.258c2.585.41,8.242-1.753,3.9-3.352a30.891,30.891,0,0,1-8.975-5.176c-2.922-2.372-.936-8.087,2.021-10.894,5.759-5.465,5.858-6.937,3.456-15.183a35.718,35.718,0,0,0-4.06-9.1c-1.705-2.453-3.936-2.728-6.524-1.513-11.123,3.548-18.415.059-22.978-2.931-2.325-1.524-4.258,1.56-1.418,5.295,6.027,3.944,13.7,4.146,22.127,2.648a21.52,21.52,0,0,1,3.906,8.551,4.3,4.3,0,0,1-3.12,5.39c-8.364,2.813-12.508,9.2-16.861,14.662-4.353,5.643-.879,7.48,2.5,7.264C190.954,1709.139,190.8,1707.518,191.442,1706.9Z" transform="translate(-180.297 -1646.125)" fill="#676767" fill-rule="evenodd"/>
      <path id="패스_12356" data-name="패스 12356" d="M207.189,1615.275c-.235,1.7-1.186,3.221-3.414,4.8-4.715,3.333-10.212.74-14.075,7.56l.665.492c3.1-6.4,8.743-3.976,13.732-7.5,2.686-1.9,3.758-3.672,3.981-5.628a6.779,6.779,0,0,0-4.45-7.276c-3.909-1.2-8.934,1.614-10.547,5.591s1.436,8.113-5.286,13.293l.663.45h0a12.906,12.906,0,0,0,3.867-4.467c2.032-4.019.046-6.684,1.705-9.543,2.127-3.636,6.306-5.759,9.528-4.593C206.576,1609.542,207.568,1612.532,207.189,1615.275Z" transform="translate(-185.337 -1607.435)" fill="#676767" fill-rule="evenodd"/>
      <path id="패스_12357" data-name="패스 12357" d="M210.067,1616.647c3.341-3.765,9.562-2.87,9.152,1.788a7.638,7.638,0,0,1-1.931,4.242c-2.021,2.324-5.561,4.276-7.68,2.614a4.418,4.418,0,0,1-1.827-3.469,7.377,7.377,0,0,1,2.286-5.175Zm.948-.051c-2.4,2.242-4.343,5.5-.977,8.146,1.746,1.369,4.81-.4,6.676-2.5C221.02,1617.4,215.756,1611.865,211.015,1616.6Z" transform="translate(-198.771 -1612.053)" fill="#676767" fill-rule="evenodd"/>
      <path id="패스_12358" data-name="패스 12358" d="M249.522,1644.669a4.123,4.123,0,1,0,4.157,4.123,4.141,4.141,0,0,0-4.157-4.123Z" transform="translate(-224.05 -1632.472)" fill="#676767" fill-rule="evenodd"/>
      <path id="패스_12359" data-name="패스 12359" d="M335.583,1673.867h0c1.711.617,1.822,2.807-.249,2.834-2.507.033-.826-3.222.249-2.834Zm-3.507,2.094a2.822,2.822,0,1,0,2.821-2.8h0A2.813,2.813,0,0,0,332.076,1675.96Z" transform="translate(-282.356 -1651.628)" fill="#676767" fill-rule="evenodd"/>
    </g>
    <path id="패스_12360" data-name="패스 12360" d="M292.231,1623.465v16.572a.5.5,0,0,0,.989,0v-16.572a.5.5,0,0,0-.989,0Z" transform="translate(-79.78 -10.458)" fill="#676767"/>
    <path id="패스_12361" data-name="패스 12361" d="M174.062,1722.369h21.868a.494.494,0,0,0,0-.988H174.062a.494.494,0,0,0,0,.988Z" transform="translate(0 -76.62)" fill="#676767"/>
    <g id="그룹_9368" data-name="그룹 9368" transform="translate(217.15 1652.111)">
      <line id="선_1085" data-name="선 1085" x2="12.663" y2="13.029" transform="translate(0.491 0.491)" fill="#1d1d1b"/>
      <path id="패스_12362" data-name="패스 12362" d="M319.731,1757.829a.491.491,0,0,1-.352-.149l-12.663-13.029a.491.491,0,1,1,.7-.685l12.664,13.029a.491.491,0,0,1-.352.834Z" transform="translate(-306.576 -1743.817)" fill="#676767"/>
    </g>
  </g>
</svg>
