<svg id="그룹_3429" data-name="그룹 3429" xmlns="http://www.w3.org/2000/svg" width="41" height="63" viewBox="0 0 41 63">
  <path id="패스_1654" data-name="패스 1654" d="M277.859,1211.28a26.106,26.106,0,0,1-5.648-2.485c.439-.069.892-.158,1.37-.266,1.207-.2,2.434-.451,3.65-.756.267-.067.524-.133.788-.2h0c.333.223.669.432,1.007.641C280.557,1209.147,279.723,1211.853,277.859,1211.28Z" transform="translate(-263.975 -1179.311)" fill="#676767"/>
  <path id="패스_1655" data-name="패스 1655" d="M276.034,1085.443a2.292,2.292,0,0,0-1.9,1.71c-.113.381-.234.763-.377,1.145-.159.135-.315.269-.478.4a61.122,61.122,0,0,1-10.55,7.252,3.817,3.817,0,0,0-.717,1.365,57.68,57.68,0,0,0-1.977,7.42c-.2.1-.4.209-.6.31a29.215,29.215,0,0,1-4.153,1.611l-.285.089c-1,.315-2.048.641-3.092.919-.207.057-.414.11-.632.161l-.1-.078a19.181,19.181,0,0,1-2.117-1.827c.1-.342.191-.687.287-1.03.085-.308.172-.616.257-.926-.779.547-1.7,1.117-1.329,1.887a3.135,3.135,0,0,0,.6.745,19.9,19.9,0,0,0,1.637,1.4,31.492,31.492,0,0,1-4.241.356,2.781,2.781,0,0,0-1.046.209,2.072,2.072,0,0,0-.191.087c-.124-.177-.241-.365-.352-.552-2.708-4.618,2.172-7.7,5.608-9.769,7.636-4.615,16.462-7.56,22.875-13.985a1.7,1.7,0,0,1,2.827.8A1.093,1.093,0,0,1,276.034,1085.443Z" transform="translate(-242.135 -1083.848)" fill="#676767"/>
  <path id="패스_1656" data-name="패스 1656" d="M253.341,1210.864l-.214.071a18.486,18.486,0,0,0-5.3,2.9c-.007-.027-.012-.048-.016-.076-.163-.712-.391-1.432-.584-2.149a29.511,29.511,0,0,0-2.735,5.576,12.977,12.977,0,0,0-2.087,10.148c-.078,1.478-.306,7.374-.349,8.866-.046,1.437-.655,3.383-2.432,3.324-1.818-.064-2.859-2.11-3.167-3.657-.437-2.179.087-8.953.331-11.137a109.938,109.938,0,0,1,3.57-16.111q.345-1.279.692-2.561l.225,0c.384.011.788,0,1.234-.023.361-.021.678-.051.959-.083l.147-.016a25.917,25.917,0,0,0,6.4,2.933c.057.016.115.03.168.042a2,2,0,0,0,2.388-1.26,2.37,2.37,0,0,0-.892-2.947q-.276-.173-.545-.345c.223-.067.439-.134.653-.2l.074-.021c.476-.145.97-.3,1.457-.455A49.522,49.522,0,0,0,253.341,1210.864Z" transform="translate(-236.29 -1176.522)" fill="#676767"/>
  <path id="패스_1657" data-name="패스 1657" d="M301.42,1281.584c-2.168-.726-3.377-2.434-4.425-4.376a33.84,33.84,0,0,1-3.025-6.585c-.014-.05-.03-.1-.039-.149.126-.172.257-.336.4-.5a8.9,8.9,0,0,1,2.138-1.811,9.093,9.093,0,0,1,2.439-1.007,45.16,45.16,0,0,0,1.512,4.969c.988,2.685,2.31,5.289,2.528,8.2A1.25,1.25,0,0,1,301.42,1281.584Z" transform="translate(-280.717 -1225.403)" fill="#676767"/>
  <path id="패스_1658" data-name="패스 1658" d="M285.6,1151.086c-.009,1.425-1.9,2.588-3,1.357-.053-.057-.1-.114-.154-.174a1.869,1.869,0,0,1-.5-.475l-.289-.4a1.689,1.689,0,0,1-.569-.443q-2.085-2.408-3.961-4.956-1.689-2.11-3.293-4.285a53.753,53.753,0,0,1-4.394-5.477c-1.057-1.492-2.19-3-3.2-4.566a15.932,15.932,0,0,0-3.656.441,10.042,10.042,0,0,0-2.695,1.11,9.793,9.793,0,0,0-2.351,1.98,10.228,10.228,0,0,0-1.266,1.827,9.292,9.292,0,0,0-.158.937c-.305,2.791.947,5.7,1.9,8.257a1.787,1.787,0,0,1-1.631,2.3,5.432,5.432,0,0,1-2.046-.425,1.494,1.494,0,0,1-.86-.772c-.023-.039-.044-.078-.064-.119-2.4-4.872-3.19-10.893.548-15.34a17.252,17.252,0,0,1,2.374-2.316,17.7,17.7,0,0,1,5.362-3.006,14.353,14.353,0,0,1,1.844-.493,18.428,18.428,0,0,1-.615-8.951c-.417.148-.839.288-1.257.422-.628.208-1.255.4-1.867.585q-.695.212-1.4.4c-.257.068-.514.135-.773.2-1.186.3-2.385.544-3.589.738a21.336,21.336,0,0,1-2.369.4c-.305.036-.61.059-.915.078-.385.023-.771.032-1.154.021-.248,0-.493-.014-.734-.034-1.97-.155-2.4-2.777-.855-3.41a1.958,1.958,0,0,1,.716-.137,33.1,33.1,0,0,0,4.548-.393c.195-.043.395-.087.589-.137.241-.055.479-.116.718-.181,1.154-.3,2.3-.667,3.4-1.012a30.379,30.379,0,0,0,4.268-1.651,18.877,18.877,0,0,0,1.81-1.009,4.1,4.1,0,1,0,5.814-5.591c.892-1.105,1.745-2.236,2.589-3.339a26.461,26.461,0,0,0,4.585-8.309c.018-.057.037-.119.053-.176a1.7,1.7,0,0,1,1.225-1.234,2.031,2.031,0,0,1,1.144.036,1.553,1.553,0,0,1,1.1,2,40.267,40.267,0,0,1-6.326,13.727c-.011.023-.023.041-.034.064a22.894,22.894,0,0,0-3.133,10.8,28.378,28.378,0,0,0,2.195,10.767,50.644,50.644,0,0,0,3.2,6.589q3.722,5.1,7.688,10.006a1.706,1.706,0,0,1,.312.566A4.877,4.877,0,0,1,285.6,1151.086Z" transform="translate(-244.597 -1091.098)" fill="#676767"/>
  <path id="패스_1659" data-name="패스 1659" d="M284.725,1104.1a3.51,3.51,0,1,1-2.62-4.215A3.512,3.512,0,0,1,284.725,1104.1Z" transform="translate(-268.28 -1096.128)" fill="#676767"/>
  <path id="패스_1660" data-name="패스 1660" d="M327.958,1154.9a3.343,3.343,0,0,1-6.02,1.117,3.529,3.529,0,0,1-.386-.768,3.343,3.343,0,0,1,3.91-4.36,2.847,2.847,0,0,1,.4.124,3.185,3.185,0,0,1,.775.407A3.341,3.341,0,0,1,327.958,1154.9Z" transform="translate(-301.857 -1135.516)" fill="#676767"/>
</svg>
