<svg id="그룹_3418" data-name="그룹 3418" xmlns="http://www.w3.org/2000/svg" width="58" height="62" viewBox="0 0 58 62">
  <path id="패스_1502" data-name="패스 1502" d="M880.326,1680.56a10.99,10.99,0,0,0-1.9.365c-.9.245-1.264.817-.94.714a16.012,16.012,0,0,1,4.289-.565c-.452-.157-.9-.313-1.354-.479l-.095-.035Z" transform="translate(-861.431 -1665.064)" fill="#676767" fill-rule="evenodd"/>
  <path id="패스_1503" data-name="패스 1503" d="M912.781,1670.515a4.181,4.181,0,0,1-1.789,1.433q.188.139.37.28a7.4,7.4,0,0,0,2.062-1.486,2.98,2.98,0,0,1-.642-.228Z" transform="translate(-885.057 -1658.001)" fill="#676767" fill-rule="evenodd"/>
  <path id="패스_1504" data-name="패스 1504" d="M944.55,1650.714c-.919.547.211.141,1.174.436,1.293.4,1.725,3.362,3.314,3.458.919.055,1.539-.957,1.9-1.848.549-1.368-.58-3.476-.861-4.846-.634-3.107-1-6.63-.448-8.709.228-.864-.394-.372-.758-.024-2.123,2.021-5.641,1.305-8.569,2.512a4.627,4.627,0,0,1,.2.628c3.246-1.486,6.818-1.009,8.414-2.451-.344,2.451.659,8.16,1.648,10.855a3.02,3.02,0,0,1,0,1.985c-.48.971-1.286,1.966-2.421-.021-.873-1.526-1.973-2.943-3.588-1.975Z" transform="translate(-905.645 -1635.642)" fill="#676767" fill-rule="evenodd"/>
  <path id="패스_1505" data-name="패스 1505" d="M938.727,1651.186c.2.037.182-.566-.04-.618.021-.051-.628-.009-.654-.007a12.2,12.2,0,0,0-5.838,1.921,10.148,10.148,0,0,0-3.256,3.612,7.08,7.08,0,0,1-1.287,1.664c-.779.46-.042.7.343.606,1.985-2.088,1.966-4.144,4.886-5.839a8.465,8.465,0,0,1,5.847-1.339Z" transform="translate(-896.517 -1643.952)" fill="#676767" fill-rule="evenodd"/>
  <path id="패스_1506" data-name="패스 1506" d="M918.544,1628.353a1.959,1.959,0,1,0,1.977,1.959,1.968,1.968,0,0,0-1.977-1.959Z" transform="translate(-888.974 -1628.353)" fill="#676767" fill-rule="evenodd"/>
  <path id="패스_1507" data-name="패스 1507" d="M893.545,1642.844a17.826,17.826,0,0,1-2.168,3.24c-1.2,1.117-1.907-.211-2.038-1.162a13.014,13.014,0,0,1,.1-3.167c.14-1.343-.549-2.07-2.227-1.781-3.367.579-6.141,2.735-8.9,5.623-1.734,1.815-1.863,3.586.562,5.188,1.72,1.136,8.3,2.215,7.135,4.568a21.551,21.551,0,0,1-3.1,4.67c-1.395,1.583-.282,2.418,1.944,2.487a22.213,22.213,0,0,0,3.85-7.8c.573-2.087-.737-3.035-2.271-4.146a24.334,24.334,0,0,0-3.48-1.95c-1.074-.683-.8-1.321,0-2.049a12.988,12.988,0,0,1,3.948-2.172,6.8,6.8,0,0,0,1.506,3.554c1.105,1.134,2.786.905,4.32-.2a15.764,15.764,0,0,0,3.08-3.154c-.317-3.123-1.366-3.032-2.259-1.753Z" transform="translate(-861.187 -1636.478)" fill="#676767" fill-rule="evenodd"/>
  <path id="패스_1508" data-name="패스 1508" d="M924.482,1758.7c1.425-1.483,3.555-3.58,5.766-3.268,2.158.3,4.86,3.838,6.115,5.511a41.887,41.887,0,0,0,3.67,4.846c1.292.938,2.27-1.4,2.819-2.244a1.169,1.169,0,0,1,1.973,1.254,10.222,10.222,0,0,1-2.719,2.725,3.032,3.032,0,0,1-3.438-.2,17.109,17.109,0,0,1-2.819-3.4l-6.584,1.651c1.158,1.66,2.35,3.207,2.556,5.31.154,1.579-.354,3.017-1.654,3.521-1.8.7-3.842-.807-5.754-.257a2.23,2.23,0,0,0,.684-1.63c.873.1,4.767-.16,3.313-2.485a21.13,21.13,0,0,0-2.607-3.363,2.411,2.411,0,0,0-.3.267c-.351.378-.006,5.275-1.793,7.221-2.242,2.441-5.556,3.693-8.508,5.377-1.058.642-1.938-.7-.938-1.564,2.993-1.865,4.8-2.348,6.994-4.953,1.259-1.494.553-5.495.591-7.249.065-2.971,2.315-3.673,4.332-4.213,2.276-.608,3.758-.961,6.149-1.618-.694-.871-1.893-3.1-3.367-2.449a14.683,14.683,0,0,0-3.134,1.958c-1.192,1.073-2.287.227-1.347-.752Z" transform="translate(-887.02 -1717.708)" fill="#676767" fill-rule="evenodd"/>
  <path id="패스_1509" data-name="패스 1509" d="M994.521,1764.068a1.959,1.959,0,1,1-1.976,1.959,1.968,1.968,0,0,1,1.976-1.959Z" transform="translate(-942.358 -1723.787)" fill="#676767" fill-rule="evenodd"/>
  <path id="패스_1510" data-name="패스 1510" d="M913.26,1712.321c-.334-.193-1.215.492-.867.713a6.9,6.9,0,0,0,1.254.46,68.463,68.463,0,0,0,13.705,1.354,66.358,66.358,0,0,0,12.174-.862c1.8-.286,5.33.847,2.1-.362a13.769,13.769,0,0,0-2.992-.173c1.848-.907,2.339-2.9.214-2.009a20.673,20.673,0,0,1-9.734,1.272c-2.142-.119-4.535-1.935-8.06-5.86a4.031,4.031,0,0,0-5.786-.226,6.676,6.676,0,0,0-2.318,3.1c-.364,1.462.632,1.727,1.823.282,2.835-3.439,4.005-2.612,7.249,1.612a10.484,10.484,0,0,1-3.789,1.943,18.646,18.646,0,0,1-4.97-1.245Z" transform="translate(-885.957 -1682.616)" fill="#676767" fill-rule="evenodd"/>
  <path id="패스_1511" data-name="패스 1511" d="M962.083,1714.35a1.96,1.96,0,1,1-1.941,1.994,1.967,1.967,0,0,1,1.941-1.994Z" transform="translate(-919.593 -1688.826)" fill="#676767" fill-rule="evenodd"/>
  <path id="패스_1512" data-name="패스 1512" d="M914.908,1751.53a2.063,2.063,0,0,0,1.823-1.991c2.331-.155,16.928-2.486,18.684-3.945l-.047-.076c-1.686,1.526-16.487,3.3-18.705,3.438a2.06,2.06,0,0,0-2.2-1.523l.445,4.1Z" transform="translate(-887.483 -1710.744)" fill="#676767" fill-rule="evenodd"/>
  <path id="패스_1513" data-name="패스 1513" d="M876.051,1743.607a2.219,2.219,0,0,0-2.613-1.989,2.028,2.028,0,0,0-1.606,1.949,2.1,2.1,0,0,0,1.955,2.374,2.212,2.212,0,0,0,2.265-2.333ZM873.8,1746.2a2.308,2.308,0,0,1-2.394-2.538,2.42,2.42,0,0,1,4.835-.05,2.391,2.391,0,0,1-2.441,2.588Z" transform="translate(-857.241 -1707.799)" fill="#676767" fill-rule="evenodd"/>
  <path id="패스_1514" data-name="패스 1514" d="M879.31,1748.126c-.88.388-2.232-3.384-.172-3.5,1.7-.1,1.574,2.882.172,3.5Z" transform="translate(-861.913 -1710.114)" fill="#676767" fill-rule="evenodd"/>
  <path id="패스_1515" data-name="패스 1515" d="M849.905,1708.757a1.844,1.844,0,1,1-1.859,1.844,1.852,1.852,0,0,1,1.859-1.844Z" transform="translate(-840.834 -1684.892)" fill="#676767" fill-rule="evenodd"/>
  <path id="패스_1516" data-name="패스 1516" d="M847.511,1722.589c4.513.054,8.851.406,11.376.162s.4,1.753-2.4,2.1a36.853,36.853,0,0,1-7.026-.159,39.415,39.415,0,0,1-1.385,7.86,9.047,9.047,0,0,0-3.608,1.4,45.027,45.027,0,0,0,.212-8.236c-.268-2.51.688-3.352,2.832-3.127Z" transform="translate(-838.318 -1694.598)" fill="#676767" fill-rule="evenodd"/>
  <path id="패스_1517" data-name="패스 1517" d="M890.933,1722.277c.068-.433-.238-.771-.229-1.1l.009-.337h5.465v.817l-3.256.146-.608.271a1.016,1.016,0,0,1-.413,1.16l-.355,1h-1.112c.172-.616.344-1.23.5-1.957Z" transform="translate(-870.611 -1693.392)" fill="#676767" fill-rule="evenodd"/>
  <path id="패스_1518" data-name="패스 1518" d="M827.4,1777.085a74.275,74.275,0,0,0,7.508-7.965,14.646,14.646,0,0,1,6.227-.885c4.023.37-1.769,5.775-2.734,6.9-2.771,3.217,1.57,1.9,3.52-.316a18.161,18.161,0,0,0,3.1-4.129c.688-1.344.962-3.227-.408-4.43-2-1.318-3.968-1.316-6.7-1.091,1.951-2.271,3.634-4.969,3.91-6.661a34.4,34.4,0,0,0,8.669-.6l-.262-2.408a74.611,74.611,0,0,1-9.611,1.078c-2.342.1-4.026,0-6.2.1a8.379,8.379,0,0,0-7.643,7.032c-.3,2.283.647,3.394,1.471,1.881.827-4.3,3.168-6.7,6.858-6.729a32.14,32.14,0,0,1-5.783,11.964c-.353.458-3.375,4.019-3.759,4.464C823.151,1777.539,822.627,1781.347,827.4,1777.085Z" transform="translate(-823.764 -1717.776)" fill="#676767" fill-rule="evenodd"/>
</svg>
