<svg id="그룹_469" data-name="그룹 469" xmlns="http://www.w3.org/2000/svg" width="52" height="52" viewBox="0 0 52 52">
  <path id="패스_1606" data-name="패스 1606" d="M-2800.767-143.479v-20.363h-20.363a6.51,6.51,0,0,0-6.449-5.688,6.51,6.51,0,0,0-6.449,5.688h-7.363v20.363a6.51,6.51,0,0,0-5.688,6.449,6.51,6.51,0,0,0,5.688,6.449v7.363h20.363a6.51,6.51,0,0,0,6.449,5.687,6.509,6.509,0,0,0,6.449-5.687h7.363v-7.363a6.51,6.51,0,0,0,5.688-6.449A6.51,6.51,0,0,0-2800.767-143.479Zm-13-18.738h11.375v11.375h-5.739a6.513,6.513,0,0,0-5.637-5.637Zm0,18.637a6.512,6.512,0,0,0,5.637-5.637h5.739v5.738a6.514,6.514,0,0,0-5.637,5.637h-.1a6.513,6.513,0,0,0-5.637-5.637Zm-13-13a6.513,6.513,0,0,0,5.637-5.637h5.738v5.738a6.513,6.513,0,0,0-5.637,5.637h-.1a6.514,6.514,0,0,0-5.637-5.637Zm11.375,13v.1a6.513,6.513,0,0,0-5.637,5.637h-.1a6.514,6.514,0,0,0-5.637-5.637v-.1a6.513,6.513,0,0,0,5.637-5.637h.1A6.513,6.513,0,0,0-2815.392-143.581Zm-24.375-18.637h5.738a6.514,6.514,0,0,0,5.637,5.637v.1a6.514,6.514,0,0,0-5.637,5.637h-5.738Zm-1.625,29.995a4.883,4.883,0,0,1-4.062-4.808,4.883,4.883,0,0,1,4.063-4.807,4.9,4.9,0,0,1,.812-.068,4.909,4.909,0,0,1,.813.068,4.887,4.887,0,0,1,3.995,3.995,4.894,4.894,0,0,1,.068.812,4.9,4.9,0,0,1-.068.813,4.887,4.887,0,0,1-3.995,4,4.911,4.911,0,0,1-.813.068A4.9,4.9,0,0,1-2841.392-132.222Zm13,7.38h-11.375v-5.738a6.512,6.512,0,0,0,5.636-5.637h.1a6.514,6.514,0,0,0,5.637,5.637Zm0-18.637a6.514,6.514,0,0,0-5.637,5.637h-.1a6.513,6.513,0,0,0-5.636-5.637v-5.738h5.738a6.514,6.514,0,0,0,5.637,5.637Zm0-1.743a4.888,4.888,0,0,1-3.995-3.995,4.844,4.844,0,0,1-.068-.813,4.843,4.843,0,0,1,.068-.812,4.886,4.886,0,0,1,3.995-3.995,4.9,4.9,0,0,1,.812-.068,4.9,4.9,0,0,1,.813.068,4.888,4.888,0,0,1,3.995,3.995,4.895,4.895,0,0,1,.068.812,4.9,4.9,0,0,1-.068.813,4.887,4.887,0,0,1-3.995,3.995,4.9,4.9,0,0,1-.812.068A4.9,4.9,0,0,1-2828.392-145.222Zm13,14.743a6.513,6.513,0,0,0-5.637,5.637h-5.738v-5.738a6.513,6.513,0,0,0,5.637-5.637h.1a6.513,6.513,0,0,0,5.637,5.637Zm0-1.743a4.887,4.887,0,0,1-3.995-4,4.9,4.9,0,0,1-.068-.813,4.895,4.895,0,0,1,.068-.812,4.887,4.887,0,0,1,3.995-3.995,4.9,4.9,0,0,1,.812-.068,4.9,4.9,0,0,1,.813.068,4.887,4.887,0,0,1,3.995,3.995,4.895,4.895,0,0,1,.068.812,4.9,4.9,0,0,1-.068.813,4.887,4.887,0,0,1-3.995,4,4.906,4.906,0,0,1-.812.068A4.9,4.9,0,0,1-2815.392-132.222Zm13,7.38h-5.739a6.513,6.513,0,0,0-5.637-5.637v-.1a6.512,6.512,0,0,0,5.637-5.637h.1a6.514,6.514,0,0,0,5.637,5.637Zm1.625-7.38a4.908,4.908,0,0,1-.812.068,4.9,4.9,0,0,1-.812-.068,4.888,4.888,0,0,1-3.995-4,4.843,4.843,0,0,1-.068-.813,4.843,4.843,0,0,1,.068-.812,4.886,4.886,0,0,1,3.995-3.995,4.9,4.9,0,0,1,.812-.068,4.906,4.906,0,0,1,.813.068,4.883,4.883,0,0,1,4.063,4.807A4.883,4.883,0,0,1-2800.767-132.222Z" transform="translate(2847.08 169.53)" fill="#676767"/>
</svg>
