<svg id="그룹_3395" data-name="그룹 3395" xmlns="http://www.w3.org/2000/svg" width="52" height="49" viewBox="0 0 52 49">
  <path id="패스_1477" data-name="패스 1477" d="M1956.063,1309.924a18.7,18.7,0,0,1-6.008,5.44c-2.821.94-5.677.858-7.948-1.475-4.142-4.254-3.826-14.329-.324-8.76,1.109,1.6,1.8,3.2,2.912,4.795a2.691,2.691,0,0,0,3.882.323c4.206-4.846,8.414-9.679,12.87-12.841,4.491-2.891,6.809-2.118,8.943-1.037,2.392,1.982,4.087,4.189,4.621,6.732.854,4.064.312,7.742-1.756,3.32-1.467-3.182-2.986-7.106-7.209-6.086a5.491,5.491,0,0,0-4.024,4.015c6.186,3.947,10.865,11.3,6.076,17.418-2.157,2.756-8.147,6.122-2.607,13.239.855,1.1,2.188,2.516,3.281,3.815,2.4,2.861,2.083,6.442-3.882,2.224-6.527-4.032-9.628-10.008-6.486-17.231-7.608,2.171-12.46,10.679-15.142,17.324-4.954,3.537-5.57,3.574-4.853-.415a26.375,26.375,0,0,1,13.864-18.626c10.637-5.441,8.732-7.511,3.79-12.172Z" transform="translate(-1923.399 -1294.754)" fill="#676767" fill-rule="evenodd"/>
  <path id="패스_1478" data-name="패스 1478" d="M1969.6,1293.572a4.029,4.029,0,1,1-4.064,4.029,4.048,4.048,0,0,1,4.064-4.029Z" transform="translate(-1941.28 -1293.572)" fill="#676767" fill-rule="evenodd"/>
  <path id="패스_1479" data-name="패스 1479" d="M1898.451,1327.493c.641-.231,1.361,1.273.14,1.415s-1.16-1.046-.14-1.415Zm.432-.513h0a1.672,1.672,0,1,0,1.683,1.672A1.677,1.677,0,0,0,1898.884,1326.98Z" transform="translate(-1897.201 -1315.242)" fill="#676767" fill-rule="evenodd"/>
  <path id="패스_1480" data-name="패스 1480" d="M1937.584,1300.063c.64,3.952-8.825,6.478-8.323-.728.505-7.239,7.3-5.566,8.323.728Zm-1.025.165c-.616-5.621-6.249-7.493-6.675-1.388-.4,5.677,6.209,4.228,6.675,1.388Z" transform="translate(-1917.869 -1294.228)" fill="#676767" fill-rule="evenodd"/>
</svg>
