<svg id="그룹_3396" data-name="그룹 3396" xmlns="http://www.w3.org/2000/svg" width="60" height="60" viewBox="0 0 60 60">
  <path id="패스_1369" data-name="패스 1369" d="M3337.017,519.6c.755,4.2,5.34,12.425,4.037,16.536-.977,3.087-3.892,3.886-6.41,3.711-3.8-.264-5.489-3.7-9.346-4.508.905-.632,1.537-1.315,2.6-2.214,1.486,1.015,9.052,4.828,8.294-.9-.339-2.564-2.2-4.783-3.593-7.008-.564-.9-1.172-.581-1.62.18-4.228,7.161-14.929,16.436-23.126,17.163-2.4.178-4.567-2.077-2.091-2.732,9.968-.876,28.125-23.571,25.453-34.653-.339-1.4-4.362-3.16-8-6.576-3.4-3.19-4.312-9.108-1.8-12.685,3.144-4.481,6.982-4.655,3.173.676-2.191,3.068-.985,6.811,1.422,9.018,9.009,8.26,23.068,13.949,35.148,13.826,2.819.058,5.59,2.827,1.287,3.085a42.8,42.8,0,0,1-12.585-.178,36.734,36.734,0,0,1-8.456-2.831c-.231,1.937-3.864,9.3-4.379,10.086Z" transform="translate(-3304.664 -482.576)" fill="#676767" fill-rule="evenodd"/>
  <path id="패스_1370" data-name="패스 1370" d="M3372.935,492.7a2.175,2.175,0,1,1,0-4.332,2.17,2.17,0,0,1,0,4.332Zm.1,1.278h0a3.678,3.678,0,1,0-3.7-3.678A3.691,3.691,0,0,0,3373.039,493.975Z" transform="translate(-3348.769 -485.331)" fill="#676767" fill-rule="evenodd"/>
  <path id="패스_1371" data-name="패스 1371" d="M3409.418,524.691a3.777,3.777,0,1,0,3.81,3.777,3.794,3.794,0,0,0-3.81-3.777Z" transform="translate(-3373.505 -511.27)" fill="#676767" fill-rule="evenodd"/>
</svg>
