<svg id="그룹_2534" data-name="그룹 2534" xmlns="http://www.w3.org/2000/svg" xmlns:xlink="http://www.w3.org/1999/xlink" width="62.264" height="52.357" viewBox="0 0 62.264 52.357">
  <defs>
    <clipPath id="clip-path">
      <rect id="사각형_216" data-name="사각형 216" width="62.264" height="52.357" fill="#676767"/>
    </clipPath>
  </defs>
  <g id="그룹_2533" data-name="그룹 2533" clip-path="url(#clip-path)">
    <path id="패스_3025" data-name="패스 3025" d="M63.053.055a3.45,3.45,0,1,0,2.816,4.01A3.466,3.466,0,0,0,63.053.055" transform="translate(-41.803 0)" fill="#676767" fill-rule="evenodd"/>
    <path id="패스_3026" data-name="패스 3026" d="M12.778,78.392h0a1.923,1.923,0,0,0,.341,1.936c-3.23,1.017-6.377,2.043-9.381,3.041C.764,84.358-1.1,80.735.721,78.355,2.3,76.294,4.943,76.7,3.567,79.379c-.773,1.5-.184,1.666,2.371.854ZM26.4,74.727a7.173,7.173,0,0,0-.866,1.9q-1.841.513-3.676,1.047c.142-.153.279-.309.41-.47l.018-.022.016-.023q.585-.8,1.112-1.633Z" transform="translate(0 -52.978)" fill="#676767" fill-rule="evenodd"/>
    <path id="패스_3027" data-name="패스 3027" d="M22.8,143.368a.827.827,0,0,0-.3-.1,18.67,18.67,0,0,0-3.828-.213.891.891,0,0,0-.873.873c-.007.668-.17,1.542.394,2.034a3.951,3.951,0,0,0,2.211.554,4.708,4.708,0,0,0,2.623-.2c.635-.412.534-1.454.6-2.109a.735.735,0,0,0-.832-.832" transform="translate(-12.605 -101.4)" fill="#676767"/>
    <path id="패스_3028" data-name="패스 3028" d="M54.849,31.636a38.029,38.029,0,0,0,5.578-12.059c4.59,1.678,8.483,3.506,9.872,5.868-2.919.553-5.764,1.079-7.533,2.575-2.917,2.466-3.842,5.142-2.294,7.954a45.659,45.659,0,0,0,9.3,11.176,22.86,22.86,0,0,1-.881,3.273A.881.881,0,0,0,69.965,51.5c.163-.04.349-.08.55-.123a2.6,2.6,0,0,1-.122,1.119.407.407,0,0,0-.271.188c-.367.047-.734.089-1.1.117-.735.057-2.2.346-2.792-.2-.414-.38-1.032.237-.618.617.785.721,1.882.54,2.889.488.671-.035,1.341-.1,2.007-.2a.427.427,0,0,0,.3-.047c.476-.074.951-.158,1.42-.261,2.032-.448,4.049-1.222,5.175-3.074.293-.482-.462-.92-.754-.441a4.642,4.642,0,0,1-1.529,1.523,2.1,2.1,0,0,1-.989-1.426,1.571,1.571,0,0,0,.224-.475,1.955,1.955,0,0,0,.342-1.12,3.006,3.006,0,0,0-1.063-2.081,14.948,14.948,0,0,0-1.74-2A29.3,29.3,0,0,1,66.232,36.6c-1.458-2.806-.274-4.071,1.883-4.2,1.695-.1,3.39-.188,5.087-.282.964,3.188,1.237,6.677,2.893,9.566a29.387,29.387,0,0,0,11.2,11.051c-.285.484-.565.971-.832,1.464a3.466,3.466,0,0,0-.649,1.907c.246,1.55,2.068.669,2.921.318l.033-.014a6.727,6.727,0,0,1,.265,1.6,12.185,12.185,0,0,1-4.477,1.536c-.55.071-.556.945,0,.873a13.92,13.92,0,0,0,6.724-2.86,22.821,22.821,0,0,0,2.9-2.683,4.029,4.029,0,0,0,1.47-2.447c.026-.563-.847-.559-.873,0-.041.86-1.13,1.836-1.843,2.505a.262.262,0,0,0-.027,0,1.751,1.751,0,0,1-1.258-.518,3.449,3.449,0,0,0,.58-1.121c.528-1.789-1.461-2.984-2.577-4.022a.891.891,0,0,0-.352-.2,25.829,25.829,0,0,1-6.456-6.433,12.178,12.178,0,0,1-2.094-8.313c.927-5.6-.7-8.545-3.034-12.043-3.7-5.543-8.695-8.412-14.063-10.655-3.049-.635-5.875-.443-7.14,5.548-1.4,7.125-4.849,11.739-8.868,15.651-2.456,3.53,3.827,2.933,7.211-1.182m34.707,24.4a7.131,7.131,0,0,0,1.488-.988,2.669,2.669,0,0,0,1.089.64,18.379,18.379,0,0,1-1.917,1.566c-.116.081-.235.157-.353.235a7.606,7.606,0,0,0-.306-1.452M71.365,51.186a7.239,7.239,0,0,0,2.048-.752,2.926,2.926,0,0,0,.846,1.227,11.651,11.651,0,0,1-2.008.637c-.314.074-.63.138-.946.2a3.864,3.864,0,0,0,.06-1.31" transform="translate(-33.379 -8.062)" fill="#676767"/>
  </g>
</svg>
