<svg id="그룹_3417" data-name="그룹 3417" xmlns="http://www.w3.org/2000/svg" width="46" height="66" viewBox="0 0 46 66">
  <path id="패스_1536" data-name="패스 1536" d="M1552.749,1711.309a3.6,3.6,0,1,1-4.089,3.077,3.619,3.619,0,0,1,4.089-3.077Z" transform="translate(-1545.93 -1685.557)" fill="#676767" fill-rule="evenodd"/>
  <path id="패스_1537" data-name="패스 1537" d="M1554.035,1817.525c-4.607,2.35-8.29,4.911-14.827.215,3.682,4.275,9.916,4.111,15.772.1-.315-.095-.63-.2-.945-.319Z" transform="translate(-1539.208 -1761.924)" fill="#676767" fill-rule="evenodd"/>
  <path id="패스_1538" data-name="패스 1538" d="M1639.6,1789.78c.427.241,1.339-1.634.89-1.927.136-.146-1.489-.34-1.557-.344-5.69-.292-10.954,2.046-16.094,4.1-.064.258-.136.524-.212.783,7.4-2.7,15.1-3.677,16.974-2.617Z" transform="translate(-1598.601 -1740.267)" fill="#676767" fill-rule="evenodd"/>
  <path id="패스_1539" data-name="패스 1539" d="M1609.63,1836.41c-2.362,1.552-1.85.1-1.063-.69,2.695-1.506,11.6-5.553,14.879-5.334a59.3,59.3,0,0,0-13.815,6.024Z" transform="translate(-1588.149 -1771.096)" fill="#676767" fill-rule="evenodd"/>
  <path id="패스_1540" data-name="패스 1540" d="M1583.939,1819.434c-.089.38-1.026.03-.952-.394-.713-.1,4.544-4.49,8.363-6.456,4.895-2.52,11.458-1.229,17.432-4.5-2.626,2.18-6,2.756-9.535,3.383-3.384.6-6.625,1.132-9.881,3.1a16.286,16.286,0,0,0-5.427,4.87Z" transform="translate(-1570.32 -1755.183)" fill="#676767" fill-rule="evenodd"/>
  <path id="패스_1541" data-name="패스 1541" d="M1634.061,1653.969a2.042,2.042,0,0,1,1.692.393c1.028.881.612,2.63.071,4.033,3.142,2.786,8.286,4.852,14.158,6.656q.118-.377.228-.738c2.408-8,5.113-42.259-2.163-44.322C1643.481,1627.1,1633.861,1642,1634.061,1653.969Z" transform="translate(-1606.763 -1619.992)" fill="#676767" fill-rule="evenodd"/>
  <path id="패스_1542" data-name="패스 1542" d="M1571.644,1744.614c1.991-4.283,1.151-5.262-1.823-3.753-5.033,2.592-10.334,3.156-16.246-.137-2.715-1.512-6.633-2.223-7.046.882-.683,5.14-.9,12.236,12.412,19.037,4.024,1.646,6.856,1.234,7.993-2.1.107-.313.467-1.606.544-1.973,1.587-.6,2.635-1.148,4.222-1.748-.974-3.883-4.356-5.118-7.511-2.05-2.875,2.8-5.24,1.078-7.538-1.58a11.422,11.422,0,0,1-2.586-6.729c5.773,2.157,11.564,3.856,17.58.153Z" transform="translate(-1543.731 -1705.447)" fill="#676767" fill-rule="evenodd"/>
</svg>
