<svg id="그룹_9379" data-name="그룹 9379" xmlns="http://www.w3.org/2000/svg" width="60.087" height="59.413" viewBox="0 0 60.087 59.413">
  <g id="그룹_9378" data-name="그룹 9378" transform="translate(0 41.263)">
    <path id="패스_12379" data-name="패스 12379" d="M1339.791,2235.2c-6.087,2.4-12.3,2.645-20.065-.754-2.706,2.862-11.254,3.665-20.4,3.346a45.062,45.062,0,0,1-13.693-2.789c-3.562-1.547-4.9-2.033-3.652-5.689,6.01,3.294,13.1,5.68,18,4.792a29.088,29.088,0,0,1-14.524-8.943c-1.283-2.151-.472-6.974,1.843-4.986,4.781,6.987,10.664,11.652,19.67,11.128a30.865,30.865,0,0,0,6.946-1.284,17.272,17.272,0,0,1,3.182-.646c2.021-.2,3.839.1,4.75,1.308,2.172,2.9,12.076,4.645,17.586-.282C1342.537,2229.613,1342.018,2232.637,1339.791,2235.2Z" transform="translate(-1281.525 -2219.707)" fill="#676767" fill-rule="evenodd"/>
    <path id="패스_12380" data-name="패스 12380" d="M1405.7,2230.318a3.533,3.533,0,1,1-3,4.024,3.554,3.554,0,0,1,3-4.024Z" transform="translate(-1363.217 -2226.836)" fill="#676767" fill-rule="evenodd"/>
    <path id="패스_12381" data-name="패스 12381" d="M1367.694,2238.36a2.3,2.3,0,0,1-.151.495c-.094,0-.188.006-.286.013a17.655,17.655,0,0,0-3.773.717,30.322,30.322,0,0,1-6.565,1.236c-.34.022-.674.039-1.006.044a2.316,2.316,0,0,1-.189-.44c-.433-.565-.484-1.384.118-2.553a3.118,3.118,0,0,1,1.91-1.579,6.394,6.394,0,0,1,2.46-.822,5.409,5.409,0,0,1,1.373-.217,4.651,4.651,0,0,1,.864-.106,2.274,2.274,0,0,1,.345.02,4,4,0,0,1,2.185.228C1366.614,2235.64,1368.077,2236.4,1367.694,2238.36Z" transform="translate(-1331.339 -2230.091)" fill="#676767"/>
  </g>
  <path id="패스_12382" data-name="패스 12382" d="M1343.217,2111.214c-2.177-10.323-14.147-18.218-28.587-18.218s-26.41,7.9-28.587,18.218h0l27.788,25.456h1.6l27.788-25.456h0Zm-55.6,0a12.861,12.861,0,0,1,7.715-2.253c3.959,0,7.361,1.395,8.847,3.389l8.8,22.116Zm27.009,23.454-8.85-22.315c1.486-2,4.889-3.392,8.85-3.392s7.364,1.4,8.849,3.392Zm1.644-.2,8.8-22.116c1.487-2,4.888-3.39,8.847-3.39a12.862,12.862,0,0,1,7.715,2.253Z" transform="translate(-1284.572 -2092.996)" fill="#676767"/>
</svg>
