<svg id="그룹_3414" data-name="그룹 3414" xmlns="http://www.w3.org/2000/svg" width="70" height="40" viewBox="0 0 70 40">
  <path id="패스_1446" data-name="패스 1446" d="M115.318,1359.874c-2.218-3.455-5.772-4.953-6.034.069,1.9-.052,3.938-.075,6.034-.069Zm36.117,1.634c-2.078-4.743-7.1-7.614-6.916-.6,2.026.146,4.1.322,6.287.539l.629.06Zm-55.258-9.975c2.515,2.826,9.728,10.834,10.165,11.368,1.607.754,3.091,1.457,4.41,2.224-.515.035-1.022.067-1.537.095a36.249,36.249,0,0,1-4.209,0q-.117-.3-.236-.614c-.533-.677-8.444-11.058-9.9-12.938-3.624-.029-2.375-1.861-.41-3.953,14.085-1.964,23.236-.856,28.5,2.044,4.855,2.673,5.021,6.234,3.527,10.4h0c3.214.058,6.121.175,8.959.278l.734.961-.638-.049a199.885,199.885,0,0,0-29.052.06c-.323-.369-.716-.809-1.152-1.3l.9-.047c-.28-5.56,1.257-8,4.235-8.167,4.3-.143,7.134,2.9,10.2,7.267,1.93-5.429-.236-9.589-10.252-9.312-4.777.133-9.5,1.071-14.242,1.689Zm35.243,0c2.506,2.826,9.728,10.834,10.155,11.368a30.342,30.342,0,0,1,7.126,4.121,55.923,55.923,0,0,0-6.505-1.435c-.637-.11-1.284-.213-1.921-.311q-.131-.332-.262-.675c-.533-.677-8.453-11.058-9.9-12.938-3.624-.029-2.375-1.861-.419-3.953,14.094-1.964,23.245-.856,28.511,2.044,5.493,3.026,4.977,7.191,2.856,12.084,2.227.21-.454,1.861-2.017,1.772-6.566-.052-10.872-.883-16.784-1.59-.271-.331-.672-.788-1.153-1.332l.42.025c-.445-6.027,1.091-8.651,4.191-8.825,4.287-.143,7.126,2.9,10.2,7.267,1.921-5.429-.236-9.589-10.252-9.312-4.777.133-9.5,1.071-14.242,1.689Zm-34.326,12.182h0a8.909,8.909,0,0,1,4.3-1.71l-1.126-1.484a30.769,30.769,0,0,0-4.943,1.259C94.605,1362.166,96.4,1364.05,97.094,1363.715Z" transform="translate(-92.555 -1338.804)" fill="#676767" fill-rule="evenodd"/>
  <path id="패스_1447" data-name="패스 1447" d="M244.124,1323.551a3.606,3.606,0,1,1-3.641,3.606,3.616,3.616,0,0,1,3.641-3.606Z" transform="translate(-188.938 -1323.551)" fill="#676767" fill-rule="evenodd"/>
  <path id="패스_1448" data-name="패스 1448" d="M142.91,1323.551a3.606,3.606,0,1,1-3.632,3.606,3.624,3.624,0,0,1,3.632-3.606Z" transform="translate(-122.998 -1323.551)" fill="#676767" fill-rule="evenodd"/>
  <path id="패스_1449" data-name="패스 1449" d="M164.367,1408.5c.385.411,2.37-.923,1.994-1.393-1.084-1.915-4.583-3.415-7.47-4.278-5.4-1.613-12.49-2.254-18.228-2.567-7.19-.392-13.234.624-20.38,1.014a44.9,44.9,0,0,1-9.394-.422c-.4.2-1.855,1.149-1.382,1.426,7.61.523,15.753-1.162,23.406-1.342,12.184-.287,29.957,4.479,31.453,7.561Z" transform="translate(-103.587 -1373.918)" fill="#676767" fill-rule="evenodd"/>
  <path id="패스_1450" data-name="패스 1450" d="M160.854,1416.877c7.819.6,16.219,1.626,21.715,6.61,3.7,2.74,2.913-.205,1.517-1.337-6.068-4.392-13.836-5.762-21.733-5.605-2.505.049-3.9.146-1.5.332Z" transform="translate(-136.167 -1384.62)" fill="#676767" fill-rule="evenodd"/>
</svg>
