<svg id="그룹_2532" data-name="그룹 2532" xmlns="http://www.w3.org/2000/svg" xmlns:xlink="http://www.w3.org/1999/xlink" width="47.794" height="54.417" viewBox="0 0 47.794 54.417">
  <defs>
    <clipPath id="clip-path">
      <rect id="사각형_215" data-name="사각형 215" width="47.794" height="54.417" fill="#676767"/>
    </clipPath>
  </defs>
  <g id="그룹_2531" data-name="그룹 2531" clip-path="url(#clip-path)">
    <path id="패스_3022" data-name="패스 3022" d="M118.56,8.338A4.181,4.181,0,0,0,121.2,1.385a4.183,4.183,0,1,0-2.645,6.953" transform="translate(-77.179 0)" fill="#676767"/>
    <path id="패스_3023" data-name="패스 3023" d="M54.739,28.337l-5.293,1.025a8.434,8.434,0,0,1-2.472.439c-.51-.089-.512-.6-.717-1.3-.941-3.222-1-6.608-2.485-9.674a2.025,2.025,0,0,0-2.443-1.065,5.627,5.627,0,0,0-1.636.412,5.931,5.931,0,0,0-1.2.612,15.959,15.959,0,0,0-5.274,5.043,17.1,17.1,0,0,0-2.245,5.349l9.134.017a9.1,9.1,0,0,1,.784-.989c.352-.427.674-.81.969-1.15a25.718,25.718,0,0,0,.6,2.8l-2.782,0-8.834-.014q-7.13-.014-14.261-.024c.018-.52.045-1.041.088-1.562.052-.634-.93-.795-.981-.157-.046.573-.075,1.145-.095,1.717l-1.386,0c-1.276,0-1.048,1.972.218,1.975l1.155,0c.013.662.037,1.324.087,1.987.048.638,1.035.528.987-.109s-.071-1.251-.084-1.876q7.035.011,14.07.022,4.069.01,8.134.015l4.519.007c.075.123.153.243.237.359,1.139,1.572,3.026,1.713,4.786,1.415,2.291-.388,4.568-.885,6.85-1.327,2.493-.483,2.079-4.437-.436-3.95" transform="translate(-9.055 -11.98)" fill="#676767"/>
    <path id="패스_3024" data-name="패스 3024" d="M45.069,93.594c-.327,2.074-3.7,2-5.242,1.883a22.87,22.87,0,0,1-5.857-1.361C30.243,92.8,26.6,91.187,23,89.547c-.55-.251-1.1-.509-1.644-.765a4.364,4.364,0,0,1,.7-.9,99.839,99.839,0,0,1,9.717-6.317c.775-.462,3.582-1.988,4.246-3.311,1.226-2.444.009-4.985-1.758-6.9-1.479-1.6-4.841-4.943-4.652-7.759L21.6,63.583a11.348,11.348,0,0,0,1.116,4.671c.805,1.68,2.925,3.345,4.317,4.574,1.078.954,2.4,1.864,2.737,2.547.769,1.531-2.761,3.447-3.883,4.184a60.758,60.758,0,0,1-7.723,4.521,16.7,16.7,0,0,0-2.7,1.824q-7.054-3.595-13.8-7.754C.585,77.485-.669,79.028.418,79.7A196.992,196.992,0,0,0,25.547,92.853c4.083,1.769,8.347,3.8,12.788,4.452,2.93.43,8.091.445,8.7-3.4a.994.994,0,0,0-1.962-.315" transform="translate(0 -43.079)" fill="#676767"/>
  </g>
</svg>
