<svg id="그룹_9380" data-name="그룹 9380" xmlns="http://www.w3.org/2000/svg" width="79.609" height="46.782" viewBox="0 0 79.609 46.782">
  <path id="패스_12383" data-name="패스 12383" d="M493.28,2227.288a77.56,77.56,0,0,0,2.039-10.875c.282-2.324.912-5.1-1.395-6.664-3.754-2.742-7.791-4.672-11.264-8.227-3.948-4.042-.23-9.226,4.383-10.2a25.508,25.508,0,0,1,17.19,1.966c3.571,1.628,4.5,4.014,5.8,7.652,2.245,6.319,3.134,5.7,8.5,8.06,4.7,2.068,2.031,3.148-1.8,4.323-9.129-4.226-10.544-6.426-12.323-14.256a29.784,29.784,0,0,0-10.075-1.471c-3.48.219-3.709,1.078-2.176,2.3a59.763,59.763,0,0,1,6.886,6.012c1.722,1.868,2.083,4.42,1.763,7.614-.481,4.812-1.6,14.059-2.664,17.923-2.024.347-5.575-1.748-4.86-4.156Z" transform="translate(-480.994 -2184.699)" fill="#676767" fill-rule="evenodd"/>
  <path id="패스_12384" data-name="패스 12384" d="M556.711,2173.734a4.378,4.378,0,1,1-4.806,3.944,4.4,4.4,0,0,1,4.806-3.944Z" transform="translate(-526.968 -2173.714)" fill="#676767" fill-rule="evenodd"/>
  <path id="패스_12385" data-name="패스 12385" d="M687.186,2198.645a4.378,4.378,0,1,1-4.806,3.944,4.4,4.4,0,0,1,4.806-3.944Z" transform="translate(-611.582 -2189.869)" fill="#676767" fill-rule="evenodd"/>
  <path id="패스_12386" data-name="패스 12386" d="M657.7,2241.545c-1.579.3-2.955.225-4.284.433-2.775,5.277-3.378,8.174-.737,12.444,2.905,4.7,4.728,1.569,4.6,1.329-1.558-2.969-1.975-4.391-2.137-5.747C654.929,2248.165,655.747,2245.771,657.7,2241.545Z" transform="translate(-591.237 -2217.703)" fill="#676767" fill-rule="evenodd"/>
  <path id="패스_12387" data-name="패스 12387" d="M601.76,2234.336c-1.1-.589-7.736-15.443-11.23-23.628-1.288-3.017-3.5-1.955-4.5-1.17-2.858.739-5.891,0-8.908-.6-.2-.009-.441-.072-.741-.083a5.379,5.379,0,0,0-1.054-.016c-4.875.487-8.823,2.908-12.792,6.09a44.963,44.963,0,0,1-7.908,5.1,51.517,51.517,0,0,1-7.513,1.837c-1.993.331-2.053,3.337-.732,4.342a1.548,1.548,0,0,0,1.983,1.164,45.93,45.93,0,0,0,7.315-2.85q2.611-.863,5.163-1.992a55.063,55.063,0,0,0,6.152-3.216c1.065-.645,2.116-1.408,3.2-2.059,0,.257.01.514.012.771,2.58,5.717.72,16.292-9.2,17.851-4.627,2.836-4.331,6.375.247,4.737,11.4-4.08,16.376-6.805,14.395-22.056,5.448.381,11.051,1.409,14.433.174,2.689,5.027,4.322,14.843,7.973,16.948C600.729,2237.2,603.808,2235.429,601.76,2234.336Z" transform="translate(-522.818 -2196.401)" fill="#676767"/>
</svg>
