<svg xmlns="http://www.w3.org/2000/svg" width="36.302" height="64.362" viewBox="0 0 36.302 64.362">
  <g id="그룹_3436" data-name="그룹 3436" transform="translate(-1174.263 -1174)">
    <g id="그룹_3390" data-name="그룹 3390" transform="translate(1174.263 1174)">
      <path id="패스_1267" data-name="패스 1267" d="M1238.788,96.757c-2.144.4-4.5,6.418-2.862,8.215,2.16,2.37,6.5,3.61,10.363,4.474,3.8.882,4.975,3.693,3.322,6.436-7.257,13.849-1.556,25.63,2.141,36.7.459,1.379.581,3.451-.386,4.118-1.7,1.17-3.018-1.129-3.538-2.391a155.975,155.975,0,0,1-7.317-21.844c-3.194,2.675-5.083,4.135-4.573,7.809.533,3.842.963,9.2,2.466,14.358.725,2.874-2.964,2.537-4.434-1.148-.822-5.164-3.051-11.876-3.173-16.405-.132-4.92,4.569-5.318,5.93-9.043,1.286-3.518,1.183-11.521,3.224-15.344-4.5-2.05-6.244-4.421-7.167-7.368-.983-3.136.98-8.336,4.613-9.7A9.974,9.974,0,0,1,1238.788,96.757Z" transform="translate(-1230.794 -92.654)" fill="#676767" fill-rule="evenodd"/>
      <path id="패스_1268" data-name="패스 1268" d="M1270.928,114.31a3.753,3.753,0,0,0,2.96,1.636,3.99,3.99,0,0,0,4.322-4.112c2.5-.153,2.717-.925-.05-1.183-.27-2.329-2.474-2.932-4.185-2.932-3.533,0-3.909,1.405-4.307,4.09C1269.474,113.122,1269.854,114.267,1270.928,114.31Z" transform="translate(-1256.18 -100.471)" fill="#676767" fill-rule="evenodd"/>
      <path id="패스_1269" data-name="패스 1269" d="M1252.188,90.2l23.11-2.959c2.831-.2,3.181,3.094.358,3.538l-23.366.758C1252.254,90.827,1252.224,90.916,1252.188,90.2Z" transform="translate(-1246.187 -87.235)" fill="#676767" fill-rule="evenodd"/>
    </g>
    <circle id="타원_270" data-name="타원 270" cx="2.442" cy="2.442" r="2.442" transform="translate(1205.682 1200.857)" fill="#707070"/>
  </g>
</svg>
