<svg id="그룹_9376" data-name="그룹 9376" xmlns="http://www.w3.org/2000/svg" width="53.052" height="61.517" viewBox="0 0 53.052 61.517">
  <path id="패스_12374" data-name="패스 12374" d="M205.631,2157.663a26.872,26.872,0,0,0-3.154,3.089,24.3,24.3,0,0,0,2.332,1.562,11.207,11.207,0,0,0,.823-4.651Zm-7.222,1.7a37.37,37.37,0,0,1,3.706-3.7c2.285-2.033,3.719-4.7,7.049-3.633,2.985.955,7.151.011,10.076,1.212,14.4,5.91,26.884-1.69,22.747,5.08-1.3,2.125-1.918,2.04-3.114.86-.867-.855-1.936-.6-3.155-.449-.119.015-.1,1.533-.187,1.508-3.548-1.017-16.544-.4-17.391.384.058.947-.311,1.948-.932,4.485-.425,1.738-1.967,4.737-2.643,6.817A35.381,35.381,0,0,0,202.4,2167.8c.393-.8.649-1.333,1.032-2.164-1.5-1.079-6.807-4.178-5.023-6.278Zm2.529,12.043a20.786,20.786,0,0,0-2.892,5.041c-.4.984,3.732.422,3.008,2.047-4.429,9.934-1.975,7.1-10.717,17.885-.044.054.258,1.953.214,2.008-1.975,2.457.042,3.737,1.871,2.476,9.824-11.825,8.632-6.623,13.793-18.93.789-2.107,7.332,2.039,8.18,4.613.25,4.775-.057,6.491-1.634,11.818-.042.143.773,1.613.73,1.759-1.772,5.975,2.454,2.51,2.8,1.242,1.982-4.334,5.019-12.212,3.208-17.055-1.712-4.577-3.886-6.132-6.06-9.178C211.215,2172.8,202.488,2171.535,200.938,2171.4Z" transform="translate(-189.738 -2141.998)" fill="#676767" fill-rule="evenodd"/>
  <path id="패스_12375" data-name="패스 12375" d="M254.767,2123.546a4.46,4.46,0,1,0,5.319,3.439,4.479,4.479,0,0,0-5.319-3.439Z" transform="translate(-229.97 -2123.448)" fill="#676767" fill-rule="evenodd"/>
  <path id="패스_12376" data-name="패스 12376" d="M237.392,2206.621a28.038,28.038,0,0,0-12.551-3.7c-2.571-.063-1.895-2.176-.788-2.115a23.573,23.573,0,0,1,9.568,2.961c.538.272,6.159,3,3.771,2.858Z" transform="translate(-211.56 -2174.093)" fill="#676767" fill-rule="evenodd"/>
</svg>
