<svg id="그룹_3407" data-name="그룹 3407" xmlns="http://www.w3.org/2000/svg" width="44" height="58" viewBox="0 0 44 58">
  <path id="패스_1710" data-name="패스 1710" d="M2052.22,1165.189q-1.141-.381-2.269-.837a3.737,3.737,0,1,1,.279-1.6c.007.126.005.252,0,.375q1.081.548,2.17,1.054C2052.823,1164.372,2052.647,1165.33,2052.22,1165.189Z" transform="translate(-2037.487 -1159.189)" fill="#676767" fill-rule="evenodd"/>
  <path id="패스_1711" data-name="패스 1711" d="M2038.108,1381.528c-.02-.01-.024-.022-.037-.032s0,0,0-.007C2038.086,1381.5,2038.1,1381.515,2038.108,1381.528Z" transform="translate(-2034.005 -1326.929)" fill="#676767"/>
  <path id="패스_1712" data-name="패스 1712" d="M2038.108,1381.528c-.02-.01-.024-.022-.037-.032s0,0,0-.007C2038.086,1381.5,2038.1,1381.515,2038.108,1381.528Z" transform="translate(-2034.005 -1326.929)" fill="#676767"/>
  <path id="패스_1713" data-name="패스 1713" d="M2038.108,1381.528c-.02-.01-.024-.022-.037-.032s0,0,0-.007C2038.086,1381.5,2038.1,1381.515,2038.108,1381.528Z" transform="translate(-2034.005 -1326.929)" fill="#676767"/>
  <path id="패스_1714" data-name="패스 1714" d="M2076.2,1186.488a3.028,3.028,0,0,0-.726.9,15.654,15.654,0,0,0-1.446,3.833,9.207,9.207,0,0,1-2.249.407.73.73,0,0,1-.165-.007l-2.478.4c-.439-1.175-.9-2.352-1.4-3.5a5.074,5.074,0,0,0,.8.259,5.551,5.551,0,0,0,5.852-2.2l1.182.039a.248.248,0,0,0-.034.035C2075.765,1186.6,2075.987,1186.55,2076.2,1186.488Z" transform="translate(-2056.43 -1179.75)" fill="#676767"/>
  <path id="패스_1715" data-name="패스 1715" d="M2045.747,1190.793a6.406,6.406,0,0,0-.368-1.124,1.933,1.933,0,0,0-.351-.562,1.984,1.984,0,0,0-3.337.135,13.7,13.7,0,0,0-1.175,2.9,20.342,20.342,0,0,0-.523,2.382c-.212.6-.432,1.19-.674,1.771a4.47,4.47,0,0,1-1.348,2.009,1.288,1.288,0,0,1-1.866.388,8.437,8.437,0,0,1-1.414-1.175,6.734,6.734,0,0,1-.508-.481c-.03-.066-.057-.135-.086-.206a18.891,18.891,0,0,1-2.858-6.1c-.057-.076-.109-.155-.165-.223a3.9,3.9,0,0,0-1.168-.957,4.723,4.723,0,0,0-1.668-.6,1.929,1.929,0,0,0-.681,0,2,2,0,0,0-2.135,1.428,24.015,24.015,0,0,0-.44,5.849,71.992,71.992,0,0,1,1.449,19.737.192.192,0,0,1-.007.051,25.914,25.914,0,0,1-1.362,11.724,70.179,70.179,0,0,1-3.31,7.041,2.963,2.963,0,0,0,.257,2.478,2.816,2.816,0,0,0,3.811.824c1.429-.893,1.861-2.745,2.352-4.229.624-1.872,1.162-3.771,1.6-5.694.94-4.082,1.614-8.238,2.167-12.407.03-.091.057-.186.086-.277a14.27,14.27,0,0,0,.516,1.393c1.175,2.726,2.962,5.216,3.791,8.079.918,3.17.622,6.693.128,9.914a2.078,2.078,0,0,0,.215,1.317,3.785,3.785,0,0,0,3.557,2.912,2.072,2.072,0,0,0,2.019-2.009c1.244-9.889-2.959-19.126-7.325-27.744-.049-.508-.106-1.016-.175-1.519a44,44,0,0,0-.928-4.446c0-.081.007-.157.015-.238.007-.137.01-.277.017-.415a5.98,5.98,0,0,0,3.4.9,6.413,6.413,0,0,0,5.748-3.844c.077-.172.143-.346.2-.52a24.89,24.89,0,0,0,1.158-2.3C2045.352,1194.8,2046.243,1192.976,2045.747,1190.793Zm-20.084,44.881s0,0,.005-.007c.01.015.022.027.032.039C2025.681,1235.7,2025.676,1235.683,2025.664,1235.673Z" transform="translate(-2021.598 -1181.086)" fill="#676767"/>
  <path id="패스_1716" data-name="패스 1716" d="M2132.014,1180.534c-4.709.136-6.289.269-11,.4a2.525,2.525,0,0,1-.6,2.031c-3.282.128-4.139.257-7.421.385a8.051,8.051,0,0,0-.355-1.024,3.034,3.034,0,0,0-.521-.844,3.312,3.312,0,0,0-2.567-1.246.285.285,0,0,1,.062-.017,4.771,4.771,0,0,1,2.809-1.145c8.078.168,11.4.316,19.476.484A.994.994,0,0,1,2132.014,1180.534Z" transform="translate(-2088.087 -1174.169)" fill="#676767"/>
</svg>
