<svg id="그룹_3388" data-name="그룹 3388" xmlns="http://www.w3.org/2000/svg" width="76" height="38" viewBox="0 0 76 38">
  <path id="패스_1339" data-name="패스 1339" d="M1532.654,620.881c-.558-.5-2.92,1.652-2.353,2.232-.284.14,2.2,1.069,2.3,1.1,5.053,1.556,16.4,2.191,27.819,1.393,9.374-.655,17.082-2.674,26.236-4.759,5.575-1.271,17.2-1.525,11.049-2.311-2.224.123-4.732.269-7.049.565-6.307.809-13.356,3.235-20.313,4.3-15.727,2.408-34.639.217-37.687-2.522Z" transform="translate(-1527.901 -596.526)" fill="#676767" fill-rule="evenodd"/>
  <path id="패스_1340" data-name="패스 1340" d="M1526.088,573.565c-.76-.429-2.794,1.092-2,1.584a16.681,16.681,0,0,0,2.894,1.021c6.109,1.565,19,2.844,31.6,3.007,10.331.134,18.253-1.207,28.071-1.915a92.028,92.028,0,0,1,10.368-.146c4.817.5,2.573-1.51.677-2.138a71.1,71.1,0,0,0-13.106,1.1c4.259-2.016,5.394-6.437.495-4.461-6.695,2.7-14.214,3.458-22.447,2.825-4.937-.265-10.459-4.3-18.582-13.009-3.682-3.945-9.095-3.8-13.335-.5-2.62,2.034-4.771,4.663-5.348,6.885-.843,3.245,1.456,3.832,4.2.626,6.539-7.635,9.231-5.8,16.714,3.577a24.531,24.531,0,0,1-8.737,4.313c-5.586-.848-9.836-1.856-11.466-2.765Z" transform="translate(-1523.91 -558.461)" fill="#676767" fill-rule="evenodd"/>
  <path id="패스_1341" data-name="패스 1341" d="M1565.677,652.037a105.1,105.1,0,0,1,27.261,2.653c5.228,1.493,3.387-.935,1.473-1.942-9.655-2.008-18.251-1.691-27.041-1.459-3.065.129-4.6.725-1.693.748Z" transform="translate(-1549.495 -617.163)" fill="#676767" fill-rule="evenodd"/>
  <path id="패스_1342" data-name="패스 1342" d="M1619.385,576.157a4.349,4.349,0,1,1-4.308,4.427,4.37,4.37,0,0,1,4.308-4.427Z" transform="translate(-1581.809 -569.673)" fill="#676767" fill-rule="evenodd"/>
</svg>
