<svg id="그룹_3399" data-name="그룹 3399" xmlns="http://www.w3.org/2000/svg" width="47" height="54" viewBox="0 0 47 54">
  <path id="패스_1561" data-name="패스 1561" d="M2268.138,1721.3c7.561-6.129,5.427-13.988,5.966-23.368,1.258-17.676,16.432-14.664,29.315-15.16-.165.891-.322,1.781-.487,2.671-3.93-.028-7.172.249-9.927,1.319s-5.4,2.207-7.381,5.347c-.973,2.3,2.328,3.431,6.378,2.319l1.236,2.68c-2.957,2.156-6.925,3.408-10.2,1-.921,1.213-.831,3.045-.479,4.489,10.2,5.2,14.47,13.171,11.985,23.6-.868,3.673-6.663,3.792-5.764-.88,1.048-6.395-1.28-14.117-8.122-15.728-1.227,5.465-3.391,11.256-9.934,15.311a2.215,2.215,0,1,1-2.583-3.6Z" transform="translate(-2267.212 -1674.891)" fill="#676767" fill-rule="evenodd"/>
  <path id="패스_1562" data-name="패스 1562" d="M2320.318,1655.272a3.994,3.994,0,1,1-4.027,3.994,4.013,4.013,0,0,1,4.027-3.994Z" transform="translate(-2301.524 -1655.272)" fill="#676767" fill-rule="evenodd"/>
  <path id="패스_1563" data-name="패스 1563" d="M2390.474,1683.609c2.1.288,3.346.648,4.042,1.441,1.026,1.175,2.036,1.347,2.4.019.509-1.9-.068-3.072-1.812-3.8a12.5,12.5,0,0,0-4.185-.714c-1.751-.067-1.684.65-1.879,2.018-.128.943.254.877,1.437,1.04Zm1.325-3.9c2.47.06,4.851.366,6,1.778,2.156,2.637.134,8.03-3.3,5.468-.554-.415-.464-2.065-4.881-2.591-1.108-.133-1.714-.006-1.5-.95l.524-3.084c.1-.851,2.111-.648,3.152-.621Z" transform="translate(-2351.692 -1672.387)" fill="#676767" fill-rule="evenodd"/>
  <path id="패스_1564" data-name="패스 1564" d="M2354.446,1713.924c1.617-.79,2.747-1.326,3.638-1.039,1.31.425,1.872-.091,1.49-1.318-.516-1.654-1.422-2.025-2.934-1.681a11.472,11.472,0,0,0-3.167,1.638c-1.265.8-1.115,1.109-.554,2.276.382.806.614.569,1.527.124Zm-1.056-3.7c1.767-1.149,3.586-2.062,5.105-1.513,2.845,1.027,3.93,6.163.232,5.814-.6-.057-1.363-.829-4.492.406-.883.349-1.205.824-1.527-.021l-1.2-2.673c-.36-.72,1.153-1.53,1.886-2.013Z" transform="translate(-2326.095 -1692.754)" fill="#676767" fill-rule="evenodd"/>
</svg>
