<svg id="그룹_3416" data-name="그룹 3416" xmlns="http://www.w3.org/2000/svg" width="48" height="54" viewBox="0 0 48 54">
  <path id="패스_1613" data-name="패스 1613" d="M285.278,127.269c-8.689,7.122-10.065-1.878-12.493-2.354a69.412,69.412,0,0,1-4.561,11.735c11.2,3.58,11.632,11.865,10.329,23.43-.006.056-.015.113-.024.166a9.587,9.587,0,0,1,1.29,1.162,1.808,1.808,0,0,1-1.255,3.042,7.525,7.525,0,0,1-2.221-.068,9.368,9.368,0,0,1-1.518-.556,2.824,2.824,0,0,1-1.866-3.452c-.009-.068-.015-.143-.021-.214,2.2-8.143,1.875-18.163-8.221-17.189a53.106,53.106,0,0,1-5.365,7.694c-2.985,3.419-6.47,3.645-10.013,1.637a30.054,30.054,0,0,1-3.464-2.112l-2.46.41a1.8,1.8,0,0,1-2-2.617,21.129,21.129,0,0,1,1.223-2.3,1.821,1.821,0,0,1,.653-.633c.578-.621,1.916-.443,3.15.719a14.664,14.664,0,0,0,4.057,2.745c1.725.8,3.169-.071,4.128-1.551a60.751,60.751,0,0,0,8.626-22.414c-4.645.321-6.529.449-7.093,5.716-.673,6.28-3.782,5.6-3.833,1.75-.077-6.488,1.916-10.231,10.288-11.3,4.377-.556,7.679-.565,10.933.536,4.576,2.361,4.446,6.547,7.8,4.8C283.405,124.835,289.3,123.972,285.278,127.269Z" transform="translate(-238.651 -112.879)" fill="#676767" fill-rule="evenodd"/>
  <path id="패스_1614" data-name="패스 1614" d="M328.673,95.17a3.358,3.358,0,1,1-3.389,3.358,3.375,3.375,0,0,1,3.389-3.358Z" transform="translate(-297.921 -95.17)" fill="#676767" fill-rule="evenodd"/>
  <circle id="타원_20" data-name="타원 20" cx="0.952" cy="0.952" r="0.952" transform="translate(3.516 29.126)" fill="#676767"/>
  <circle id="타원_21" data-name="타원 21" cx="0.952" cy="0.952" r="0.952" transform="translate(1.909 31.032)" fill="#676767"/>
  <circle id="타원_22" data-name="타원 22" cx="0.952" cy="0.952" r="0.952" transform="translate(0.6 33.414)" fill="#676767"/>
  <circle id="타원_23" data-name="타원 23" cx="0.952" cy="0.952" r="0.952" transform="translate(0 35.796)" fill="#676767"/>
  <circle id="타원_24" data-name="타원 24" cx="0.952" cy="0.952" r="0.952" transform="translate(32.4 50.013)" fill="#676767"/>
  <circle id="타원_25" data-name="타원 25" cx="0.952" cy="0.952" r="0.952" transform="translate(34.683 51.323)" fill="#676767"/>
  <circle id="타원_26" data-name="타원 26" cx="0.952" cy="0.952" r="0.952" transform="translate(37.441 52.096)" fill="#676767"/>
  <circle id="타원_27" data-name="타원 27" cx="0.952" cy="0.952" r="0.952" transform="translate(40.34 51.62)" fill="#676767"/>
</svg>
