<svg id="그룹_3413" data-name="그룹 3413" xmlns="http://www.w3.org/2000/svg" width="49" height="60" viewBox="0 0 49 60">
  <path id="패스_1433" data-name="패스 1433" d="M129.444,1686.482a4.19,4.19,0,1,1-4.226,4.19,4.208,4.208,0,0,1,4.226-4.19Z" transform="translate(-125.218 -1675.997)" fill="#676767" fill-rule="evenodd"/>
  <path id="패스_1434" data-name="패스 1434" d="M157.02,1678.8a78.783,78.783,0,0,1,16.959-21.527c5.1-3.66,7.437-3.259,5.324,3.687-13.43,10.853-22.85,24.558-23.687,50.395-1.35,3.057-3.889,5.29-3.821,2.029-.152-8.7-.55-17.4,2.32-26.1-1.312.573,1.447-8.224,2.905-8.481Zm-13.7,11.363h0c-6.374-1.069-5.066-5.326-3.549-9.369a28.252,28.252,0,0,0,9.629,5.83,22.579,22.579,0,0,1,3.97-8.462,32.119,32.119,0,0,1-8.57-4.495c2.385-4.7,9.167-11.32,13.261-13.106,5.623-2.453,1.1-3.895-3.6-1.1-9.45,5.632-16.944,13.194-19.422,20.83-2.163,6.666-1.518,12.138,7.888,14.153C146.066,1695.126,150.042,1691.295,143.316,1690.167Z" transform="translate(-131.079 -1654.994)" fill="#676767" fill-rule="evenodd"/>
  <path id="패스_1435" data-name="패스 1435" d="M188.641,1722.777a25.36,25.36,0,0,0-3.736,11.056c-.145,2.256-2.009,1.689-1.916.717a21.384,21.384,0,0,1,2.97-8.43c.262-.475,2.893-5.441,2.681-3.344Z" transform="translate(-163.971 -1699.864)" fill="#676767" fill-rule="evenodd"/>
</svg>
