<svg id="그룹_2530" data-name="그룹 2530" xmlns="http://www.w3.org/2000/svg" xmlns:xlink="http://www.w3.org/1999/xlink" width="42.087" height="67.599" viewBox="0 0 42.087 67.599">
  <defs>
    <clipPath id="clip-path">
      <rect id="사각형_214" data-name="사각형 214" width="42.087" height="67.599" fill="#676767"/>
    </clipPath>
  </defs>
  <g id="그룹_2529" data-name="그룹 2529" clip-path="url(#clip-path)">
    <path id="패스_3020" data-name="패스 3020" d="M47.8,56.268a3.439,3.439,0,1,0-4.675-1.412A3.454,3.454,0,0,0,47.8,56.268" transform="translate(-30.33 -35.342)" fill="#676767"/>
    <path id="패스_3021" data-name="패스 3021" d="M38.11,17.493c-.362-.428-.975.19-.615.616.482.571.938,1.162,1.358,1.772a.456.456,0,0,0-.046.173c-.024.34-.538.66-.794.826-.065.042-.131.081-.2.118a2.032,2.032,0,0,0-.967-.989.421.421,0,0,0-.26-.071l-.013,0c-1.021-.145-2.077,1.091-2.7,1.73a.451.451,0,0,0-.079.113c-4.961,3.738-2.857,3.175-8.681,6.018-7.331,3.987-16.258,3.491-13.908-3.521.084-.25.151-.481.207-.7a4.6,4.6,0,0,0,.273-3.508,2.345,2.345,0,0,0-.337-.625,57.432,57.432,0,0,0-1.51-7.688,99.473,99.473,0,0,1-1.428-10.6.9.9,0,0,0-.87-.87L7.254.136A.84.84,0,0,0,6.047.508.916.916,0,0,0,5.883.7c-1.725,2.79-.163,6.646.622,9.514.78,2.85,1.948,5.646,2.643,8.533l-.029.011a20.37,20.37,0,0,1-5.583-14.3C3.573-.156,1.036-.314,0,4.882A33.665,33.665,0,0,0,6.235,20.06a1.644,1.644,0,0,0-.292.339c-1.155,1.833-1.317,4.246-1.386,6.364a10.029,10.029,0,0,0,.5,3.65c.014.112.026.225.043.337.1.159.191.315.287.469a8.177,8.177,0,0,0,1.1,1.726,1.988,1.988,0,0,0,.2.207,11.738,11.738,0,0,0,4.264,3.862c-.2,1.684-.345,3.3-.439,4.858l.039.007c-.037.749-.065,1.5-.075,2.248-.008.583-.014,1.175.034,1.756l-.12-.012A51,51,0,0,0,12,58.713c.188,2.141-.969,3.362-2.774,4.581a.439.439,0,0,0-.156.6,2.341,2.341,0,0,0,.426.426.4.4,0,0,0,.142.148.784.784,0,0,0,.22.084,3.3,3.3,0,0,0,1.037.325,4.4,4.4,0,0,1-.7,1.833,9.148,9.148,0,0,1-2.754-.212.435.435,0,0,0-.231.839,9.937,9.937,0,0,0,2.995.229.48.48,0,0,0,.422-.028c.7-.06,1.408-.163,2.111-.277,2.173-.352,4.339-.755,6.507-1.134.551-.1.317-.935-.231-.839l-2.447.428a.423.423,0,0,0-.332-.184,1.556,1.556,0,0,1-1.33-1.146c.316-.09.611-.179.871-.259A.444.444,0,0,0,16.1,63.7c-.008-.282-.027-.559-.056-.834a3.474,3.474,0,0,0,.106-.359,65.962,65.962,0,0,1-.386-15.7,10.711,10.711,0,0,0,.305-2.084q.081-1.207.157-2.413l.1,0q.389-2.5.972-5.146c9.627-4.292,12.383-6.956,17.208-11.738.413-.294.82-.6,1.226-.907,1.186.29,2,1.411,3.34,1.033a.449.449,0,0,0,.319-.42,3.361,3.361,0,0,0-.242-1.528,1.756,1.756,0,0,1,1.431-.458,10.21,10.21,0,0,1,.631,4.015c-.027.56.843.558.87,0,.181-3.722-1.633-6.9-3.964-9.665M10.642,63.56a.527.527,0,0,0,.039.049c-.048.019-.092.034-.137.049a1.2,1.2,0,0,1,.1-.1m4.411,2.417-1.5.263c-.755.131-1.518.27-2.284.366a5.136,5.136,0,0,0,.507-1.677,10.706,10.706,0,0,0,2.313-.33,3.026,3.026,0,0,0,.967,1.379M38.747,22.813q-.109-.181-.228-.359c-.062-.111-.121-.22-.172-.325s-.1-.217-.153-.334a3.205,3.205,0,0,0,1.233-1.026,14.408,14.408,0,0,1,.8,1.51,2.625,2.625,0,0,0-1.478.535" transform="translate(0 0)" fill="#676767"/>
  </g>
</svg>
