<svg id="그룹_2536" data-name="그룹 2536" xmlns="http://www.w3.org/2000/svg" xmlns:xlink="http://www.w3.org/1999/xlink" width="67.777" height="46.784" viewBox="0 0 67.777 46.784">
  <defs>
    <clipPath id="clip-path">
      <rect id="사각형_217" data-name="사각형 217" width="67.777" height="46.784" fill="#676767"/>
    </clipPath>
  </defs>
  <g id="그룹_2535" data-name="그룹 2535" clip-path="url(#clip-path)">
    <path id="패스_3029" data-name="패스 3029" d="M53.014,49.748A48.475,48.475,0,0,1,44.982,36.26c-.931-2.4-1.428-4.907-2.284-7.318a8.326,8.326,0,0,0-2.237-3.525,3.981,3.981,0,0,0-1.235-.757l-.031-.011c-.1-.037-.2-.071-.3-.1-.066-.02-.133-.035-.2-.051s-.115-.027-.174-.038c-.031-.006-.06-.015-.091-.02s-.074-.008-.111-.013a8.739,8.739,0,0,0-3.4.339c-4.5,1.173-10.222,4.993-12.408,7.738a12.7,12.7,0,0,0-2.333,4.008,7.89,7.89,0,0,0-.4,1.125,91.39,91.39,0,0,1-5.7,11.6c-.537.949-1.051,1.929-1.657,2.835a5.278,5.278,0,0,1-3,2.061,17.534,17.534,0,0,1-3.972,1.079c-2.052.448-4.929.418-5.4,3.033C-.4,60.761,2.1,61.6,4.1,61.353a39.659,39.659,0,0,0,7.67-1.973c2.43-.82,1.654-.158,3.838-1.526A8.424,8.424,0,0,0,18.131,54.8q1.24-2.057,2.477-4.116l1.809-3.006.181-.27a21.963,21.963,0,0,1,3.635-3.262c1.091.484,2.317.968,3.69,1.462,3.764.981,4.3,2.618,2.948,5.21a46.008,46.008,0,0,1-5.021,7.947c-2.65,3.258,2.848,6.218,4.689,3.519,2.009-3.773,3.841-7.632,6.026-11.32,2-3.369,1.1-6.556-1.071-7.956-3.656-2.355-7.237-4.233-7.927-5.955-.782-1.952,4.646-5.083,6.3-5.29.028.037.058.072.086.108A61.775,61.775,0,0,0,41.268,42.3c2.439,3.894,5.088,8.1,9.3,10.256,1.623.832,3.717-1.284,2.447-2.808" transform="translate(0 -16.553)" fill="#676767"/>
    <path id="패스_3030" data-name="패스 3030" d="M183.468,116.623a2.935,2.935,0,0,0-1.606-2.262l-.006,0a13.559,13.559,0,0,0-.211-1.817,1.511,1.511,0,0,0-.94-1.34c-1-.408-2.713-.066-3.771-.007-1.684.094-3.359.273-5.029.51-1.219.173-1.1,2.094.132,1.92a58.362,58.362,0,0,1,6.608-.574q.316-.011.632-.014.452.14.449-.363a6.11,6.11,0,0,1,.1,1.458c-.3.012-.6.03-.9.048-.222,0-.447.012-.672.032l-.084,0c-1.963.033-4.582-.363-6.218.978a1.818,1.818,0,0,0-1.181,1.837c.007.184.016.366.027.546a3.144,3.144,0,0,0,.042.546c.175,1.829.734,3.261,3.019,3.326a38.524,38.524,0,0,0,7.836-.525c2.382-.43,2.282-2.364,1.767-4.3" transform="translate(-115.992 -75.397)" fill="#676767"/>
    <path id="패스_3031" data-name="패스 3031" d="M132.083,4.035A4.331,4.331,0,1,1,127.466.011a4.331,4.331,0,0,1,4.617,4.024" transform="translate(-83.836 0)" fill="#676767"/>
  </g>
</svg>
