<svg id="그룹_2528" data-name="그룹 2528" xmlns="http://www.w3.org/2000/svg" xmlns:xlink="http://www.w3.org/1999/xlink" width="50.765" height="54.726" viewBox="0 0 50.765 54.726">
  <defs>
    <clipPath id="clip-path">
      <rect id="사각형_213" data-name="사각형 213" width="50.765" height="54.726" fill="#676767"/>
    </clipPath>
  </defs>
  <g id="그룹_2527" data-name="그룹 2527" clip-path="url(#clip-path)">
    <path id="패스_3006" data-name="패스 3006" d="M68.486,200.171c-.017-.008-.021-.019-.032-.028a.007.007,0,0,1,0-.006c.008.012.019.023.027.034" transform="translate(-52.309 -152.935)" fill="#676767"/>
    <path id="패스_3007" data-name="패스 3007" d="M68.486,200.171c-.017-.008-.021-.019-.032-.028a.007.007,0,0,1,0-.006c.008.012.019.023.027.034" transform="translate(-52.309 -152.935)" fill="#676767"/>
    <path id="패스_3008" data-name="패스 3008" d="M68.486,200.171c-.017-.008-.021-.019-.032-.028a.007.007,0,0,1,0-.006c.008.012.019.023.027.034" transform="translate(-52.309 -152.935)" fill="#676767"/>
    <path id="패스_3009" data-name="패스 3009" d="M102.5,24.319a2.606,2.606,0,0,0-.625.774,13.488,13.488,0,0,0-1.246,3.3,7.923,7.923,0,0,1-1.937.351.626.626,0,0,1-.142-.006l-2.135.345c-.378-1.012-.774-2.027-1.2-3.013a4.36,4.36,0,0,0,.691.223,4.783,4.783,0,0,0,5.042-1.9l1.019.034a.2.2,0,0,0-.03.03c.191-.042.382-.089.567-.142" transform="translate(-72.752 -18.583)" fill="#676767"/>
    <path id="패스_3010" data-name="패스 3010" d="M73.191,33.45a21.472,21.472,0,0,1-1,1.991c-.052.151-.111.3-.177.45a5.518,5.518,0,0,1-4.953,3.333,5.112,5.112,0,0,1-2.929-.778c-.007.12-.009.241-.014.361a2.049,2.049,0,0,0-.014.205,38.389,38.389,0,0,1,.8,3.854c.061.436.108.875.151,1.316,3.255,6.46,6.4,13.326,6.5,20.611a23.568,23.568,0,0,1-.078,2.373c-.028.354-.064.708-.108,1.064a1.788,1.788,0,0,1-.908,1.509,1.766,1.766,0,0,1-.83.233,3.271,3.271,0,0,1-2.656-1.535,3.219,3.219,0,0,1-.41-.988,1.791,1.791,0,0,1-.191-1.08.584.584,0,0,1,.007-.064,20.406,20.406,0,0,0-.111-8.592c-.715-2.481-2.252-4.639-3.267-7q-.251-.594-.443-1.21c-.026.078-.05.163-.073.241-.481,3.613-1.059,7.215-1.87,10.755q-.573,2.5-1.38,4.934a15.88,15.88,0,0,1-.833,2.276,3.386,3.386,0,0,1-1.2,1.392A2.42,2.42,0,0,1,54,68.488c-.026-.035-.052-.071-.075-.106a2.593,2.593,0,0,1-.219-2.149,61.07,61.07,0,0,0,2.851-6.1,22.549,22.549,0,0,0,1.175-10.16.16.16,0,0,0,.007-.045,62.727,62.727,0,0,0-1.25-17.109,20.883,20.883,0,0,1,.38-5.068,1.723,1.723,0,0,1,1.84-1.238,1.639,1.639,0,0,1,.587,0,4.018,4.018,0,0,1,1.436.521,3.347,3.347,0,0,1,1.007.828c.047.061.092.13.142.2a16.46,16.46,0,0,0,2.462,5.29c.026.061.05.123.075.179a5.605,5.605,0,0,0,.439.415,7.1,7.1,0,0,0,1.219,1.019.827.827,0,0,0,.094.064,1.105,1.105,0,0,0,1.512-.4,3.883,3.883,0,0,0,1.163-1.743c.208-.5.4-1.017.58-1.533a17.617,17.617,0,0,1,.45-2.066,11.926,11.926,0,0,1,1.012-2.517,1.7,1.7,0,0,1,2.875-.118,1.658,1.658,0,0,1,.3.488,5.437,5.437,0,0,1,.316.972c.429,1.894-.34,3.472-1.189,5.34" transform="translate(-40.933 -19.805)" fill="#676767"/>
    <path id="패스_3011" data-name="패스 3011" d="M74.38,28.111a5.437,5.437,0,0,0-.316-.972,1.658,1.658,0,0,0-.3-.488,1.7,1.7,0,0,0-2.875.118,11.926,11.926,0,0,0-1.012,2.517,17.617,17.617,0,0,0-.45,2.066c-.184.517-.373,1.031-.58,1.533a3.883,3.883,0,0,1-1.163,1.743,1.105,1.105,0,0,1-1.512.4.827.827,0,0,1-.094-.064,7.1,7.1,0,0,1-1.219-1.019,5.605,5.605,0,0,1-.439-.415c-.026-.057-.05-.118-.075-.179a16.46,16.46,0,0,1-2.462-5.29c-.05-.066-.094-.134-.142-.2a3.347,3.347,0,0,0-1.007-.828,4.018,4.018,0,0,0-1.436-.521,1.639,1.639,0,0,0-.587,0,1.723,1.723,0,0,0-1.84,1.238,20.883,20.883,0,0,0-.38,5.068,62.727,62.727,0,0,1,1.25,17.109.16.16,0,0,1-.007.045,22.549,22.549,0,0,1-1.175,10.16,61.07,61.07,0,0,1-2.851,6.1,2.593,2.593,0,0,0,.219,2.149c.024.035.05.071.075.106a2.42,2.42,0,0,0,3.208.608,3.386,3.386,0,0,0,1.2-1.392,15.88,15.88,0,0,0,.833-2.276Q60.043,63,60.616,60.5c.811-3.54,1.389-7.142,1.87-10.755.024-.078.047-.163.073-.241q.191.616.443,1.21c1.014,2.363,2.552,4.521,3.267,7A20.406,20.406,0,0,1,66.38,66.3a.584.584,0,0,0-.007.064,1.791,1.791,0,0,0,.191,1.08,3.219,3.219,0,0,0,.41.988,3.271,3.271,0,0,0,2.656,1.535,1.766,1.766,0,0,0,.83-.233,1.788,1.788,0,0,0,.908-1.509c.045-.356.08-.71.108-1.064a23.568,23.568,0,0,0,.078-2.373c-.094-7.285-3.243-14.151-6.5-20.611-.042-.441-.09-.88-.151-1.316a38.389,38.389,0,0,0-.8-3.854,2.049,2.049,0,0,1,.014-.205c0-.12.007-.241.014-.361a5.112,5.112,0,0,0,2.929.778,5.518,5.518,0,0,0,4.953-3.333c.066-.149.125-.3.177-.45a21.472,21.472,0,0,0,1-1.991c.849-1.868,1.618-3.446,1.189-5.34m-17.3,38.9a.408.408,0,0,0,.028.033.134.134,0,0,1-.033-.026.008.008,0,0,1,0-.007" transform="translate(-40.933 -19.805)" fill="#676767"/>
    <path id="패스_3012" data-name="패스 3012" d="M152.254,18.885c-4.057.117-5.418.232-9.475.349a2.177,2.177,0,0,1-.517,1.75c-2.828.11-3.566.22-6.394.33a6.944,6.944,0,0,0-.306-.883,2.623,2.623,0,0,0-.449-.727A2.854,2.854,0,0,0,132.9,18.63a.25.25,0,0,1,.055-.015,4.112,4.112,0,0,1,2.419-.987c6.96.145,9.818.275,16.78.417a.857.857,0,0,1,.1.84" transform="translate(-101.557 -13.47)" fill="#676767"/>
    <path id="패스_3013" data-name="패스 3013" d="M79.158,3.15A3.149,3.149,0,1,1,76.009,0,3.149,3.149,0,0,1,79.158,3.15" transform="translate(-55.676 -0.001)" fill="#676767" fill-rule="evenodd"/>
    <path id="패스_3014" data-name="패스 3014" d="M120.267,211.949a3.3,3.3,0,0,1-.434-.045q.63-.1,1.264-.189a1.766,1.766,0,0,1-.83.234" transform="translate(-91.57 -161.782)" fill="#676767"/>
    <path id="패스_3015" data-name="패스 3015" d="M89.429,189.6c-1.733,2.717-4.745,3.764-7.8,4.21-3.62.531-2.546.512-6.171,1.008q-11.3,1.55-22.514,3.575c-1.337.241-1.906-1.8-.564-2.047q7.121-1.284,14.276-2.377h0a3.725,3.725,0,0,0,1.46.356h.031a2.27,2.27,0,0,0,1.691-.833q1.833-.272,3.67-.528c3.474-.486,2.161-.355,5.712-.97,2.959-.512,6.6-.679,8.375-3.465.733-1.151,2.571-.085,1.833,1.071" transform="translate(-39.44 -143.687)" fill="#676767"/>
    <path id="패스_3016" data-name="패스 3016" d="M55.4,203.878q1.3-.237,2.608-.472c.6-.106,1.2-.21,1.795-.311a3.386,3.386,0,0,1-1.2,1.392,2.42,2.42,0,0,1-3.208-.608" transform="translate(-42.336 -155.195)" fill="#676767"/>
    <path id="패스_3017" data-name="패스 3017" d="M25.187,198.943a3.691,3.691,0,0,0,.366.92c-2.637.5-5.321.83-7.953,1.292-7.1,1.245-9.233,1.6-16.275,3.162-1.333.3-1.9-1.75-.564-2.047,5.563-1.233,6.2-1.318,11.8-2.355l.021.038.014.024a2.89,2.89,0,0,0,3.927.851,4.077,4.077,0,0,0,1.514-1.887c2.3-.387,4.613-.75,6.915-1.156a2.282,2.282,0,0,0,.231,1.158" transform="translate(0 -151.137)" fill="#676767"/>
    <path id="패스_3018" data-name="패스 3018" d="M112.99,190.745a23.568,23.568,0,0,1-.078,2.373,16.456,16.456,0,0,1-2.639.866q-.927.223-1.863.406a3.219,3.219,0,0,1-.41-.988,1.791,1.791,0,0,1-.191-1.08l.16-.028a17.122,17.122,0,0,0,5.021-1.547" transform="translate(-82.369 -145.758)" fill="#676767"/>
    <path id="패스_3019" data-name="패스 3019" d="M135.722,180.107a10.092,10.092,0,0,1-4.139,3.469c.059-.811.075-1.618.054-2.42a7.173,7.173,0,0,0,2.252-2.123c.757-1.13,2.6-.066,1.833,1.073" transform="translate(-100.549 -136.441)" fill="#676767"/>
  </g>
</svg>
