<svg id="그룹_3415" data-name="그룹 3415" xmlns="http://www.w3.org/2000/svg" width="65" height="48" viewBox="0 0 65 48">
  <path id="패스_1661" data-name="패스 1661" d="M2349.978,240.478a.024.024,0,0,0-.015-.009l.009-.009A.038.038,0,0,1,2349.978,240.478Z" transform="translate(-2320.239 -231.653)" fill="#676767"/>
  <g id="그룹_485" data-name="그룹 485">
    <path id="패스_1662" data-name="패스 1662" d="M2349.978,240.478a.024.024,0,0,0-.015-.009l.009-.009A.038.038,0,0,1,2349.978,240.478Z" transform="translate(-2320.325 -231.653)" fill="#676767"/>
    <path id="패스_1663" data-name="패스 1663" d="M2292.641,235.5c-8.226-3.444-12.459-12.3-18.918-18.029a39.656,39.656,0,0,0-10.266-6.614,38.9,38.9,0,0,0-5.423-1.948c-1.812-.5-3.8-1.047-5.61-.276a1.284,1.284,0,0,0-.293,2.288c4.541,2.919,9.969,4.029,14.448,7.03a45.447,45.447,0,0,0-5.119,6.318,49.773,49.773,0,0,0-4.359,8.673c-2.43,5.946-6.672,10.55-11.687,14.257-1.217.9-2.463,1.76-3.721,2.6-1.009.67-2.262,1.484-1.909,2.925.725,2.955,5.355.625,6.841-.312,2.9-1.83,5.589-4.087,8.342-6.141a38.428,38.428,0,0,0,6.225-5.558,20.421,20.421,0,0,1,9.413,2.43c.066.055.127.106.193.158a5.534,5.534,0,0,1,2.181,5.067c-.159,2.218-.9,4.336-.989,6.572a1.265,1.265,0,0,0,.9,1.208c2.622.777,4.278-2.928,4.819-5a12.426,12.426,0,0,0-.634-7.943c-2.025-4.727-6.8-7.4-11.666-7.831,2.842-3.565,5.873-6.951,9.694-9.351q2.1,2.039,4.289,3.981c2.013,1.787,4.07,3.529,6.2,5.167,2,1.544,4.159,2.813,6.726,2.795C2293.786,237.952,2293.854,236.009,2292.641,235.5Zm-23.278-18.366.009-.009a.041.041,0,0,1,.006.018A.024.024,0,0,0,2269.362,217.137Z" transform="translate(-2239.725 -208.252)" fill="#676767"/>
    <path id="패스_1664" data-name="패스 1664" d="M2349.978,240.478a.024.024,0,0,0-.015-.009l.009-.009A.038.038,0,0,1,2349.978,240.478Z" transform="translate(-2320.325 -231.653)" fill="#676767"/>
  </g>
  <circle id="타원_33" data-name="타원 33" cx="3.917" cy="3.917" r="3.917" transform="translate(35.84 2.339)" fill="#676767"/>
  <path id="패스_1665" data-name="패스 1665" d="M2446.608,338.069a5.414,5.414,0,1,0,5.414,5.414A5.414,5.414,0,0,0,2446.608,338.069Zm-2.917,3.52a.939.939,0,0,1-.256-.667,1.544,1.544,0,0,1,1.3-1.109c.023,0,.044.005.067.007s.049-.007.076-.007a.857.857,0,0,1,.505.154c.031.013.064.025.094.041a.681.681,0,0,1,.253.233.654.654,0,0,1,.107.165.945.945,0,0,1,.23.6.909.909,0,0,1-.264.639.73.73,0,0,1-.142.116l-.008.006a.812.812,0,0,1-.7.356c-.018,0-.033,0-.051,0a.92.92,0,0,1-.378.077A.823.823,0,0,1,2443.691,341.589Zm2.042,3.536a.9.9,0,0,1-.4-.087h-.01a.662.662,0,0,1-.234-.059l-.124-.038a1.353,1.353,0,0,1-.519-.295.9.9,0,0,1-.264-.639.747.747,0,0,1,.013-.169.894.894,0,0,1,.818-1.235,1,1,0,0,1,.173.017,1.016,1.016,0,0,1,.185-.017.876.876,0,0,1,.458.123.911.911,0,0,1,.236.106,1.461,1.461,0,0,1,.231.179.906.906,0,0,1,.232.4q.016.12.032.24a.925.925,0,0,1-.027.209A.9.9,0,0,1,2445.734,345.125Zm2.933-2.638a.937.937,0,0,1-.079.187l-.141.183a.9.9,0,0,1-.4.232l-.24.032a.682.682,0,0,1-.348-.078.669.669,0,0,1-.16-.077.909.909,0,0,1-.627-1.313.83.83,0,0,1,.849-.7,1,1,0,0,1,.174.016.9.9,0,0,1,.4-.088A.916.916,0,0,1,2448.667,342.487Z" transform="translate(-2387.022 -302.2)" fill="#676767"/>
</svg>
