<svg id="그룹_3412" data-name="그룹 3412" xmlns="http://www.w3.org/2000/svg" width="41" height="68" viewBox="0 0 41 68">
  <path id="패스_1252" data-name="패스 1252" d="M533.939,101.268a77.947,77.947,0,0,1-9.209,9.307c-6.188,5.1-12.881,10.721-20.631,13.252-2.9.947-2.894-7.689-2.8-9.3-.383-2.848-4.455-1.768-4.29,1.246.08,3.588.628,8.642,2.433,10.519,1.546,1.609,4.282,2.531,6.412,1.472,10.86-5.193,22.775-14.025,29.383-24.366,1.538-2.408-.246-3.328-1.3-2.131Z" transform="translate(-494.836 -93.672)" fill="#676767" fill-rule="evenodd"/>
  <path id="패스_1253" data-name="패스 1253" d="M545.082,128.7a3.742,3.742,0,1,0-2.431,4.726,3.759,3.759,0,0,0,2.431-4.726Z" transform="translate(-522.722 -110.887)" fill="#676767" fill-rule="evenodd"/>
  <path id="패스_1254" data-name="패스 1254" d="M493.58,94.647a36.938,36.938,0,0,1,.679,9.361l.691.083c.183-3.077.589-6.444-.013-9.477,2.289-.675,3.227-3.94,2.139-6.613-1-2.46-3.263-3.612-5.05-2.571-3.193,1.859-2.109,8.351,1.554,9.216Zm2.476-6.25c.6,1.475.639,4.1-.963,5.035-2.891,1.684-5.591-5.294-2.508-7.089,1.509-.878,2.971.828,3.47,2.055Z" transform="translate(-490.138 -82.93)" fill="#676767" fill-rule="evenodd"/>
  <path id="패스_1255" data-name="패스 1255" d="M536.508,81.292c.682.267,2.624.731,3.041-.139a2.038,2.038,0,0,0-.575-2.6c-.856-.777-2.385.755-2.91,1.451-.576.764-.438.945.443,1.29Z" transform="translate(-521.32 -78.337)" fill="#676767" fill-rule="evenodd"/>
  <path id="패스_1256" data-name="패스 1256" d="M531.632,153.019c4.311,6.272,4.539,16.312,3.784,25.025-.333,3.846-1.754,13.329-3.881,16.318-1.666,1.594-3.891,2.519-4.326,1.423.774-2.09,1.2-3.663,1.815-5.8a52.43,52.43,0,0,0,1.885-16.92.7.7,0,0,0-1.353.037c-.644,6.661-2.722,16.273-14.136,21.186a2.631,2.631,0,0,1-3.456-.943c-.351-.481-.42-.872.175-1.114a21.022,21.022,0,0,0,5.5-3.193c4.857-4.03,7.665-11.915,7.681-17.572a23.716,23.716,0,0,0-3.058-12.179c-.732-1.9,6.323-10.378,9.367-6.271Z" transform="translate(-504.881 -128.262)" fill="#676767" fill-rule="evenodd"/>
</svg>
