<svg id="그룹_2526" data-name="그룹 2526" xmlns="http://www.w3.org/2000/svg" xmlns:xlink="http://www.w3.org/1999/xlink" width="70.297" height="51.871" viewBox="0 0 70.297 51.871">
  <defs>
    <clipPath id="clip-path">
      <rect id="사각형_212" data-name="사각형 212" width="70.297" height="51.871" fill="#676767"/>
    </clipPath>
  </defs>
  <g id="그룹_2525" data-name="그룹 2525" clip-path="url(#clip-path)">
    <path id="패스_3000" data-name="패스 3000" d="M38.079,75.136c-6.257-3.91-13-8.212-19.629-12.969C13.6,58.687,8.9,55.116,4.391,51.529c-6.062-5.122-4.7-2.169-2.672-.017,11.505,9.013,22.6,15.759,33.9,22.71,3.967,2.4,6.168,3.279,2.463.914" transform="translate(-0.001 -35.057)" fill="#676767" fill-rule="evenodd"/>
    <path id="패스_3001" data-name="패스 3001" d="M117.813,76.038c-2.62-8.932-12.419-14.455-19.023-18.629a2.762,2.762,0,0,1-.55-.272c-2.829-1.794-6.369-2.734-9.4-4.2-2.781-1.351-5.5-2.812-8.14-4.426-2.573-1.574-5.069-3.276-7.564-4.972-1.571-1.068-2.722-2.293-2.909-3.948A3.537,3.537,0,0,1,70.1,38.27a4.983,4.983,0,0,1,5.054-4.332l.006.011a5.5,5.5,0,0,1,.568.008c.149.013.294.024.439.049.093.013.176.017.262.022,6.153.879,15.635,8.855,24.623,18.464,4.219,4.515,10.926,6.823,15.237,11.425,4.09,4.361,6.861,9.484,1.528,12.12" transform="translate(-50.46 -24.436)" fill="#676767" fill-rule="evenodd"/>
    <path id="패스_3002" data-name="패스 3002" d="M75.475.444A4.09,4.09,0,0,1,77.3,5.923,4.1,4.1,0,1,1,75.475.444" transform="translate(-50.074 0)" fill="#676767" fill-rule="evenodd"/>
    <path id="패스_3003" data-name="패스 3003" d="M92.07,88.125a34.422,34.422,0,0,1-6.249-3.762q-3.117-2.078-6.213-4.177A198.325,198.325,0,0,1,55.545,61.5c-.62-.578.377-1.448,1-.87A174.734,174.734,0,0,0,75.209,75.54c3.174,2.234,6.391,4.409,9.618,6.568,1.617,1.083,3.218,2.2,4.87,3.232a11.992,11.992,0,0,0,2.791,1.531c1.881.447,2.675-.459,2.095-2.2-.266-.8,1.03-1.068,1.3-.269.939,2.821-1.058,4.8-3.81,3.721" transform="translate(-39.852 -43.52)" fill="#676767"/>
    <path id="패스_3004" data-name="패스 3004" d="M46.476,101.356c12.2,8.35,18.3,12.525,19.021,13.136,0,0,8.32,6.131,12.837,8.425.394.2,1.854,1.2,1.992,1,.123-.174-.634-.9-1.145-1.372-5.138-4.056-10.567-7.179-15.564-10.552-1.311-.885-8-5.594-14.976-9.736a43.975,43.975,0,0,0-3.854-2.155,14.379,14.379,0,0,0,1.69,1.251" transform="translate(-32.246 -72.074)" fill="#676767" fill-rule="evenodd"/>
    <path id="패스_3005" data-name="패스 3005" d="M39.953,110.6c-4.512-2.82-9.372-5.925-14.142-9.372-3.489-2.521-6.871-5.111-10.108-7.718-4.35-3.728-3.4-1.546-1.952.029,8.268,6.546,16.268,11.406,24.416,16.417,2.861,1.728,4.457,2.35,1.786.643" transform="translate(-9.025 -65.848)" fill="#676767" fill-rule="evenodd"/>
  </g>
</svg>
